%TF.GenerationSoftware,KiCad,Pcbnew,(7.0.0)*%
%TF.CreationDate,2023-02-28T15:15:28-06:00*%
%TF.ProjectId,Film_Dev_Robot,46696c6d-5f44-4657-965f-526f626f742e,rev?*%
%TF.SameCoordinates,Original*%
%TF.FileFunction,Drillmap*%
%TF.FilePolarity,Positive*%
%FSLAX45Y45*%
G04 Gerber Fmt 4.5, Leading zero omitted, Abs format (unit mm)*
G04 Created by KiCad (PCBNEW (7.0.0)) date 2023-02-28 15:15:28*
%MOMM*%
%LPD*%
G01*
G04 APERTURE LIST*
%ADD10C,0.100000*%
%ADD11C,0.200000*%
%ADD12C,0.040000*%
%ADD13C,0.050000*%
%ADD14C,0.055000*%
%ADD15C,0.120000*%
%ADD16C,0.150000*%
%ADD17C,0.250000*%
G04 APERTURE END LIST*
D10*
X6286500Y-5207000D02*
X6286500Y-11176000D01*
X6286500Y-5207000D02*
X6540500Y-4953000D01*
X14922500Y-11430000D02*
X15176500Y-11176000D01*
X14922500Y-4953000D02*
X15176500Y-5207000D01*
X6540500Y-4953000D02*
X14922500Y-4953000D01*
X6540500Y-11430000D02*
X14922500Y-11430000D01*
X15176500Y-5207000D02*
X15176500Y-11176000D01*
X6286500Y-11176000D02*
X6540500Y-11430000D01*
D11*
D12*
X8933500Y-9886000D02*
X8973500Y-9926000D01*
X8973500Y-9886000D02*
X8933500Y-9926000D01*
X8933500Y-10965500D02*
X8973500Y-11005500D01*
X8973500Y-10965500D02*
X8933500Y-11005500D01*
D13*
X12823500Y-5572000D02*
G75*
G03*
X12823500Y-5572000I-25000J0D01*
G01*
D11*
X12823500Y-5604500D02*
X12823500Y-5539500D01*
X12823500Y-5539500D02*
G75*
G03*
X12773500Y-5539500I-25000J0D01*
G01*
X12773500Y-5539500D02*
X12773500Y-5604500D01*
X12773500Y-5604500D02*
G75*
G03*
X12823500Y-5604500I25000J0D01*
G01*
D13*
X13523500Y-5572000D02*
G75*
G03*
X13523500Y-5572000I-25000J0D01*
G01*
D11*
X13523500Y-5604500D02*
X13523500Y-5539500D01*
X13523500Y-5539500D02*
G75*
G03*
X13473500Y-5539500I-25000J0D01*
G01*
X13473500Y-5539500D02*
X13473500Y-5604500D01*
X13473500Y-5604500D02*
G75*
G03*
X13523500Y-5604500I25000J0D01*
G01*
D14*
X12898500Y-5814500D02*
X12898500Y-5869500D01*
X12871000Y-5842000D02*
X12926000Y-5842000D01*
D11*
X12913500Y-5814500D02*
X12883500Y-5814500D01*
X12883500Y-5814500D02*
G75*
G03*
X12883500Y-5869500I0J-27500D01*
G01*
X12883500Y-5869500D02*
X12913500Y-5869500D01*
X12913500Y-5869500D02*
G75*
G03*
X12913500Y-5814500I0J27500D01*
G01*
D14*
X13398500Y-5814500D02*
X13398500Y-5869500D01*
X13371000Y-5842000D02*
X13426000Y-5842000D01*
D11*
X13413500Y-5814500D02*
X13383500Y-5814500D01*
X13383500Y-5814500D02*
G75*
G03*
X13383500Y-5869500I0J-27500D01*
G01*
X13383500Y-5869500D02*
X13413500Y-5869500D01*
X13413500Y-5869500D02*
G75*
G03*
X13413500Y-5814500I0J27500D01*
G01*
D10*
X7021856Y-10199356D02*
X7021856Y-10128644D01*
X6951144Y-10128644D01*
X6951144Y-10199356D01*
X7021856Y-10199356D01*
X7021856Y-10699356D02*
X7021856Y-10628644D01*
X6951144Y-10628644D01*
X6951144Y-10699356D01*
X7021856Y-10699356D01*
X8471856Y-10199356D02*
X8471856Y-10128644D01*
X8401144Y-10128644D01*
X8401144Y-10199356D01*
X8471856Y-10199356D01*
X8471856Y-10449356D02*
X8471856Y-10378644D01*
X8401144Y-10378644D01*
X8401144Y-10449356D01*
X8471856Y-10449356D01*
X8471856Y-10699356D02*
X8471856Y-10628644D01*
X8401144Y-10628644D01*
X8401144Y-10699356D01*
X8471856Y-10699356D01*
X9662356Y-6321856D02*
X9662356Y-6251144D01*
X9591644Y-6251144D01*
X9591644Y-6321856D01*
X9662356Y-6321856D01*
X9916356Y-6321856D02*
X9916356Y-6251144D01*
X9845644Y-6251144D01*
X9845644Y-6321856D01*
X9916356Y-6321856D01*
X10068356Y-11147856D02*
X10068356Y-11077144D01*
X9997644Y-11077144D01*
X9997644Y-11147856D01*
X10068356Y-11147856D01*
X10170356Y-6321856D02*
X10170356Y-6251144D01*
X10099644Y-6251144D01*
X10099644Y-6321856D01*
X10170356Y-6321856D01*
X10322356Y-11147856D02*
X10322356Y-11077144D01*
X10251644Y-11077144D01*
X10251644Y-11147856D01*
X10322356Y-11147856D01*
X10424356Y-6321856D02*
X10424356Y-6251144D01*
X10353644Y-6251144D01*
X10353644Y-6321856D01*
X10424356Y-6321856D01*
X10576356Y-11147856D02*
X10576356Y-11077144D01*
X10505644Y-11077144D01*
X10505644Y-11147856D01*
X10576356Y-11147856D01*
X10678356Y-6321856D02*
X10678356Y-6251144D01*
X10607644Y-6251144D01*
X10607644Y-6321856D01*
X10678356Y-6321856D01*
X10830356Y-11147856D02*
X10830356Y-11077144D01*
X10759644Y-11077144D01*
X10759644Y-11147856D01*
X10830356Y-11147856D01*
X10932356Y-6321856D02*
X10932356Y-6251144D01*
X10861644Y-6251144D01*
X10861644Y-6321856D01*
X10932356Y-6321856D01*
X11084356Y-11147856D02*
X11084356Y-11077144D01*
X11013644Y-11077144D01*
X11013644Y-11147856D01*
X11084356Y-11147856D01*
X11186356Y-6321856D02*
X11186356Y-6251144D01*
X11115644Y-6251144D01*
X11115644Y-6321856D01*
X11186356Y-6321856D01*
X11338356Y-11147856D02*
X11338356Y-11077144D01*
X11267644Y-11077144D01*
X11267644Y-11147856D01*
X11338356Y-11147856D01*
X11440356Y-6321856D02*
X11440356Y-6251144D01*
X11369644Y-6251144D01*
X11369644Y-6321856D01*
X11440356Y-6321856D01*
X11592356Y-11147856D02*
X11592356Y-11077144D01*
X11521644Y-11077144D01*
X11521644Y-11147856D01*
X11592356Y-11147856D01*
X11846356Y-6321856D02*
X11846356Y-6251144D01*
X11775644Y-6251144D01*
X11775644Y-6321856D01*
X11846356Y-6321856D01*
X11846356Y-11147856D02*
X11846356Y-11077144D01*
X11775644Y-11077144D01*
X11775644Y-11147856D01*
X11846356Y-11147856D01*
X12100356Y-6321856D02*
X12100356Y-6251144D01*
X12029644Y-6251144D01*
X12029644Y-6321856D01*
X12100356Y-6321856D01*
X12354356Y-6321856D02*
X12354356Y-6251144D01*
X12283644Y-6251144D01*
X12283644Y-6321856D01*
X12354356Y-6321856D01*
X12354356Y-11147856D02*
X12354356Y-11077144D01*
X12283644Y-11077144D01*
X12283644Y-11147856D01*
X12354356Y-11147856D01*
X12608356Y-6321856D02*
X12608356Y-6251144D01*
X12537644Y-6251144D01*
X12537644Y-6321856D01*
X12608356Y-6321856D01*
X12608356Y-11147856D02*
X12608356Y-11077144D01*
X12537644Y-11077144D01*
X12537644Y-11147856D01*
X12608356Y-11147856D01*
X12860856Y-10632356D02*
X12860856Y-10561644D01*
X12790144Y-10561644D01*
X12790144Y-10632356D01*
X12860856Y-10632356D01*
X12862356Y-6321856D02*
X12862356Y-6251144D01*
X12791644Y-6251144D01*
X12791644Y-6321856D01*
X12862356Y-6321856D01*
X12862356Y-11147856D02*
X12862356Y-11077144D01*
X12791644Y-11077144D01*
X12791644Y-11147856D01*
X12862356Y-11147856D01*
X13114856Y-10632356D02*
X13114856Y-10561644D01*
X13044144Y-10561644D01*
X13044144Y-10632356D01*
X13114856Y-10632356D01*
X13116356Y-6321856D02*
X13116356Y-6251144D01*
X13045644Y-6251144D01*
X13045644Y-6321856D01*
X13116356Y-6321856D01*
X13116356Y-11147856D02*
X13116356Y-11077144D01*
X13045644Y-11077144D01*
X13045644Y-11147856D01*
X13116356Y-11147856D01*
X13368856Y-10632356D02*
X13368856Y-10561644D01*
X13298144Y-10561644D01*
X13298144Y-10632356D01*
X13368856Y-10632356D01*
X13370356Y-6321856D02*
X13370356Y-6251144D01*
X13299644Y-6251144D01*
X13299644Y-6321856D01*
X13370356Y-6321856D01*
X13370356Y-11147856D02*
X13370356Y-11077144D01*
X13299644Y-11077144D01*
X13299644Y-11147856D01*
X13370356Y-11147856D01*
X13624356Y-6321856D02*
X13624356Y-6251144D01*
X13553644Y-6251144D01*
X13553644Y-6321856D01*
X13624356Y-6321856D01*
X13624356Y-11147856D02*
X13624356Y-11077144D01*
X13553644Y-11077144D01*
X13553644Y-11147856D01*
X13624356Y-11147856D01*
X13758356Y-7336356D02*
X13758356Y-7265644D01*
X13687644Y-7265644D01*
X13687644Y-7336356D01*
X13758356Y-7336356D01*
X13758356Y-7590356D02*
X13758356Y-7519644D01*
X13687644Y-7519644D01*
X13687644Y-7590356D01*
X13758356Y-7590356D01*
X13758356Y-7844356D02*
X13758356Y-7773644D01*
X13687644Y-7773644D01*
X13687644Y-7844356D01*
X13758356Y-7844356D01*
D15*
X7493000Y-5648000D02*
X7553000Y-5588000D01*
X7493000Y-5528000D01*
X7433000Y-5588000D01*
X7493000Y-5648000D01*
X7747000Y-5648000D02*
X7807000Y-5588000D01*
X7747000Y-5528000D01*
X7687000Y-5588000D01*
X7747000Y-5648000D01*
X8001000Y-5648000D02*
X8061000Y-5588000D01*
X8001000Y-5528000D01*
X7941000Y-5588000D01*
X8001000Y-5648000D01*
X8255000Y-5648000D02*
X8315000Y-5588000D01*
X8255000Y-5528000D01*
X8195000Y-5588000D01*
X8255000Y-5648000D01*
X8509000Y-5648000D02*
X8569000Y-5588000D01*
X8509000Y-5528000D01*
X8449000Y-5588000D01*
X8509000Y-5648000D01*
X8763000Y-5648000D02*
X8823000Y-5588000D01*
X8763000Y-5528000D01*
X8703000Y-5588000D01*
X8763000Y-5648000D01*
X9017000Y-5648000D02*
X9077000Y-5588000D01*
X9017000Y-5528000D01*
X8957000Y-5588000D01*
X9017000Y-5648000D01*
X9271000Y-5648000D02*
X9331000Y-5588000D01*
X9271000Y-5528000D01*
X9211000Y-5588000D01*
X9271000Y-5648000D01*
X9525000Y-5648000D02*
X9585000Y-5588000D01*
X9525000Y-5528000D01*
X9465000Y-5588000D01*
X9525000Y-5648000D01*
X9779000Y-5648000D02*
X9839000Y-5588000D01*
X9779000Y-5528000D01*
X9719000Y-5588000D01*
X9779000Y-5648000D01*
X10033000Y-5648000D02*
X10093000Y-5588000D01*
X10033000Y-5528000D01*
X9973000Y-5588000D01*
X10033000Y-5648000D01*
X10287000Y-5648000D02*
X10347000Y-5588000D01*
X10287000Y-5528000D01*
X10227000Y-5588000D01*
X10287000Y-5648000D01*
X10541000Y-5648000D02*
X10601000Y-5588000D01*
X10541000Y-5528000D01*
X10481000Y-5588000D01*
X10541000Y-5648000D01*
X10795000Y-5648000D02*
X10855000Y-5588000D01*
X10795000Y-5528000D01*
X10735000Y-5588000D01*
X10795000Y-5648000D01*
X11049000Y-5648000D02*
X11109000Y-5588000D01*
X11049000Y-5528000D01*
X10989000Y-5588000D01*
X11049000Y-5648000D01*
X11303000Y-5648000D02*
X11363000Y-5588000D01*
X11303000Y-5528000D01*
X11243000Y-5588000D01*
X11303000Y-5648000D01*
X14605000Y-9966000D02*
X14665000Y-9906000D01*
X14605000Y-9846000D01*
X14545000Y-9906000D01*
X14605000Y-9966000D01*
X14605000Y-10316000D02*
X14665000Y-10256000D01*
X14605000Y-10196000D01*
X14545000Y-10256000D01*
X14605000Y-10316000D01*
D16*
X7611500Y-9779000D02*
X7761500Y-9929000D01*
X7761500Y-9779000D02*
X7611500Y-9929000D01*
X7761500Y-9854000D02*
G75*
G03*
X7761500Y-9854000I-75000J0D01*
G01*
D11*
X7751500Y-9779000D02*
X7621500Y-9779000D01*
X7621500Y-9779000D02*
G75*
G03*
X7621500Y-9929000I0J-75000D01*
G01*
X7621500Y-9929000D02*
X7751500Y-9929000D01*
X7751500Y-9929000D02*
G75*
G03*
X7751500Y-9779000I0J75000D01*
G01*
D16*
X7611500Y-10899000D02*
X7761500Y-11049000D01*
X7761500Y-10899000D02*
X7611500Y-11049000D01*
X7761500Y-10974000D02*
G75*
G03*
X7761500Y-10974000I-75000J0D01*
G01*
D11*
X7751500Y-10899000D02*
X7621500Y-10899000D01*
X7621500Y-10899000D02*
G75*
G03*
X7621500Y-11049000I0J-75000D01*
G01*
X7621500Y-11049000D02*
X7751500Y-11049000D01*
X7751500Y-11049000D02*
G75*
G03*
X7751500Y-10899000I0J75000D01*
G01*
D17*
X6818090Y-5463000D02*
X7068090Y-5713000D01*
X7068090Y-5463000D02*
X6818090Y-5713000D01*
X6943090Y-5463000D02*
X6943090Y-5713000D01*
X6818090Y-5588000D02*
X7068090Y-5588000D01*
X6818090Y-8563070D02*
X7068090Y-8813070D01*
X7068090Y-8563070D02*
X6818090Y-8813070D01*
X6943090Y-8563070D02*
X6943090Y-8813070D01*
X6818090Y-8688070D02*
X7068090Y-8688070D01*
X14317948Y-8563070D02*
X14567948Y-8813070D01*
X14567948Y-8563070D02*
X14317948Y-8813070D01*
X14442948Y-8563070D02*
X14442948Y-8813070D01*
X14317948Y-8688070D02*
X14567948Y-8688070D01*
X14318000Y-5463000D02*
X14568000Y-5713000D01*
X14568000Y-5463000D02*
X14318000Y-5713000D01*
X14443000Y-5463000D02*
X14443000Y-5713000D01*
X14318000Y-5588000D02*
X14568000Y-5588000D01*
D11*
X6529119Y-11728476D02*
X6529119Y-11528476D01*
X6529119Y-11528476D02*
X6576738Y-11528476D01*
X6576738Y-11528476D02*
X6605309Y-11538000D01*
X6605309Y-11538000D02*
X6624357Y-11557048D01*
X6624357Y-11557048D02*
X6633881Y-11576095D01*
X6633881Y-11576095D02*
X6643405Y-11614190D01*
X6643405Y-11614190D02*
X6643405Y-11642762D01*
X6643405Y-11642762D02*
X6633881Y-11680857D01*
X6633881Y-11680857D02*
X6624357Y-11699905D01*
X6624357Y-11699905D02*
X6605309Y-11718952D01*
X6605309Y-11718952D02*
X6576738Y-11728476D01*
X6576738Y-11728476D02*
X6529119Y-11728476D01*
X6729119Y-11728476D02*
X6729119Y-11595143D01*
X6729119Y-11633238D02*
X6738643Y-11614190D01*
X6738643Y-11614190D02*
X6748167Y-11604667D01*
X6748167Y-11604667D02*
X6767214Y-11595143D01*
X6767214Y-11595143D02*
X6786262Y-11595143D01*
X6852928Y-11728476D02*
X6852928Y-11595143D01*
X6852928Y-11528476D02*
X6843405Y-11538000D01*
X6843405Y-11538000D02*
X6852928Y-11547524D01*
X6852928Y-11547524D02*
X6862452Y-11538000D01*
X6862452Y-11538000D02*
X6852928Y-11528476D01*
X6852928Y-11528476D02*
X6852928Y-11547524D01*
X6976738Y-11728476D02*
X6957690Y-11718952D01*
X6957690Y-11718952D02*
X6948167Y-11699905D01*
X6948167Y-11699905D02*
X6948167Y-11528476D01*
X7081500Y-11728476D02*
X7062452Y-11718952D01*
X7062452Y-11718952D02*
X7052928Y-11699905D01*
X7052928Y-11699905D02*
X7052928Y-11528476D01*
X7277690Y-11728476D02*
X7277690Y-11528476D01*
X7277690Y-11528476D02*
X7344357Y-11671333D01*
X7344357Y-11671333D02*
X7411024Y-11528476D01*
X7411024Y-11528476D02*
X7411024Y-11728476D01*
X7591976Y-11728476D02*
X7591976Y-11623714D01*
X7591976Y-11623714D02*
X7582452Y-11604667D01*
X7582452Y-11604667D02*
X7563405Y-11595143D01*
X7563405Y-11595143D02*
X7525309Y-11595143D01*
X7525309Y-11595143D02*
X7506262Y-11604667D01*
X7591976Y-11718952D02*
X7572928Y-11728476D01*
X7572928Y-11728476D02*
X7525309Y-11728476D01*
X7525309Y-11728476D02*
X7506262Y-11718952D01*
X7506262Y-11718952D02*
X7496738Y-11699905D01*
X7496738Y-11699905D02*
X7496738Y-11680857D01*
X7496738Y-11680857D02*
X7506262Y-11661809D01*
X7506262Y-11661809D02*
X7525309Y-11652286D01*
X7525309Y-11652286D02*
X7572928Y-11652286D01*
X7572928Y-11652286D02*
X7591976Y-11642762D01*
X7687214Y-11595143D02*
X7687214Y-11795143D01*
X7687214Y-11604667D02*
X7706262Y-11595143D01*
X7706262Y-11595143D02*
X7744357Y-11595143D01*
X7744357Y-11595143D02*
X7763405Y-11604667D01*
X7763405Y-11604667D02*
X7772928Y-11614190D01*
X7772928Y-11614190D02*
X7782452Y-11633238D01*
X7782452Y-11633238D02*
X7782452Y-11690381D01*
X7782452Y-11690381D02*
X7772928Y-11709428D01*
X7772928Y-11709428D02*
X7763405Y-11718952D01*
X7763405Y-11718952D02*
X7744357Y-11728476D01*
X7744357Y-11728476D02*
X7706262Y-11728476D01*
X7706262Y-11728476D02*
X7687214Y-11718952D01*
X7868167Y-11709428D02*
X7877690Y-11718952D01*
X7877690Y-11718952D02*
X7868167Y-11728476D01*
X7868167Y-11728476D02*
X7858643Y-11718952D01*
X7858643Y-11718952D02*
X7868167Y-11709428D01*
X7868167Y-11709428D02*
X7868167Y-11728476D01*
X7868167Y-11604667D02*
X7877690Y-11614190D01*
X7877690Y-11614190D02*
X7868167Y-11623714D01*
X7868167Y-11623714D02*
X7858643Y-11614190D01*
X7858643Y-11614190D02*
X7868167Y-11604667D01*
X7868167Y-11604667D02*
X7868167Y-11623714D01*
D12*
X6241500Y-12055000D02*
X6281500Y-12095000D01*
X6281500Y-12055000D02*
X6241500Y-12095000D01*
D11*
X6567214Y-11948476D02*
X6586262Y-11948476D01*
X6586262Y-11948476D02*
X6605309Y-11958000D01*
X6605309Y-11958000D02*
X6614833Y-11967524D01*
X6614833Y-11967524D02*
X6624357Y-11986571D01*
X6624357Y-11986571D02*
X6633881Y-12024667D01*
X6633881Y-12024667D02*
X6633881Y-12072286D01*
X6633881Y-12072286D02*
X6624357Y-12110381D01*
X6624357Y-12110381D02*
X6614833Y-12129428D01*
X6614833Y-12129428D02*
X6605309Y-12138952D01*
X6605309Y-12138952D02*
X6586262Y-12148476D01*
X6586262Y-12148476D02*
X6567214Y-12148476D01*
X6567214Y-12148476D02*
X6548167Y-12138952D01*
X6548167Y-12138952D02*
X6538643Y-12129428D01*
X6538643Y-12129428D02*
X6529119Y-12110381D01*
X6529119Y-12110381D02*
X6519595Y-12072286D01*
X6519595Y-12072286D02*
X6519595Y-12024667D01*
X6519595Y-12024667D02*
X6529119Y-11986571D01*
X6529119Y-11986571D02*
X6538643Y-11967524D01*
X6538643Y-11967524D02*
X6548167Y-11958000D01*
X6548167Y-11958000D02*
X6567214Y-11948476D01*
X6719595Y-12129428D02*
X6729119Y-12138952D01*
X6729119Y-12138952D02*
X6719595Y-12148476D01*
X6719595Y-12148476D02*
X6710071Y-12138952D01*
X6710071Y-12138952D02*
X6719595Y-12129428D01*
X6719595Y-12129428D02*
X6719595Y-12148476D01*
X6900548Y-12015143D02*
X6900548Y-12148476D01*
X6852928Y-11938952D02*
X6805309Y-12081809D01*
X6805309Y-12081809D02*
X6929119Y-12081809D01*
X7043405Y-11948476D02*
X7062452Y-11948476D01*
X7062452Y-11948476D02*
X7081500Y-11958000D01*
X7081500Y-11958000D02*
X7091024Y-11967524D01*
X7091024Y-11967524D02*
X7100548Y-11986571D01*
X7100548Y-11986571D02*
X7110071Y-12024667D01*
X7110071Y-12024667D02*
X7110071Y-12072286D01*
X7110071Y-12072286D02*
X7100548Y-12110381D01*
X7100548Y-12110381D02*
X7091024Y-12129428D01*
X7091024Y-12129428D02*
X7081500Y-12138952D01*
X7081500Y-12138952D02*
X7062452Y-12148476D01*
X7062452Y-12148476D02*
X7043405Y-12148476D01*
X7043405Y-12148476D02*
X7024357Y-12138952D01*
X7024357Y-12138952D02*
X7014833Y-12129428D01*
X7014833Y-12129428D02*
X7005309Y-12110381D01*
X7005309Y-12110381D02*
X6995786Y-12072286D01*
X6995786Y-12072286D02*
X6995786Y-12024667D01*
X6995786Y-12024667D02*
X7005309Y-11986571D01*
X7005309Y-11986571D02*
X7014833Y-11967524D01*
X7014833Y-11967524D02*
X7024357Y-11958000D01*
X7024357Y-11958000D02*
X7043405Y-11948476D01*
X7233881Y-11948476D02*
X7252929Y-11948476D01*
X7252929Y-11948476D02*
X7271976Y-11958000D01*
X7271976Y-11958000D02*
X7281500Y-11967524D01*
X7281500Y-11967524D02*
X7291024Y-11986571D01*
X7291024Y-11986571D02*
X7300548Y-12024667D01*
X7300548Y-12024667D02*
X7300548Y-12072286D01*
X7300548Y-12072286D02*
X7291024Y-12110381D01*
X7291024Y-12110381D02*
X7281500Y-12129428D01*
X7281500Y-12129428D02*
X7271976Y-12138952D01*
X7271976Y-12138952D02*
X7252929Y-12148476D01*
X7252929Y-12148476D02*
X7233881Y-12148476D01*
X7233881Y-12148476D02*
X7214833Y-12138952D01*
X7214833Y-12138952D02*
X7205309Y-12129428D01*
X7205309Y-12129428D02*
X7195786Y-12110381D01*
X7195786Y-12110381D02*
X7186262Y-12072286D01*
X7186262Y-12072286D02*
X7186262Y-12024667D01*
X7186262Y-12024667D02*
X7195786Y-11986571D01*
X7195786Y-11986571D02*
X7205309Y-11967524D01*
X7205309Y-11967524D02*
X7214833Y-11958000D01*
X7214833Y-11958000D02*
X7233881Y-11948476D01*
X7386262Y-12148476D02*
X7386262Y-12015143D01*
X7386262Y-12034190D02*
X7395786Y-12024667D01*
X7395786Y-12024667D02*
X7414833Y-12015143D01*
X7414833Y-12015143D02*
X7443405Y-12015143D01*
X7443405Y-12015143D02*
X7462452Y-12024667D01*
X7462452Y-12024667D02*
X7471976Y-12043714D01*
X7471976Y-12043714D02*
X7471976Y-12148476D01*
X7471976Y-12043714D02*
X7481500Y-12024667D01*
X7481500Y-12024667D02*
X7500548Y-12015143D01*
X7500548Y-12015143D02*
X7529119Y-12015143D01*
X7529119Y-12015143D02*
X7548167Y-12024667D01*
X7548167Y-12024667D02*
X7557690Y-12043714D01*
X7557690Y-12043714D02*
X7557690Y-12148476D01*
X7652929Y-12148476D02*
X7652929Y-12015143D01*
X7652929Y-12034190D02*
X7662452Y-12024667D01*
X7662452Y-12024667D02*
X7681500Y-12015143D01*
X7681500Y-12015143D02*
X7710071Y-12015143D01*
X7710071Y-12015143D02*
X7729119Y-12024667D01*
X7729119Y-12024667D02*
X7738643Y-12043714D01*
X7738643Y-12043714D02*
X7738643Y-12148476D01*
X7738643Y-12043714D02*
X7748167Y-12024667D01*
X7748167Y-12024667D02*
X7767214Y-12015143D01*
X7767214Y-12015143D02*
X7795786Y-12015143D01*
X7795786Y-12015143D02*
X7814833Y-12024667D01*
X7814833Y-12024667D02*
X7824357Y-12043714D01*
X7824357Y-12043714D02*
X7824357Y-12148476D01*
X8182452Y-11938952D02*
X8011024Y-12196095D01*
X8407214Y-11948476D02*
X8426262Y-11948476D01*
X8426262Y-11948476D02*
X8445310Y-11958000D01*
X8445310Y-11958000D02*
X8454833Y-11967524D01*
X8454833Y-11967524D02*
X8464357Y-11986571D01*
X8464357Y-11986571D02*
X8473881Y-12024667D01*
X8473881Y-12024667D02*
X8473881Y-12072286D01*
X8473881Y-12072286D02*
X8464357Y-12110381D01*
X8464357Y-12110381D02*
X8454833Y-12129428D01*
X8454833Y-12129428D02*
X8445310Y-12138952D01*
X8445310Y-12138952D02*
X8426262Y-12148476D01*
X8426262Y-12148476D02*
X8407214Y-12148476D01*
X8407214Y-12148476D02*
X8388167Y-12138952D01*
X8388167Y-12138952D02*
X8378643Y-12129428D01*
X8378643Y-12129428D02*
X8369119Y-12110381D01*
X8369119Y-12110381D02*
X8359595Y-12072286D01*
X8359595Y-12072286D02*
X8359595Y-12024667D01*
X8359595Y-12024667D02*
X8369119Y-11986571D01*
X8369119Y-11986571D02*
X8378643Y-11967524D01*
X8378643Y-11967524D02*
X8388167Y-11958000D01*
X8388167Y-11958000D02*
X8407214Y-11948476D01*
X8559595Y-12129428D02*
X8569119Y-12138952D01*
X8569119Y-12138952D02*
X8559595Y-12148476D01*
X8559595Y-12148476D02*
X8550072Y-12138952D01*
X8550072Y-12138952D02*
X8559595Y-12129428D01*
X8559595Y-12129428D02*
X8559595Y-12148476D01*
X8692929Y-11948476D02*
X8711976Y-11948476D01*
X8711976Y-11948476D02*
X8731024Y-11958000D01*
X8731024Y-11958000D02*
X8740548Y-11967524D01*
X8740548Y-11967524D02*
X8750072Y-11986571D01*
X8750072Y-11986571D02*
X8759595Y-12024667D01*
X8759595Y-12024667D02*
X8759595Y-12072286D01*
X8759595Y-12072286D02*
X8750072Y-12110381D01*
X8750072Y-12110381D02*
X8740548Y-12129428D01*
X8740548Y-12129428D02*
X8731024Y-12138952D01*
X8731024Y-12138952D02*
X8711976Y-12148476D01*
X8711976Y-12148476D02*
X8692929Y-12148476D01*
X8692929Y-12148476D02*
X8673881Y-12138952D01*
X8673881Y-12138952D02*
X8664357Y-12129428D01*
X8664357Y-12129428D02*
X8654833Y-12110381D01*
X8654833Y-12110381D02*
X8645310Y-12072286D01*
X8645310Y-12072286D02*
X8645310Y-12024667D01*
X8645310Y-12024667D02*
X8654833Y-11986571D01*
X8654833Y-11986571D02*
X8664357Y-11967524D01*
X8664357Y-11967524D02*
X8673881Y-11958000D01*
X8673881Y-11958000D02*
X8692929Y-11948476D01*
X8950072Y-12148476D02*
X8835786Y-12148476D01*
X8892929Y-12148476D02*
X8892929Y-11948476D01*
X8892929Y-11948476D02*
X8873881Y-11977048D01*
X8873881Y-11977048D02*
X8854833Y-11996095D01*
X8854833Y-11996095D02*
X8835786Y-12005619D01*
X9131024Y-11948476D02*
X9035786Y-11948476D01*
X9035786Y-11948476D02*
X9026262Y-12043714D01*
X9026262Y-12043714D02*
X9035786Y-12034190D01*
X9035786Y-12034190D02*
X9054833Y-12024667D01*
X9054833Y-12024667D02*
X9102453Y-12024667D01*
X9102453Y-12024667D02*
X9121500Y-12034190D01*
X9121500Y-12034190D02*
X9131024Y-12043714D01*
X9131024Y-12043714D02*
X9140548Y-12062762D01*
X9140548Y-12062762D02*
X9140548Y-12110381D01*
X9140548Y-12110381D02*
X9131024Y-12129428D01*
X9131024Y-12129428D02*
X9121500Y-12138952D01*
X9121500Y-12138952D02*
X9102453Y-12148476D01*
X9102453Y-12148476D02*
X9054833Y-12148476D01*
X9054833Y-12148476D02*
X9035786Y-12138952D01*
X9035786Y-12138952D02*
X9026262Y-12129428D01*
X9207214Y-11948476D02*
X9340548Y-11948476D01*
X9340548Y-11948476D02*
X9254833Y-12148476D01*
X9407214Y-11948476D02*
X9407214Y-11986571D01*
X9483405Y-11948476D02*
X9483405Y-11986571D01*
X9746262Y-12224667D02*
X9736738Y-12215143D01*
X9736738Y-12215143D02*
X9717691Y-12186571D01*
X9717691Y-12186571D02*
X9708167Y-12167524D01*
X9708167Y-12167524D02*
X9698643Y-12138952D01*
X9698643Y-12138952D02*
X9689119Y-12091333D01*
X9689119Y-12091333D02*
X9689119Y-12053238D01*
X9689119Y-12053238D02*
X9698643Y-12005619D01*
X9698643Y-12005619D02*
X9708167Y-11977048D01*
X9708167Y-11977048D02*
X9717691Y-11958000D01*
X9717691Y-11958000D02*
X9736738Y-11929428D01*
X9736738Y-11929428D02*
X9746262Y-11919905D01*
X9812929Y-11967524D02*
X9822453Y-11958000D01*
X9822453Y-11958000D02*
X9841500Y-11948476D01*
X9841500Y-11948476D02*
X9889119Y-11948476D01*
X9889119Y-11948476D02*
X9908167Y-11958000D01*
X9908167Y-11958000D02*
X9917691Y-11967524D01*
X9917691Y-11967524D02*
X9927214Y-11986571D01*
X9927214Y-11986571D02*
X9927214Y-12005619D01*
X9927214Y-12005619D02*
X9917691Y-12034190D01*
X9917691Y-12034190D02*
X9803405Y-12148476D01*
X9803405Y-12148476D02*
X9927214Y-12148476D01*
X10132929Y-12148476D02*
X10132929Y-11948476D01*
X10218643Y-12148476D02*
X10218643Y-12043714D01*
X10218643Y-12043714D02*
X10209119Y-12024667D01*
X10209119Y-12024667D02*
X10190072Y-12015143D01*
X10190072Y-12015143D02*
X10161500Y-12015143D01*
X10161500Y-12015143D02*
X10142453Y-12024667D01*
X10142453Y-12024667D02*
X10132929Y-12034190D01*
X10342453Y-12148476D02*
X10323405Y-12138952D01*
X10323405Y-12138952D02*
X10313881Y-12129428D01*
X10313881Y-12129428D02*
X10304357Y-12110381D01*
X10304357Y-12110381D02*
X10304357Y-12053238D01*
X10304357Y-12053238D02*
X10313881Y-12034190D01*
X10313881Y-12034190D02*
X10323405Y-12024667D01*
X10323405Y-12024667D02*
X10342453Y-12015143D01*
X10342453Y-12015143D02*
X10371024Y-12015143D01*
X10371024Y-12015143D02*
X10390072Y-12024667D01*
X10390072Y-12024667D02*
X10399595Y-12034190D01*
X10399595Y-12034190D02*
X10409119Y-12053238D01*
X10409119Y-12053238D02*
X10409119Y-12110381D01*
X10409119Y-12110381D02*
X10399595Y-12129428D01*
X10399595Y-12129428D02*
X10390072Y-12138952D01*
X10390072Y-12138952D02*
X10371024Y-12148476D01*
X10371024Y-12148476D02*
X10342453Y-12148476D01*
X10523405Y-12148476D02*
X10504357Y-12138952D01*
X10504357Y-12138952D02*
X10494834Y-12119905D01*
X10494834Y-12119905D02*
X10494834Y-11948476D01*
X10675786Y-12138952D02*
X10656738Y-12148476D01*
X10656738Y-12148476D02*
X10618643Y-12148476D01*
X10618643Y-12148476D02*
X10599595Y-12138952D01*
X10599595Y-12138952D02*
X10590072Y-12119905D01*
X10590072Y-12119905D02*
X10590072Y-12043714D01*
X10590072Y-12043714D02*
X10599595Y-12024667D01*
X10599595Y-12024667D02*
X10618643Y-12015143D01*
X10618643Y-12015143D02*
X10656738Y-12015143D01*
X10656738Y-12015143D02*
X10675786Y-12024667D01*
X10675786Y-12024667D02*
X10685310Y-12043714D01*
X10685310Y-12043714D02*
X10685310Y-12062762D01*
X10685310Y-12062762D02*
X10590072Y-12081809D01*
X10761500Y-12138952D02*
X10780548Y-12148476D01*
X10780548Y-12148476D02*
X10818643Y-12148476D01*
X10818643Y-12148476D02*
X10837691Y-12138952D01*
X10837691Y-12138952D02*
X10847215Y-12119905D01*
X10847215Y-12119905D02*
X10847215Y-12110381D01*
X10847215Y-12110381D02*
X10837691Y-12091333D01*
X10837691Y-12091333D02*
X10818643Y-12081809D01*
X10818643Y-12081809D02*
X10790072Y-12081809D01*
X10790072Y-12081809D02*
X10771024Y-12072286D01*
X10771024Y-12072286D02*
X10761500Y-12053238D01*
X10761500Y-12053238D02*
X10761500Y-12043714D01*
X10761500Y-12043714D02*
X10771024Y-12024667D01*
X10771024Y-12024667D02*
X10790072Y-12015143D01*
X10790072Y-12015143D02*
X10818643Y-12015143D01*
X10818643Y-12015143D02*
X10837691Y-12024667D01*
X10913881Y-12224667D02*
X10923405Y-12215143D01*
X10923405Y-12215143D02*
X10942453Y-12186571D01*
X10942453Y-12186571D02*
X10951976Y-12167524D01*
X10951976Y-12167524D02*
X10961500Y-12138952D01*
X10961500Y-12138952D02*
X10971024Y-12091333D01*
X10971024Y-12091333D02*
X10971024Y-12053238D01*
X10971024Y-12053238D02*
X10961500Y-12005619D01*
X10961500Y-12005619D02*
X10951976Y-11977048D01*
X10951976Y-11977048D02*
X10942453Y-11958000D01*
X10942453Y-11958000D02*
X10923405Y-11929428D01*
X10923405Y-11929428D02*
X10913881Y-11919905D01*
D13*
X6281500Y-12339000D02*
G75*
G03*
X6281500Y-12339000I-25000J0D01*
G01*
D11*
X6567214Y-12212476D02*
X6586262Y-12212476D01*
X6586262Y-12212476D02*
X6605309Y-12222000D01*
X6605309Y-12222000D02*
X6614833Y-12231524D01*
X6614833Y-12231524D02*
X6624357Y-12250571D01*
X6624357Y-12250571D02*
X6633881Y-12288667D01*
X6633881Y-12288667D02*
X6633881Y-12336286D01*
X6633881Y-12336286D02*
X6624357Y-12374381D01*
X6624357Y-12374381D02*
X6614833Y-12393428D01*
X6614833Y-12393428D02*
X6605309Y-12402952D01*
X6605309Y-12402952D02*
X6586262Y-12412476D01*
X6586262Y-12412476D02*
X6567214Y-12412476D01*
X6567214Y-12412476D02*
X6548167Y-12402952D01*
X6548167Y-12402952D02*
X6538643Y-12393428D01*
X6538643Y-12393428D02*
X6529119Y-12374381D01*
X6529119Y-12374381D02*
X6519595Y-12336286D01*
X6519595Y-12336286D02*
X6519595Y-12288667D01*
X6519595Y-12288667D02*
X6529119Y-12250571D01*
X6529119Y-12250571D02*
X6538643Y-12231524D01*
X6538643Y-12231524D02*
X6548167Y-12222000D01*
X6548167Y-12222000D02*
X6567214Y-12212476D01*
X6719595Y-12393428D02*
X6729119Y-12402952D01*
X6729119Y-12402952D02*
X6719595Y-12412476D01*
X6719595Y-12412476D02*
X6710071Y-12402952D01*
X6710071Y-12402952D02*
X6719595Y-12393428D01*
X6719595Y-12393428D02*
X6719595Y-12412476D01*
X6910071Y-12212476D02*
X6814833Y-12212476D01*
X6814833Y-12212476D02*
X6805309Y-12307714D01*
X6805309Y-12307714D02*
X6814833Y-12298190D01*
X6814833Y-12298190D02*
X6833881Y-12288667D01*
X6833881Y-12288667D02*
X6881500Y-12288667D01*
X6881500Y-12288667D02*
X6900548Y-12298190D01*
X6900548Y-12298190D02*
X6910071Y-12307714D01*
X6910071Y-12307714D02*
X6919595Y-12326762D01*
X6919595Y-12326762D02*
X6919595Y-12374381D01*
X6919595Y-12374381D02*
X6910071Y-12393428D01*
X6910071Y-12393428D02*
X6900548Y-12402952D01*
X6900548Y-12402952D02*
X6881500Y-12412476D01*
X6881500Y-12412476D02*
X6833881Y-12412476D01*
X6833881Y-12412476D02*
X6814833Y-12402952D01*
X6814833Y-12402952D02*
X6805309Y-12393428D01*
X7043405Y-12212476D02*
X7062452Y-12212476D01*
X7062452Y-12212476D02*
X7081500Y-12222000D01*
X7081500Y-12222000D02*
X7091024Y-12231524D01*
X7091024Y-12231524D02*
X7100548Y-12250571D01*
X7100548Y-12250571D02*
X7110071Y-12288667D01*
X7110071Y-12288667D02*
X7110071Y-12336286D01*
X7110071Y-12336286D02*
X7100548Y-12374381D01*
X7100548Y-12374381D02*
X7091024Y-12393428D01*
X7091024Y-12393428D02*
X7081500Y-12402952D01*
X7081500Y-12402952D02*
X7062452Y-12412476D01*
X7062452Y-12412476D02*
X7043405Y-12412476D01*
X7043405Y-12412476D02*
X7024357Y-12402952D01*
X7024357Y-12402952D02*
X7014833Y-12393428D01*
X7014833Y-12393428D02*
X7005309Y-12374381D01*
X7005309Y-12374381D02*
X6995786Y-12336286D01*
X6995786Y-12336286D02*
X6995786Y-12288667D01*
X6995786Y-12288667D02*
X7005309Y-12250571D01*
X7005309Y-12250571D02*
X7014833Y-12231524D01*
X7014833Y-12231524D02*
X7024357Y-12222000D01*
X7024357Y-12222000D02*
X7043405Y-12212476D01*
X7233881Y-12212476D02*
X7252929Y-12212476D01*
X7252929Y-12212476D02*
X7271976Y-12222000D01*
X7271976Y-12222000D02*
X7281500Y-12231524D01*
X7281500Y-12231524D02*
X7291024Y-12250571D01*
X7291024Y-12250571D02*
X7300548Y-12288667D01*
X7300548Y-12288667D02*
X7300548Y-12336286D01*
X7300548Y-12336286D02*
X7291024Y-12374381D01*
X7291024Y-12374381D02*
X7281500Y-12393428D01*
X7281500Y-12393428D02*
X7271976Y-12402952D01*
X7271976Y-12402952D02*
X7252929Y-12412476D01*
X7252929Y-12412476D02*
X7233881Y-12412476D01*
X7233881Y-12412476D02*
X7214833Y-12402952D01*
X7214833Y-12402952D02*
X7205309Y-12393428D01*
X7205309Y-12393428D02*
X7195786Y-12374381D01*
X7195786Y-12374381D02*
X7186262Y-12336286D01*
X7186262Y-12336286D02*
X7186262Y-12288667D01*
X7186262Y-12288667D02*
X7195786Y-12250571D01*
X7195786Y-12250571D02*
X7205309Y-12231524D01*
X7205309Y-12231524D02*
X7214833Y-12222000D01*
X7214833Y-12222000D02*
X7233881Y-12212476D01*
X7386262Y-12412476D02*
X7386262Y-12279143D01*
X7386262Y-12298190D02*
X7395786Y-12288667D01*
X7395786Y-12288667D02*
X7414833Y-12279143D01*
X7414833Y-12279143D02*
X7443405Y-12279143D01*
X7443405Y-12279143D02*
X7462452Y-12288667D01*
X7462452Y-12288667D02*
X7471976Y-12307714D01*
X7471976Y-12307714D02*
X7471976Y-12412476D01*
X7471976Y-12307714D02*
X7481500Y-12288667D01*
X7481500Y-12288667D02*
X7500548Y-12279143D01*
X7500548Y-12279143D02*
X7529119Y-12279143D01*
X7529119Y-12279143D02*
X7548167Y-12288667D01*
X7548167Y-12288667D02*
X7557690Y-12307714D01*
X7557690Y-12307714D02*
X7557690Y-12412476D01*
X7652929Y-12412476D02*
X7652929Y-12279143D01*
X7652929Y-12298190D02*
X7662452Y-12288667D01*
X7662452Y-12288667D02*
X7681500Y-12279143D01*
X7681500Y-12279143D02*
X7710071Y-12279143D01*
X7710071Y-12279143D02*
X7729119Y-12288667D01*
X7729119Y-12288667D02*
X7738643Y-12307714D01*
X7738643Y-12307714D02*
X7738643Y-12412476D01*
X7738643Y-12307714D02*
X7748167Y-12288667D01*
X7748167Y-12288667D02*
X7767214Y-12279143D01*
X7767214Y-12279143D02*
X7795786Y-12279143D01*
X7795786Y-12279143D02*
X7814833Y-12288667D01*
X7814833Y-12288667D02*
X7824357Y-12307714D01*
X7824357Y-12307714D02*
X7824357Y-12412476D01*
X8182452Y-12202952D02*
X8011024Y-12460095D01*
X8407214Y-12212476D02*
X8426262Y-12212476D01*
X8426262Y-12212476D02*
X8445310Y-12222000D01*
X8445310Y-12222000D02*
X8454833Y-12231524D01*
X8454833Y-12231524D02*
X8464357Y-12250571D01*
X8464357Y-12250571D02*
X8473881Y-12288667D01*
X8473881Y-12288667D02*
X8473881Y-12336286D01*
X8473881Y-12336286D02*
X8464357Y-12374381D01*
X8464357Y-12374381D02*
X8454833Y-12393428D01*
X8454833Y-12393428D02*
X8445310Y-12402952D01*
X8445310Y-12402952D02*
X8426262Y-12412476D01*
X8426262Y-12412476D02*
X8407214Y-12412476D01*
X8407214Y-12412476D02*
X8388167Y-12402952D01*
X8388167Y-12402952D02*
X8378643Y-12393428D01*
X8378643Y-12393428D02*
X8369119Y-12374381D01*
X8369119Y-12374381D02*
X8359595Y-12336286D01*
X8359595Y-12336286D02*
X8359595Y-12288667D01*
X8359595Y-12288667D02*
X8369119Y-12250571D01*
X8369119Y-12250571D02*
X8378643Y-12231524D01*
X8378643Y-12231524D02*
X8388167Y-12222000D01*
X8388167Y-12222000D02*
X8407214Y-12212476D01*
X8559595Y-12393428D02*
X8569119Y-12402952D01*
X8569119Y-12402952D02*
X8559595Y-12412476D01*
X8559595Y-12412476D02*
X8550072Y-12402952D01*
X8550072Y-12402952D02*
X8559595Y-12393428D01*
X8559595Y-12393428D02*
X8559595Y-12412476D01*
X8692929Y-12212476D02*
X8711976Y-12212476D01*
X8711976Y-12212476D02*
X8731024Y-12222000D01*
X8731024Y-12222000D02*
X8740548Y-12231524D01*
X8740548Y-12231524D02*
X8750072Y-12250571D01*
X8750072Y-12250571D02*
X8759595Y-12288667D01*
X8759595Y-12288667D02*
X8759595Y-12336286D01*
X8759595Y-12336286D02*
X8750072Y-12374381D01*
X8750072Y-12374381D02*
X8740548Y-12393428D01*
X8740548Y-12393428D02*
X8731024Y-12402952D01*
X8731024Y-12402952D02*
X8711976Y-12412476D01*
X8711976Y-12412476D02*
X8692929Y-12412476D01*
X8692929Y-12412476D02*
X8673881Y-12402952D01*
X8673881Y-12402952D02*
X8664357Y-12393428D01*
X8664357Y-12393428D02*
X8654833Y-12374381D01*
X8654833Y-12374381D02*
X8645310Y-12336286D01*
X8645310Y-12336286D02*
X8645310Y-12288667D01*
X8645310Y-12288667D02*
X8654833Y-12250571D01*
X8654833Y-12250571D02*
X8664357Y-12231524D01*
X8664357Y-12231524D02*
X8673881Y-12222000D01*
X8673881Y-12222000D02*
X8692929Y-12212476D01*
X8950072Y-12412476D02*
X8835786Y-12412476D01*
X8892929Y-12412476D02*
X8892929Y-12212476D01*
X8892929Y-12212476D02*
X8873881Y-12241048D01*
X8873881Y-12241048D02*
X8854833Y-12260095D01*
X8854833Y-12260095D02*
X8835786Y-12269619D01*
X9045310Y-12412476D02*
X9083405Y-12412476D01*
X9083405Y-12412476D02*
X9102453Y-12402952D01*
X9102453Y-12402952D02*
X9111976Y-12393428D01*
X9111976Y-12393428D02*
X9131024Y-12364857D01*
X9131024Y-12364857D02*
X9140548Y-12326762D01*
X9140548Y-12326762D02*
X9140548Y-12250571D01*
X9140548Y-12250571D02*
X9131024Y-12231524D01*
X9131024Y-12231524D02*
X9121500Y-12222000D01*
X9121500Y-12222000D02*
X9102453Y-12212476D01*
X9102453Y-12212476D02*
X9064357Y-12212476D01*
X9064357Y-12212476D02*
X9045310Y-12222000D01*
X9045310Y-12222000D02*
X9035786Y-12231524D01*
X9035786Y-12231524D02*
X9026262Y-12250571D01*
X9026262Y-12250571D02*
X9026262Y-12298190D01*
X9026262Y-12298190D02*
X9035786Y-12317238D01*
X9035786Y-12317238D02*
X9045310Y-12326762D01*
X9045310Y-12326762D02*
X9064357Y-12336286D01*
X9064357Y-12336286D02*
X9102453Y-12336286D01*
X9102453Y-12336286D02*
X9121500Y-12326762D01*
X9121500Y-12326762D02*
X9131024Y-12317238D01*
X9131024Y-12317238D02*
X9140548Y-12298190D01*
X9207214Y-12212476D02*
X9340548Y-12212476D01*
X9340548Y-12212476D02*
X9254833Y-12412476D01*
X9407214Y-12212476D02*
X9407214Y-12250571D01*
X9483405Y-12212476D02*
X9483405Y-12250571D01*
X9746262Y-12488667D02*
X9736738Y-12479143D01*
X9736738Y-12479143D02*
X9717691Y-12450571D01*
X9717691Y-12450571D02*
X9708167Y-12431524D01*
X9708167Y-12431524D02*
X9698643Y-12402952D01*
X9698643Y-12402952D02*
X9689119Y-12355333D01*
X9689119Y-12355333D02*
X9689119Y-12317238D01*
X9689119Y-12317238D02*
X9698643Y-12269619D01*
X9698643Y-12269619D02*
X9708167Y-12241048D01*
X9708167Y-12241048D02*
X9717691Y-12222000D01*
X9717691Y-12222000D02*
X9736738Y-12193428D01*
X9736738Y-12193428D02*
X9746262Y-12183905D01*
X9860548Y-12212476D02*
X9879595Y-12212476D01*
X9879595Y-12212476D02*
X9898643Y-12222000D01*
X9898643Y-12222000D02*
X9908167Y-12231524D01*
X9908167Y-12231524D02*
X9917691Y-12250571D01*
X9917691Y-12250571D02*
X9927214Y-12288667D01*
X9927214Y-12288667D02*
X9927214Y-12336286D01*
X9927214Y-12336286D02*
X9917691Y-12374381D01*
X9917691Y-12374381D02*
X9908167Y-12393428D01*
X9908167Y-12393428D02*
X9898643Y-12402952D01*
X9898643Y-12402952D02*
X9879595Y-12412476D01*
X9879595Y-12412476D02*
X9860548Y-12412476D01*
X9860548Y-12412476D02*
X9841500Y-12402952D01*
X9841500Y-12402952D02*
X9831976Y-12393428D01*
X9831976Y-12393428D02*
X9822453Y-12374381D01*
X9822453Y-12374381D02*
X9812929Y-12336286D01*
X9812929Y-12336286D02*
X9812929Y-12288667D01*
X9812929Y-12288667D02*
X9822453Y-12250571D01*
X9822453Y-12250571D02*
X9831976Y-12231524D01*
X9831976Y-12231524D02*
X9841500Y-12222000D01*
X9841500Y-12222000D02*
X9860548Y-12212476D01*
X10132929Y-12412476D02*
X10132929Y-12212476D01*
X10218643Y-12412476D02*
X10218643Y-12307714D01*
X10218643Y-12307714D02*
X10209119Y-12288667D01*
X10209119Y-12288667D02*
X10190072Y-12279143D01*
X10190072Y-12279143D02*
X10161500Y-12279143D01*
X10161500Y-12279143D02*
X10142453Y-12288667D01*
X10142453Y-12288667D02*
X10132929Y-12298190D01*
X10342453Y-12412476D02*
X10323405Y-12402952D01*
X10323405Y-12402952D02*
X10313881Y-12393428D01*
X10313881Y-12393428D02*
X10304357Y-12374381D01*
X10304357Y-12374381D02*
X10304357Y-12317238D01*
X10304357Y-12317238D02*
X10313881Y-12298190D01*
X10313881Y-12298190D02*
X10323405Y-12288667D01*
X10323405Y-12288667D02*
X10342453Y-12279143D01*
X10342453Y-12279143D02*
X10371024Y-12279143D01*
X10371024Y-12279143D02*
X10390072Y-12288667D01*
X10390072Y-12288667D02*
X10399595Y-12298190D01*
X10399595Y-12298190D02*
X10409119Y-12317238D01*
X10409119Y-12317238D02*
X10409119Y-12374381D01*
X10409119Y-12374381D02*
X10399595Y-12393428D01*
X10399595Y-12393428D02*
X10390072Y-12402952D01*
X10390072Y-12402952D02*
X10371024Y-12412476D01*
X10371024Y-12412476D02*
X10342453Y-12412476D01*
X10523405Y-12412476D02*
X10504357Y-12402952D01*
X10504357Y-12402952D02*
X10494834Y-12383905D01*
X10494834Y-12383905D02*
X10494834Y-12212476D01*
X10675786Y-12402952D02*
X10656738Y-12412476D01*
X10656738Y-12412476D02*
X10618643Y-12412476D01*
X10618643Y-12412476D02*
X10599595Y-12402952D01*
X10599595Y-12402952D02*
X10590072Y-12383905D01*
X10590072Y-12383905D02*
X10590072Y-12307714D01*
X10590072Y-12307714D02*
X10599595Y-12288667D01*
X10599595Y-12288667D02*
X10618643Y-12279143D01*
X10618643Y-12279143D02*
X10656738Y-12279143D01*
X10656738Y-12279143D02*
X10675786Y-12288667D01*
X10675786Y-12288667D02*
X10685310Y-12307714D01*
X10685310Y-12307714D02*
X10685310Y-12326762D01*
X10685310Y-12326762D02*
X10590072Y-12345809D01*
X10761500Y-12402952D02*
X10780548Y-12412476D01*
X10780548Y-12412476D02*
X10818643Y-12412476D01*
X10818643Y-12412476D02*
X10837691Y-12402952D01*
X10837691Y-12402952D02*
X10847215Y-12383905D01*
X10847215Y-12383905D02*
X10847215Y-12374381D01*
X10847215Y-12374381D02*
X10837691Y-12355333D01*
X10837691Y-12355333D02*
X10818643Y-12345809D01*
X10818643Y-12345809D02*
X10790072Y-12345809D01*
X10790072Y-12345809D02*
X10771024Y-12336286D01*
X10771024Y-12336286D02*
X10761500Y-12317238D01*
X10761500Y-12317238D02*
X10761500Y-12307714D01*
X10761500Y-12307714D02*
X10771024Y-12288667D01*
X10771024Y-12288667D02*
X10790072Y-12279143D01*
X10790072Y-12279143D02*
X10818643Y-12279143D01*
X10818643Y-12279143D02*
X10837691Y-12288667D01*
X11052929Y-12336286D02*
X11205310Y-12336286D01*
X11129119Y-12412476D02*
X11129119Y-12260095D01*
X11411024Y-12231524D02*
X11420548Y-12222000D01*
X11420548Y-12222000D02*
X11439595Y-12212476D01*
X11439595Y-12212476D02*
X11487214Y-12212476D01*
X11487214Y-12212476D02*
X11506262Y-12222000D01*
X11506262Y-12222000D02*
X11515786Y-12231524D01*
X11515786Y-12231524D02*
X11525310Y-12250571D01*
X11525310Y-12250571D02*
X11525310Y-12269619D01*
X11525310Y-12269619D02*
X11515786Y-12298190D01*
X11515786Y-12298190D02*
X11401500Y-12412476D01*
X11401500Y-12412476D02*
X11525310Y-12412476D01*
X11721500Y-12402952D02*
X11740548Y-12412476D01*
X11740548Y-12412476D02*
X11778643Y-12412476D01*
X11778643Y-12412476D02*
X11797691Y-12402952D01*
X11797691Y-12402952D02*
X11807214Y-12383905D01*
X11807214Y-12383905D02*
X11807214Y-12374381D01*
X11807214Y-12374381D02*
X11797691Y-12355333D01*
X11797691Y-12355333D02*
X11778643Y-12345809D01*
X11778643Y-12345809D02*
X11750072Y-12345809D01*
X11750072Y-12345809D02*
X11731024Y-12336286D01*
X11731024Y-12336286D02*
X11721500Y-12317238D01*
X11721500Y-12317238D02*
X11721500Y-12307714D01*
X11721500Y-12307714D02*
X11731024Y-12288667D01*
X11731024Y-12288667D02*
X11750072Y-12279143D01*
X11750072Y-12279143D02*
X11778643Y-12279143D01*
X11778643Y-12279143D02*
X11797691Y-12288667D01*
X11921500Y-12412476D02*
X11902453Y-12402952D01*
X11902453Y-12402952D02*
X11892929Y-12383905D01*
X11892929Y-12383905D02*
X11892929Y-12212476D01*
X12026262Y-12412476D02*
X12007214Y-12402952D01*
X12007214Y-12402952D02*
X11997691Y-12393428D01*
X11997691Y-12393428D02*
X11988167Y-12374381D01*
X11988167Y-12374381D02*
X11988167Y-12317238D01*
X11988167Y-12317238D02*
X11997691Y-12298190D01*
X11997691Y-12298190D02*
X12007214Y-12288667D01*
X12007214Y-12288667D02*
X12026262Y-12279143D01*
X12026262Y-12279143D02*
X12054834Y-12279143D01*
X12054834Y-12279143D02*
X12073881Y-12288667D01*
X12073881Y-12288667D02*
X12083405Y-12298190D01*
X12083405Y-12298190D02*
X12092929Y-12317238D01*
X12092929Y-12317238D02*
X12092929Y-12374381D01*
X12092929Y-12374381D02*
X12083405Y-12393428D01*
X12083405Y-12393428D02*
X12073881Y-12402952D01*
X12073881Y-12402952D02*
X12054834Y-12412476D01*
X12054834Y-12412476D02*
X12026262Y-12412476D01*
X12150072Y-12279143D02*
X12226262Y-12279143D01*
X12178643Y-12212476D02*
X12178643Y-12383905D01*
X12178643Y-12383905D02*
X12188167Y-12402952D01*
X12188167Y-12402952D02*
X12207214Y-12412476D01*
X12207214Y-12412476D02*
X12226262Y-12412476D01*
X12283405Y-12402952D02*
X12302453Y-12412476D01*
X12302453Y-12412476D02*
X12340548Y-12412476D01*
X12340548Y-12412476D02*
X12359595Y-12402952D01*
X12359595Y-12402952D02*
X12369119Y-12383905D01*
X12369119Y-12383905D02*
X12369119Y-12374381D01*
X12369119Y-12374381D02*
X12359595Y-12355333D01*
X12359595Y-12355333D02*
X12340548Y-12345809D01*
X12340548Y-12345809D02*
X12311976Y-12345809D01*
X12311976Y-12345809D02*
X12292929Y-12336286D01*
X12292929Y-12336286D02*
X12283405Y-12317238D01*
X12283405Y-12317238D02*
X12283405Y-12307714D01*
X12283405Y-12307714D02*
X12292929Y-12288667D01*
X12292929Y-12288667D02*
X12311976Y-12279143D01*
X12311976Y-12279143D02*
X12340548Y-12279143D01*
X12340548Y-12279143D02*
X12359595Y-12288667D01*
X12435786Y-12488667D02*
X12445310Y-12479143D01*
X12445310Y-12479143D02*
X12464357Y-12450571D01*
X12464357Y-12450571D02*
X12473881Y-12431524D01*
X12473881Y-12431524D02*
X12483405Y-12402952D01*
X12483405Y-12402952D02*
X12492929Y-12355333D01*
X12492929Y-12355333D02*
X12492929Y-12317238D01*
X12492929Y-12317238D02*
X12483405Y-12269619D01*
X12483405Y-12269619D02*
X12473881Y-12241048D01*
X12473881Y-12241048D02*
X12464357Y-12222000D01*
X12464357Y-12222000D02*
X12445310Y-12193428D01*
X12445310Y-12193428D02*
X12435786Y-12183905D01*
D14*
X6254000Y-12575500D02*
X6254000Y-12630500D01*
X6226500Y-12603000D02*
X6281500Y-12603000D01*
D11*
X6567214Y-12476476D02*
X6586262Y-12476476D01*
X6586262Y-12476476D02*
X6605309Y-12486000D01*
X6605309Y-12486000D02*
X6614833Y-12495524D01*
X6614833Y-12495524D02*
X6624357Y-12514571D01*
X6624357Y-12514571D02*
X6633881Y-12552667D01*
X6633881Y-12552667D02*
X6633881Y-12600286D01*
X6633881Y-12600286D02*
X6624357Y-12638381D01*
X6624357Y-12638381D02*
X6614833Y-12657428D01*
X6614833Y-12657428D02*
X6605309Y-12666952D01*
X6605309Y-12666952D02*
X6586262Y-12676476D01*
X6586262Y-12676476D02*
X6567214Y-12676476D01*
X6567214Y-12676476D02*
X6548167Y-12666952D01*
X6548167Y-12666952D02*
X6538643Y-12657428D01*
X6538643Y-12657428D02*
X6529119Y-12638381D01*
X6529119Y-12638381D02*
X6519595Y-12600286D01*
X6519595Y-12600286D02*
X6519595Y-12552667D01*
X6519595Y-12552667D02*
X6529119Y-12514571D01*
X6529119Y-12514571D02*
X6538643Y-12495524D01*
X6538643Y-12495524D02*
X6548167Y-12486000D01*
X6548167Y-12486000D02*
X6567214Y-12476476D01*
X6719595Y-12657428D02*
X6729119Y-12666952D01*
X6729119Y-12666952D02*
X6719595Y-12676476D01*
X6719595Y-12676476D02*
X6710071Y-12666952D01*
X6710071Y-12666952D02*
X6719595Y-12657428D01*
X6719595Y-12657428D02*
X6719595Y-12676476D01*
X6910071Y-12476476D02*
X6814833Y-12476476D01*
X6814833Y-12476476D02*
X6805309Y-12571714D01*
X6805309Y-12571714D02*
X6814833Y-12562190D01*
X6814833Y-12562190D02*
X6833881Y-12552667D01*
X6833881Y-12552667D02*
X6881500Y-12552667D01*
X6881500Y-12552667D02*
X6900548Y-12562190D01*
X6900548Y-12562190D02*
X6910071Y-12571714D01*
X6910071Y-12571714D02*
X6919595Y-12590762D01*
X6919595Y-12590762D02*
X6919595Y-12638381D01*
X6919595Y-12638381D02*
X6910071Y-12657428D01*
X6910071Y-12657428D02*
X6900548Y-12666952D01*
X6900548Y-12666952D02*
X6881500Y-12676476D01*
X6881500Y-12676476D02*
X6833881Y-12676476D01*
X6833881Y-12676476D02*
X6814833Y-12666952D01*
X6814833Y-12666952D02*
X6805309Y-12657428D01*
X7100548Y-12476476D02*
X7005309Y-12476476D01*
X7005309Y-12476476D02*
X6995786Y-12571714D01*
X6995786Y-12571714D02*
X7005309Y-12562190D01*
X7005309Y-12562190D02*
X7024357Y-12552667D01*
X7024357Y-12552667D02*
X7071976Y-12552667D01*
X7071976Y-12552667D02*
X7091024Y-12562190D01*
X7091024Y-12562190D02*
X7100548Y-12571714D01*
X7100548Y-12571714D02*
X7110071Y-12590762D01*
X7110071Y-12590762D02*
X7110071Y-12638381D01*
X7110071Y-12638381D02*
X7100548Y-12657428D01*
X7100548Y-12657428D02*
X7091024Y-12666952D01*
X7091024Y-12666952D02*
X7071976Y-12676476D01*
X7071976Y-12676476D02*
X7024357Y-12676476D01*
X7024357Y-12676476D02*
X7005309Y-12666952D01*
X7005309Y-12666952D02*
X6995786Y-12657428D01*
X7233881Y-12476476D02*
X7252929Y-12476476D01*
X7252929Y-12476476D02*
X7271976Y-12486000D01*
X7271976Y-12486000D02*
X7281500Y-12495524D01*
X7281500Y-12495524D02*
X7291024Y-12514571D01*
X7291024Y-12514571D02*
X7300548Y-12552667D01*
X7300548Y-12552667D02*
X7300548Y-12600286D01*
X7300548Y-12600286D02*
X7291024Y-12638381D01*
X7291024Y-12638381D02*
X7281500Y-12657428D01*
X7281500Y-12657428D02*
X7271976Y-12666952D01*
X7271976Y-12666952D02*
X7252929Y-12676476D01*
X7252929Y-12676476D02*
X7233881Y-12676476D01*
X7233881Y-12676476D02*
X7214833Y-12666952D01*
X7214833Y-12666952D02*
X7205309Y-12657428D01*
X7205309Y-12657428D02*
X7195786Y-12638381D01*
X7195786Y-12638381D02*
X7186262Y-12600286D01*
X7186262Y-12600286D02*
X7186262Y-12552667D01*
X7186262Y-12552667D02*
X7195786Y-12514571D01*
X7195786Y-12514571D02*
X7205309Y-12495524D01*
X7205309Y-12495524D02*
X7214833Y-12486000D01*
X7214833Y-12486000D02*
X7233881Y-12476476D01*
X7386262Y-12676476D02*
X7386262Y-12543143D01*
X7386262Y-12562190D02*
X7395786Y-12552667D01*
X7395786Y-12552667D02*
X7414833Y-12543143D01*
X7414833Y-12543143D02*
X7443405Y-12543143D01*
X7443405Y-12543143D02*
X7462452Y-12552667D01*
X7462452Y-12552667D02*
X7471976Y-12571714D01*
X7471976Y-12571714D02*
X7471976Y-12676476D01*
X7471976Y-12571714D02*
X7481500Y-12552667D01*
X7481500Y-12552667D02*
X7500548Y-12543143D01*
X7500548Y-12543143D02*
X7529119Y-12543143D01*
X7529119Y-12543143D02*
X7548167Y-12552667D01*
X7548167Y-12552667D02*
X7557690Y-12571714D01*
X7557690Y-12571714D02*
X7557690Y-12676476D01*
X7652929Y-12676476D02*
X7652929Y-12543143D01*
X7652929Y-12562190D02*
X7662452Y-12552667D01*
X7662452Y-12552667D02*
X7681500Y-12543143D01*
X7681500Y-12543143D02*
X7710071Y-12543143D01*
X7710071Y-12543143D02*
X7729119Y-12552667D01*
X7729119Y-12552667D02*
X7738643Y-12571714D01*
X7738643Y-12571714D02*
X7738643Y-12676476D01*
X7738643Y-12571714D02*
X7748167Y-12552667D01*
X7748167Y-12552667D02*
X7767214Y-12543143D01*
X7767214Y-12543143D02*
X7795786Y-12543143D01*
X7795786Y-12543143D02*
X7814833Y-12552667D01*
X7814833Y-12552667D02*
X7824357Y-12571714D01*
X7824357Y-12571714D02*
X7824357Y-12676476D01*
X8182452Y-12466952D02*
X8011024Y-12724095D01*
X8407214Y-12476476D02*
X8426262Y-12476476D01*
X8426262Y-12476476D02*
X8445310Y-12486000D01*
X8445310Y-12486000D02*
X8454833Y-12495524D01*
X8454833Y-12495524D02*
X8464357Y-12514571D01*
X8464357Y-12514571D02*
X8473881Y-12552667D01*
X8473881Y-12552667D02*
X8473881Y-12600286D01*
X8473881Y-12600286D02*
X8464357Y-12638381D01*
X8464357Y-12638381D02*
X8454833Y-12657428D01*
X8454833Y-12657428D02*
X8445310Y-12666952D01*
X8445310Y-12666952D02*
X8426262Y-12676476D01*
X8426262Y-12676476D02*
X8407214Y-12676476D01*
X8407214Y-12676476D02*
X8388167Y-12666952D01*
X8388167Y-12666952D02*
X8378643Y-12657428D01*
X8378643Y-12657428D02*
X8369119Y-12638381D01*
X8369119Y-12638381D02*
X8359595Y-12600286D01*
X8359595Y-12600286D02*
X8359595Y-12552667D01*
X8359595Y-12552667D02*
X8369119Y-12514571D01*
X8369119Y-12514571D02*
X8378643Y-12495524D01*
X8378643Y-12495524D02*
X8388167Y-12486000D01*
X8388167Y-12486000D02*
X8407214Y-12476476D01*
X8559595Y-12657428D02*
X8569119Y-12666952D01*
X8569119Y-12666952D02*
X8559595Y-12676476D01*
X8559595Y-12676476D02*
X8550072Y-12666952D01*
X8550072Y-12666952D02*
X8559595Y-12657428D01*
X8559595Y-12657428D02*
X8559595Y-12676476D01*
X8692929Y-12476476D02*
X8711976Y-12476476D01*
X8711976Y-12476476D02*
X8731024Y-12486000D01*
X8731024Y-12486000D02*
X8740548Y-12495524D01*
X8740548Y-12495524D02*
X8750072Y-12514571D01*
X8750072Y-12514571D02*
X8759595Y-12552667D01*
X8759595Y-12552667D02*
X8759595Y-12600286D01*
X8759595Y-12600286D02*
X8750072Y-12638381D01*
X8750072Y-12638381D02*
X8740548Y-12657428D01*
X8740548Y-12657428D02*
X8731024Y-12666952D01*
X8731024Y-12666952D02*
X8711976Y-12676476D01*
X8711976Y-12676476D02*
X8692929Y-12676476D01*
X8692929Y-12676476D02*
X8673881Y-12666952D01*
X8673881Y-12666952D02*
X8664357Y-12657428D01*
X8664357Y-12657428D02*
X8654833Y-12638381D01*
X8654833Y-12638381D02*
X8645310Y-12600286D01*
X8645310Y-12600286D02*
X8645310Y-12552667D01*
X8645310Y-12552667D02*
X8654833Y-12514571D01*
X8654833Y-12514571D02*
X8664357Y-12495524D01*
X8664357Y-12495524D02*
X8673881Y-12486000D01*
X8673881Y-12486000D02*
X8692929Y-12476476D01*
X8835786Y-12495524D02*
X8845310Y-12486000D01*
X8845310Y-12486000D02*
X8864357Y-12476476D01*
X8864357Y-12476476D02*
X8911976Y-12476476D01*
X8911976Y-12476476D02*
X8931024Y-12486000D01*
X8931024Y-12486000D02*
X8940548Y-12495524D01*
X8940548Y-12495524D02*
X8950072Y-12514571D01*
X8950072Y-12514571D02*
X8950072Y-12533619D01*
X8950072Y-12533619D02*
X8940548Y-12562190D01*
X8940548Y-12562190D02*
X8826262Y-12676476D01*
X8826262Y-12676476D02*
X8950072Y-12676476D01*
X9140548Y-12676476D02*
X9026262Y-12676476D01*
X9083405Y-12676476D02*
X9083405Y-12476476D01*
X9083405Y-12476476D02*
X9064357Y-12505048D01*
X9064357Y-12505048D02*
X9045310Y-12524095D01*
X9045310Y-12524095D02*
X9026262Y-12533619D01*
X9207214Y-12476476D02*
X9340548Y-12476476D01*
X9340548Y-12476476D02*
X9254833Y-12676476D01*
X9407214Y-12476476D02*
X9407214Y-12514571D01*
X9483405Y-12476476D02*
X9483405Y-12514571D01*
X9746262Y-12752667D02*
X9736738Y-12743143D01*
X9736738Y-12743143D02*
X9717691Y-12714571D01*
X9717691Y-12714571D02*
X9708167Y-12695524D01*
X9708167Y-12695524D02*
X9698643Y-12666952D01*
X9698643Y-12666952D02*
X9689119Y-12619333D01*
X9689119Y-12619333D02*
X9689119Y-12581238D01*
X9689119Y-12581238D02*
X9698643Y-12533619D01*
X9698643Y-12533619D02*
X9708167Y-12505048D01*
X9708167Y-12505048D02*
X9717691Y-12486000D01*
X9717691Y-12486000D02*
X9736738Y-12457428D01*
X9736738Y-12457428D02*
X9746262Y-12447905D01*
X9860548Y-12476476D02*
X9879595Y-12476476D01*
X9879595Y-12476476D02*
X9898643Y-12486000D01*
X9898643Y-12486000D02*
X9908167Y-12495524D01*
X9908167Y-12495524D02*
X9917691Y-12514571D01*
X9917691Y-12514571D02*
X9927214Y-12552667D01*
X9927214Y-12552667D02*
X9927214Y-12600286D01*
X9927214Y-12600286D02*
X9917691Y-12638381D01*
X9917691Y-12638381D02*
X9908167Y-12657428D01*
X9908167Y-12657428D02*
X9898643Y-12666952D01*
X9898643Y-12666952D02*
X9879595Y-12676476D01*
X9879595Y-12676476D02*
X9860548Y-12676476D01*
X9860548Y-12676476D02*
X9841500Y-12666952D01*
X9841500Y-12666952D02*
X9831976Y-12657428D01*
X9831976Y-12657428D02*
X9822453Y-12638381D01*
X9822453Y-12638381D02*
X9812929Y-12600286D01*
X9812929Y-12600286D02*
X9812929Y-12552667D01*
X9812929Y-12552667D02*
X9822453Y-12514571D01*
X9822453Y-12514571D02*
X9831976Y-12495524D01*
X9831976Y-12495524D02*
X9841500Y-12486000D01*
X9841500Y-12486000D02*
X9860548Y-12476476D01*
X10132929Y-12676476D02*
X10132929Y-12476476D01*
X10218643Y-12676476D02*
X10218643Y-12571714D01*
X10218643Y-12571714D02*
X10209119Y-12552667D01*
X10209119Y-12552667D02*
X10190072Y-12543143D01*
X10190072Y-12543143D02*
X10161500Y-12543143D01*
X10161500Y-12543143D02*
X10142453Y-12552667D01*
X10142453Y-12552667D02*
X10132929Y-12562190D01*
X10342453Y-12676476D02*
X10323405Y-12666952D01*
X10323405Y-12666952D02*
X10313881Y-12657428D01*
X10313881Y-12657428D02*
X10304357Y-12638381D01*
X10304357Y-12638381D02*
X10304357Y-12581238D01*
X10304357Y-12581238D02*
X10313881Y-12562190D01*
X10313881Y-12562190D02*
X10323405Y-12552667D01*
X10323405Y-12552667D02*
X10342453Y-12543143D01*
X10342453Y-12543143D02*
X10371024Y-12543143D01*
X10371024Y-12543143D02*
X10390072Y-12552667D01*
X10390072Y-12552667D02*
X10399595Y-12562190D01*
X10399595Y-12562190D02*
X10409119Y-12581238D01*
X10409119Y-12581238D02*
X10409119Y-12638381D01*
X10409119Y-12638381D02*
X10399595Y-12657428D01*
X10399595Y-12657428D02*
X10390072Y-12666952D01*
X10390072Y-12666952D02*
X10371024Y-12676476D01*
X10371024Y-12676476D02*
X10342453Y-12676476D01*
X10523405Y-12676476D02*
X10504357Y-12666952D01*
X10504357Y-12666952D02*
X10494834Y-12647905D01*
X10494834Y-12647905D02*
X10494834Y-12476476D01*
X10675786Y-12666952D02*
X10656738Y-12676476D01*
X10656738Y-12676476D02*
X10618643Y-12676476D01*
X10618643Y-12676476D02*
X10599595Y-12666952D01*
X10599595Y-12666952D02*
X10590072Y-12647905D01*
X10590072Y-12647905D02*
X10590072Y-12571714D01*
X10590072Y-12571714D02*
X10599595Y-12552667D01*
X10599595Y-12552667D02*
X10618643Y-12543143D01*
X10618643Y-12543143D02*
X10656738Y-12543143D01*
X10656738Y-12543143D02*
X10675786Y-12552667D01*
X10675786Y-12552667D02*
X10685310Y-12571714D01*
X10685310Y-12571714D02*
X10685310Y-12590762D01*
X10685310Y-12590762D02*
X10590072Y-12609809D01*
X10761500Y-12666952D02*
X10780548Y-12676476D01*
X10780548Y-12676476D02*
X10818643Y-12676476D01*
X10818643Y-12676476D02*
X10837691Y-12666952D01*
X10837691Y-12666952D02*
X10847215Y-12647905D01*
X10847215Y-12647905D02*
X10847215Y-12638381D01*
X10847215Y-12638381D02*
X10837691Y-12619333D01*
X10837691Y-12619333D02*
X10818643Y-12609809D01*
X10818643Y-12609809D02*
X10790072Y-12609809D01*
X10790072Y-12609809D02*
X10771024Y-12600286D01*
X10771024Y-12600286D02*
X10761500Y-12581238D01*
X10761500Y-12581238D02*
X10761500Y-12571714D01*
X10761500Y-12571714D02*
X10771024Y-12552667D01*
X10771024Y-12552667D02*
X10790072Y-12543143D01*
X10790072Y-12543143D02*
X10818643Y-12543143D01*
X10818643Y-12543143D02*
X10837691Y-12552667D01*
X11052929Y-12600286D02*
X11205310Y-12600286D01*
X11129119Y-12676476D02*
X11129119Y-12524095D01*
X11411024Y-12495524D02*
X11420548Y-12486000D01*
X11420548Y-12486000D02*
X11439595Y-12476476D01*
X11439595Y-12476476D02*
X11487214Y-12476476D01*
X11487214Y-12476476D02*
X11506262Y-12486000D01*
X11506262Y-12486000D02*
X11515786Y-12495524D01*
X11515786Y-12495524D02*
X11525310Y-12514571D01*
X11525310Y-12514571D02*
X11525310Y-12533619D01*
X11525310Y-12533619D02*
X11515786Y-12562190D01*
X11515786Y-12562190D02*
X11401500Y-12676476D01*
X11401500Y-12676476D02*
X11525310Y-12676476D01*
X11721500Y-12666952D02*
X11740548Y-12676476D01*
X11740548Y-12676476D02*
X11778643Y-12676476D01*
X11778643Y-12676476D02*
X11797691Y-12666952D01*
X11797691Y-12666952D02*
X11807214Y-12647905D01*
X11807214Y-12647905D02*
X11807214Y-12638381D01*
X11807214Y-12638381D02*
X11797691Y-12619333D01*
X11797691Y-12619333D02*
X11778643Y-12609809D01*
X11778643Y-12609809D02*
X11750072Y-12609809D01*
X11750072Y-12609809D02*
X11731024Y-12600286D01*
X11731024Y-12600286D02*
X11721500Y-12581238D01*
X11721500Y-12581238D02*
X11721500Y-12571714D01*
X11721500Y-12571714D02*
X11731024Y-12552667D01*
X11731024Y-12552667D02*
X11750072Y-12543143D01*
X11750072Y-12543143D02*
X11778643Y-12543143D01*
X11778643Y-12543143D02*
X11797691Y-12552667D01*
X11921500Y-12676476D02*
X11902453Y-12666952D01*
X11902453Y-12666952D02*
X11892929Y-12647905D01*
X11892929Y-12647905D02*
X11892929Y-12476476D01*
X12026262Y-12676476D02*
X12007214Y-12666952D01*
X12007214Y-12666952D02*
X11997691Y-12657428D01*
X11997691Y-12657428D02*
X11988167Y-12638381D01*
X11988167Y-12638381D02*
X11988167Y-12581238D01*
X11988167Y-12581238D02*
X11997691Y-12562190D01*
X11997691Y-12562190D02*
X12007214Y-12552667D01*
X12007214Y-12552667D02*
X12026262Y-12543143D01*
X12026262Y-12543143D02*
X12054834Y-12543143D01*
X12054834Y-12543143D02*
X12073881Y-12552667D01*
X12073881Y-12552667D02*
X12083405Y-12562190D01*
X12083405Y-12562190D02*
X12092929Y-12581238D01*
X12092929Y-12581238D02*
X12092929Y-12638381D01*
X12092929Y-12638381D02*
X12083405Y-12657428D01*
X12083405Y-12657428D02*
X12073881Y-12666952D01*
X12073881Y-12666952D02*
X12054834Y-12676476D01*
X12054834Y-12676476D02*
X12026262Y-12676476D01*
X12150072Y-12543143D02*
X12226262Y-12543143D01*
X12178643Y-12476476D02*
X12178643Y-12647905D01*
X12178643Y-12647905D02*
X12188167Y-12666952D01*
X12188167Y-12666952D02*
X12207214Y-12676476D01*
X12207214Y-12676476D02*
X12226262Y-12676476D01*
X12283405Y-12666952D02*
X12302453Y-12676476D01*
X12302453Y-12676476D02*
X12340548Y-12676476D01*
X12340548Y-12676476D02*
X12359595Y-12666952D01*
X12359595Y-12666952D02*
X12369119Y-12647905D01*
X12369119Y-12647905D02*
X12369119Y-12638381D01*
X12369119Y-12638381D02*
X12359595Y-12619333D01*
X12359595Y-12619333D02*
X12340548Y-12609809D01*
X12340548Y-12609809D02*
X12311976Y-12609809D01*
X12311976Y-12609809D02*
X12292929Y-12600286D01*
X12292929Y-12600286D02*
X12283405Y-12581238D01*
X12283405Y-12581238D02*
X12283405Y-12571714D01*
X12283405Y-12571714D02*
X12292929Y-12552667D01*
X12292929Y-12552667D02*
X12311976Y-12543143D01*
X12311976Y-12543143D02*
X12340548Y-12543143D01*
X12340548Y-12543143D02*
X12359595Y-12552667D01*
X12435786Y-12752667D02*
X12445310Y-12743143D01*
X12445310Y-12743143D02*
X12464357Y-12714571D01*
X12464357Y-12714571D02*
X12473881Y-12695524D01*
X12473881Y-12695524D02*
X12483405Y-12666952D01*
X12483405Y-12666952D02*
X12492929Y-12619333D01*
X12492929Y-12619333D02*
X12492929Y-12581238D01*
X12492929Y-12581238D02*
X12483405Y-12533619D01*
X12483405Y-12533619D02*
X12473881Y-12505048D01*
X12473881Y-12505048D02*
X12464357Y-12486000D01*
X12464357Y-12486000D02*
X12445310Y-12457428D01*
X12445310Y-12457428D02*
X12435786Y-12447905D01*
D10*
X6266856Y-12902356D02*
X6266856Y-12831644D01*
X6196144Y-12831644D01*
X6196144Y-12902356D01*
X6266856Y-12902356D01*
D11*
X6633881Y-12940476D02*
X6519595Y-12940476D01*
X6576738Y-12940476D02*
X6576738Y-12740476D01*
X6576738Y-12740476D02*
X6557690Y-12769048D01*
X6557690Y-12769048D02*
X6538643Y-12788095D01*
X6538643Y-12788095D02*
X6519595Y-12797619D01*
X6719595Y-12921428D02*
X6729119Y-12930952D01*
X6729119Y-12930952D02*
X6719595Y-12940476D01*
X6719595Y-12940476D02*
X6710071Y-12930952D01*
X6710071Y-12930952D02*
X6719595Y-12921428D01*
X6719595Y-12921428D02*
X6719595Y-12940476D01*
X6852928Y-12740476D02*
X6871976Y-12740476D01*
X6871976Y-12740476D02*
X6891024Y-12750000D01*
X6891024Y-12750000D02*
X6900548Y-12759524D01*
X6900548Y-12759524D02*
X6910071Y-12778571D01*
X6910071Y-12778571D02*
X6919595Y-12816667D01*
X6919595Y-12816667D02*
X6919595Y-12864286D01*
X6919595Y-12864286D02*
X6910071Y-12902381D01*
X6910071Y-12902381D02*
X6900548Y-12921428D01*
X6900548Y-12921428D02*
X6891024Y-12930952D01*
X6891024Y-12930952D02*
X6871976Y-12940476D01*
X6871976Y-12940476D02*
X6852928Y-12940476D01*
X6852928Y-12940476D02*
X6833881Y-12930952D01*
X6833881Y-12930952D02*
X6824357Y-12921428D01*
X6824357Y-12921428D02*
X6814833Y-12902381D01*
X6814833Y-12902381D02*
X6805309Y-12864286D01*
X6805309Y-12864286D02*
X6805309Y-12816667D01*
X6805309Y-12816667D02*
X6814833Y-12778571D01*
X6814833Y-12778571D02*
X6824357Y-12759524D01*
X6824357Y-12759524D02*
X6833881Y-12750000D01*
X6833881Y-12750000D02*
X6852928Y-12740476D01*
X7043405Y-12740476D02*
X7062452Y-12740476D01*
X7062452Y-12740476D02*
X7081500Y-12750000D01*
X7081500Y-12750000D02*
X7091024Y-12759524D01*
X7091024Y-12759524D02*
X7100548Y-12778571D01*
X7100548Y-12778571D02*
X7110071Y-12816667D01*
X7110071Y-12816667D02*
X7110071Y-12864286D01*
X7110071Y-12864286D02*
X7100548Y-12902381D01*
X7100548Y-12902381D02*
X7091024Y-12921428D01*
X7091024Y-12921428D02*
X7081500Y-12930952D01*
X7081500Y-12930952D02*
X7062452Y-12940476D01*
X7062452Y-12940476D02*
X7043405Y-12940476D01*
X7043405Y-12940476D02*
X7024357Y-12930952D01*
X7024357Y-12930952D02*
X7014833Y-12921428D01*
X7014833Y-12921428D02*
X7005309Y-12902381D01*
X7005309Y-12902381D02*
X6995786Y-12864286D01*
X6995786Y-12864286D02*
X6995786Y-12816667D01*
X6995786Y-12816667D02*
X7005309Y-12778571D01*
X7005309Y-12778571D02*
X7014833Y-12759524D01*
X7014833Y-12759524D02*
X7024357Y-12750000D01*
X7024357Y-12750000D02*
X7043405Y-12740476D01*
X7233881Y-12740476D02*
X7252929Y-12740476D01*
X7252929Y-12740476D02*
X7271976Y-12750000D01*
X7271976Y-12750000D02*
X7281500Y-12759524D01*
X7281500Y-12759524D02*
X7291024Y-12778571D01*
X7291024Y-12778571D02*
X7300548Y-12816667D01*
X7300548Y-12816667D02*
X7300548Y-12864286D01*
X7300548Y-12864286D02*
X7291024Y-12902381D01*
X7291024Y-12902381D02*
X7281500Y-12921428D01*
X7281500Y-12921428D02*
X7271976Y-12930952D01*
X7271976Y-12930952D02*
X7252929Y-12940476D01*
X7252929Y-12940476D02*
X7233881Y-12940476D01*
X7233881Y-12940476D02*
X7214833Y-12930952D01*
X7214833Y-12930952D02*
X7205309Y-12921428D01*
X7205309Y-12921428D02*
X7195786Y-12902381D01*
X7195786Y-12902381D02*
X7186262Y-12864286D01*
X7186262Y-12864286D02*
X7186262Y-12816667D01*
X7186262Y-12816667D02*
X7195786Y-12778571D01*
X7195786Y-12778571D02*
X7205309Y-12759524D01*
X7205309Y-12759524D02*
X7214833Y-12750000D01*
X7214833Y-12750000D02*
X7233881Y-12740476D01*
X7386262Y-12940476D02*
X7386262Y-12807143D01*
X7386262Y-12826190D02*
X7395786Y-12816667D01*
X7395786Y-12816667D02*
X7414833Y-12807143D01*
X7414833Y-12807143D02*
X7443405Y-12807143D01*
X7443405Y-12807143D02*
X7462452Y-12816667D01*
X7462452Y-12816667D02*
X7471976Y-12835714D01*
X7471976Y-12835714D02*
X7471976Y-12940476D01*
X7471976Y-12835714D02*
X7481500Y-12816667D01*
X7481500Y-12816667D02*
X7500548Y-12807143D01*
X7500548Y-12807143D02*
X7529119Y-12807143D01*
X7529119Y-12807143D02*
X7548167Y-12816667D01*
X7548167Y-12816667D02*
X7557690Y-12835714D01*
X7557690Y-12835714D02*
X7557690Y-12940476D01*
X7652929Y-12940476D02*
X7652929Y-12807143D01*
X7652929Y-12826190D02*
X7662452Y-12816667D01*
X7662452Y-12816667D02*
X7681500Y-12807143D01*
X7681500Y-12807143D02*
X7710071Y-12807143D01*
X7710071Y-12807143D02*
X7729119Y-12816667D01*
X7729119Y-12816667D02*
X7738643Y-12835714D01*
X7738643Y-12835714D02*
X7738643Y-12940476D01*
X7738643Y-12835714D02*
X7748167Y-12816667D01*
X7748167Y-12816667D02*
X7767214Y-12807143D01*
X7767214Y-12807143D02*
X7795786Y-12807143D01*
X7795786Y-12807143D02*
X7814833Y-12816667D01*
X7814833Y-12816667D02*
X7824357Y-12835714D01*
X7824357Y-12835714D02*
X7824357Y-12940476D01*
X8182452Y-12730952D02*
X8011024Y-12988095D01*
X8407214Y-12740476D02*
X8426262Y-12740476D01*
X8426262Y-12740476D02*
X8445310Y-12750000D01*
X8445310Y-12750000D02*
X8454833Y-12759524D01*
X8454833Y-12759524D02*
X8464357Y-12778571D01*
X8464357Y-12778571D02*
X8473881Y-12816667D01*
X8473881Y-12816667D02*
X8473881Y-12864286D01*
X8473881Y-12864286D02*
X8464357Y-12902381D01*
X8464357Y-12902381D02*
X8454833Y-12921428D01*
X8454833Y-12921428D02*
X8445310Y-12930952D01*
X8445310Y-12930952D02*
X8426262Y-12940476D01*
X8426262Y-12940476D02*
X8407214Y-12940476D01*
X8407214Y-12940476D02*
X8388167Y-12930952D01*
X8388167Y-12930952D02*
X8378643Y-12921428D01*
X8378643Y-12921428D02*
X8369119Y-12902381D01*
X8369119Y-12902381D02*
X8359595Y-12864286D01*
X8359595Y-12864286D02*
X8359595Y-12816667D01*
X8359595Y-12816667D02*
X8369119Y-12778571D01*
X8369119Y-12778571D02*
X8378643Y-12759524D01*
X8378643Y-12759524D02*
X8388167Y-12750000D01*
X8388167Y-12750000D02*
X8407214Y-12740476D01*
X8559595Y-12921428D02*
X8569119Y-12930952D01*
X8569119Y-12930952D02*
X8559595Y-12940476D01*
X8559595Y-12940476D02*
X8550072Y-12930952D01*
X8550072Y-12930952D02*
X8559595Y-12921428D01*
X8559595Y-12921428D02*
X8559595Y-12940476D01*
X8692929Y-12740476D02*
X8711976Y-12740476D01*
X8711976Y-12740476D02*
X8731024Y-12750000D01*
X8731024Y-12750000D02*
X8740548Y-12759524D01*
X8740548Y-12759524D02*
X8750072Y-12778571D01*
X8750072Y-12778571D02*
X8759595Y-12816667D01*
X8759595Y-12816667D02*
X8759595Y-12864286D01*
X8759595Y-12864286D02*
X8750072Y-12902381D01*
X8750072Y-12902381D02*
X8740548Y-12921428D01*
X8740548Y-12921428D02*
X8731024Y-12930952D01*
X8731024Y-12930952D02*
X8711976Y-12940476D01*
X8711976Y-12940476D02*
X8692929Y-12940476D01*
X8692929Y-12940476D02*
X8673881Y-12930952D01*
X8673881Y-12930952D02*
X8664357Y-12921428D01*
X8664357Y-12921428D02*
X8654833Y-12902381D01*
X8654833Y-12902381D02*
X8645310Y-12864286D01*
X8645310Y-12864286D02*
X8645310Y-12816667D01*
X8645310Y-12816667D02*
X8654833Y-12778571D01*
X8654833Y-12778571D02*
X8664357Y-12759524D01*
X8664357Y-12759524D02*
X8673881Y-12750000D01*
X8673881Y-12750000D02*
X8692929Y-12740476D01*
X8826262Y-12740476D02*
X8950072Y-12740476D01*
X8950072Y-12740476D02*
X8883405Y-12816667D01*
X8883405Y-12816667D02*
X8911976Y-12816667D01*
X8911976Y-12816667D02*
X8931024Y-12826190D01*
X8931024Y-12826190D02*
X8940548Y-12835714D01*
X8940548Y-12835714D02*
X8950072Y-12854762D01*
X8950072Y-12854762D02*
X8950072Y-12902381D01*
X8950072Y-12902381D02*
X8940548Y-12921428D01*
X8940548Y-12921428D02*
X8931024Y-12930952D01*
X8931024Y-12930952D02*
X8911976Y-12940476D01*
X8911976Y-12940476D02*
X8854833Y-12940476D01*
X8854833Y-12940476D02*
X8835786Y-12930952D01*
X8835786Y-12930952D02*
X8826262Y-12921428D01*
X9045310Y-12940476D02*
X9083405Y-12940476D01*
X9083405Y-12940476D02*
X9102453Y-12930952D01*
X9102453Y-12930952D02*
X9111976Y-12921428D01*
X9111976Y-12921428D02*
X9131024Y-12892857D01*
X9131024Y-12892857D02*
X9140548Y-12854762D01*
X9140548Y-12854762D02*
X9140548Y-12778571D01*
X9140548Y-12778571D02*
X9131024Y-12759524D01*
X9131024Y-12759524D02*
X9121500Y-12750000D01*
X9121500Y-12750000D02*
X9102453Y-12740476D01*
X9102453Y-12740476D02*
X9064357Y-12740476D01*
X9064357Y-12740476D02*
X9045310Y-12750000D01*
X9045310Y-12750000D02*
X9035786Y-12759524D01*
X9035786Y-12759524D02*
X9026262Y-12778571D01*
X9026262Y-12778571D02*
X9026262Y-12826190D01*
X9026262Y-12826190D02*
X9035786Y-12845238D01*
X9035786Y-12845238D02*
X9045310Y-12854762D01*
X9045310Y-12854762D02*
X9064357Y-12864286D01*
X9064357Y-12864286D02*
X9102453Y-12864286D01*
X9102453Y-12864286D02*
X9121500Y-12854762D01*
X9121500Y-12854762D02*
X9131024Y-12845238D01*
X9131024Y-12845238D02*
X9140548Y-12826190D01*
X9311976Y-12807143D02*
X9311976Y-12940476D01*
X9264357Y-12730952D02*
X9216738Y-12873809D01*
X9216738Y-12873809D02*
X9340548Y-12873809D01*
X9407214Y-12740476D02*
X9407214Y-12778571D01*
X9483405Y-12740476D02*
X9483405Y-12778571D01*
X9746262Y-13016667D02*
X9736738Y-13007143D01*
X9736738Y-13007143D02*
X9717691Y-12978571D01*
X9717691Y-12978571D02*
X9708167Y-12959524D01*
X9708167Y-12959524D02*
X9698643Y-12930952D01*
X9698643Y-12930952D02*
X9689119Y-12883333D01*
X9689119Y-12883333D02*
X9689119Y-12845238D01*
X9689119Y-12845238D02*
X9698643Y-12797619D01*
X9698643Y-12797619D02*
X9708167Y-12769048D01*
X9708167Y-12769048D02*
X9717691Y-12750000D01*
X9717691Y-12750000D02*
X9736738Y-12721428D01*
X9736738Y-12721428D02*
X9746262Y-12711905D01*
X9908167Y-12807143D02*
X9908167Y-12940476D01*
X9860548Y-12730952D02*
X9812929Y-12873809D01*
X9812929Y-12873809D02*
X9936738Y-12873809D01*
X10117691Y-12940476D02*
X10003405Y-12940476D01*
X10060548Y-12940476D02*
X10060548Y-12740476D01*
X10060548Y-12740476D02*
X10041500Y-12769048D01*
X10041500Y-12769048D02*
X10022453Y-12788095D01*
X10022453Y-12788095D02*
X10003405Y-12797619D01*
X10323405Y-12940476D02*
X10323405Y-12740476D01*
X10409119Y-12940476D02*
X10409119Y-12835714D01*
X10409119Y-12835714D02*
X10399595Y-12816667D01*
X10399595Y-12816667D02*
X10380548Y-12807143D01*
X10380548Y-12807143D02*
X10351976Y-12807143D01*
X10351976Y-12807143D02*
X10332929Y-12816667D01*
X10332929Y-12816667D02*
X10323405Y-12826190D01*
X10532929Y-12940476D02*
X10513881Y-12930952D01*
X10513881Y-12930952D02*
X10504357Y-12921428D01*
X10504357Y-12921428D02*
X10494834Y-12902381D01*
X10494834Y-12902381D02*
X10494834Y-12845238D01*
X10494834Y-12845238D02*
X10504357Y-12826190D01*
X10504357Y-12826190D02*
X10513881Y-12816667D01*
X10513881Y-12816667D02*
X10532929Y-12807143D01*
X10532929Y-12807143D02*
X10561500Y-12807143D01*
X10561500Y-12807143D02*
X10580548Y-12816667D01*
X10580548Y-12816667D02*
X10590072Y-12826190D01*
X10590072Y-12826190D02*
X10599595Y-12845238D01*
X10599595Y-12845238D02*
X10599595Y-12902381D01*
X10599595Y-12902381D02*
X10590072Y-12921428D01*
X10590072Y-12921428D02*
X10580548Y-12930952D01*
X10580548Y-12930952D02*
X10561500Y-12940476D01*
X10561500Y-12940476D02*
X10532929Y-12940476D01*
X10713881Y-12940476D02*
X10694834Y-12930952D01*
X10694834Y-12930952D02*
X10685310Y-12911905D01*
X10685310Y-12911905D02*
X10685310Y-12740476D01*
X10866262Y-12930952D02*
X10847215Y-12940476D01*
X10847215Y-12940476D02*
X10809119Y-12940476D01*
X10809119Y-12940476D02*
X10790072Y-12930952D01*
X10790072Y-12930952D02*
X10780548Y-12911905D01*
X10780548Y-12911905D02*
X10780548Y-12835714D01*
X10780548Y-12835714D02*
X10790072Y-12816667D01*
X10790072Y-12816667D02*
X10809119Y-12807143D01*
X10809119Y-12807143D02*
X10847215Y-12807143D01*
X10847215Y-12807143D02*
X10866262Y-12816667D01*
X10866262Y-12816667D02*
X10875786Y-12835714D01*
X10875786Y-12835714D02*
X10875786Y-12854762D01*
X10875786Y-12854762D02*
X10780548Y-12873809D01*
X10951976Y-12930952D02*
X10971024Y-12940476D01*
X10971024Y-12940476D02*
X11009119Y-12940476D01*
X11009119Y-12940476D02*
X11028167Y-12930952D01*
X11028167Y-12930952D02*
X11037691Y-12911905D01*
X11037691Y-12911905D02*
X11037691Y-12902381D01*
X11037691Y-12902381D02*
X11028167Y-12883333D01*
X11028167Y-12883333D02*
X11009119Y-12873809D01*
X11009119Y-12873809D02*
X10980548Y-12873809D01*
X10980548Y-12873809D02*
X10961500Y-12864286D01*
X10961500Y-12864286D02*
X10951976Y-12845238D01*
X10951976Y-12845238D02*
X10951976Y-12835714D01*
X10951976Y-12835714D02*
X10961500Y-12816667D01*
X10961500Y-12816667D02*
X10980548Y-12807143D01*
X10980548Y-12807143D02*
X11009119Y-12807143D01*
X11009119Y-12807143D02*
X11028167Y-12816667D01*
X11104357Y-13016667D02*
X11113881Y-13007143D01*
X11113881Y-13007143D02*
X11132929Y-12978571D01*
X11132929Y-12978571D02*
X11142453Y-12959524D01*
X11142453Y-12959524D02*
X11151976Y-12930952D01*
X11151976Y-12930952D02*
X11161500Y-12883333D01*
X11161500Y-12883333D02*
X11161500Y-12845238D01*
X11161500Y-12845238D02*
X11151976Y-12797619D01*
X11151976Y-12797619D02*
X11142453Y-12769048D01*
X11142453Y-12769048D02*
X11132929Y-12750000D01*
X11132929Y-12750000D02*
X11113881Y-12721428D01*
X11113881Y-12721428D02*
X11104357Y-12711905D01*
D15*
X6221500Y-13191000D02*
X6281500Y-13131000D01*
X6221500Y-13071000D01*
X6161500Y-13131000D01*
X6221500Y-13191000D01*
D11*
X6633881Y-13204476D02*
X6519595Y-13204476D01*
X6576738Y-13204476D02*
X6576738Y-13004476D01*
X6576738Y-13004476D02*
X6557690Y-13033048D01*
X6557690Y-13033048D02*
X6538643Y-13052095D01*
X6538643Y-13052095D02*
X6519595Y-13061619D01*
X6719595Y-13185428D02*
X6729119Y-13194952D01*
X6729119Y-13194952D02*
X6719595Y-13204476D01*
X6719595Y-13204476D02*
X6710071Y-13194952D01*
X6710071Y-13194952D02*
X6719595Y-13185428D01*
X6719595Y-13185428D02*
X6719595Y-13204476D01*
X6805309Y-13023524D02*
X6814833Y-13014000D01*
X6814833Y-13014000D02*
X6833881Y-13004476D01*
X6833881Y-13004476D02*
X6881500Y-13004476D01*
X6881500Y-13004476D02*
X6900548Y-13014000D01*
X6900548Y-13014000D02*
X6910071Y-13023524D01*
X6910071Y-13023524D02*
X6919595Y-13042571D01*
X6919595Y-13042571D02*
X6919595Y-13061619D01*
X6919595Y-13061619D02*
X6910071Y-13090190D01*
X6910071Y-13090190D02*
X6795786Y-13204476D01*
X6795786Y-13204476D02*
X6919595Y-13204476D01*
X7043405Y-13004476D02*
X7062452Y-13004476D01*
X7062452Y-13004476D02*
X7081500Y-13014000D01*
X7081500Y-13014000D02*
X7091024Y-13023524D01*
X7091024Y-13023524D02*
X7100548Y-13042571D01*
X7100548Y-13042571D02*
X7110071Y-13080667D01*
X7110071Y-13080667D02*
X7110071Y-13128286D01*
X7110071Y-13128286D02*
X7100548Y-13166381D01*
X7100548Y-13166381D02*
X7091024Y-13185428D01*
X7091024Y-13185428D02*
X7081500Y-13194952D01*
X7081500Y-13194952D02*
X7062452Y-13204476D01*
X7062452Y-13204476D02*
X7043405Y-13204476D01*
X7043405Y-13204476D02*
X7024357Y-13194952D01*
X7024357Y-13194952D02*
X7014833Y-13185428D01*
X7014833Y-13185428D02*
X7005309Y-13166381D01*
X7005309Y-13166381D02*
X6995786Y-13128286D01*
X6995786Y-13128286D02*
X6995786Y-13080667D01*
X6995786Y-13080667D02*
X7005309Y-13042571D01*
X7005309Y-13042571D02*
X7014833Y-13023524D01*
X7014833Y-13023524D02*
X7024357Y-13014000D01*
X7024357Y-13014000D02*
X7043405Y-13004476D01*
X7233881Y-13004476D02*
X7252929Y-13004476D01*
X7252929Y-13004476D02*
X7271976Y-13014000D01*
X7271976Y-13014000D02*
X7281500Y-13023524D01*
X7281500Y-13023524D02*
X7291024Y-13042571D01*
X7291024Y-13042571D02*
X7300548Y-13080667D01*
X7300548Y-13080667D02*
X7300548Y-13128286D01*
X7300548Y-13128286D02*
X7291024Y-13166381D01*
X7291024Y-13166381D02*
X7281500Y-13185428D01*
X7281500Y-13185428D02*
X7271976Y-13194952D01*
X7271976Y-13194952D02*
X7252929Y-13204476D01*
X7252929Y-13204476D02*
X7233881Y-13204476D01*
X7233881Y-13204476D02*
X7214833Y-13194952D01*
X7214833Y-13194952D02*
X7205309Y-13185428D01*
X7205309Y-13185428D02*
X7195786Y-13166381D01*
X7195786Y-13166381D02*
X7186262Y-13128286D01*
X7186262Y-13128286D02*
X7186262Y-13080667D01*
X7186262Y-13080667D02*
X7195786Y-13042571D01*
X7195786Y-13042571D02*
X7205309Y-13023524D01*
X7205309Y-13023524D02*
X7214833Y-13014000D01*
X7214833Y-13014000D02*
X7233881Y-13004476D01*
X7386262Y-13204476D02*
X7386262Y-13071143D01*
X7386262Y-13090190D02*
X7395786Y-13080667D01*
X7395786Y-13080667D02*
X7414833Y-13071143D01*
X7414833Y-13071143D02*
X7443405Y-13071143D01*
X7443405Y-13071143D02*
X7462452Y-13080667D01*
X7462452Y-13080667D02*
X7471976Y-13099714D01*
X7471976Y-13099714D02*
X7471976Y-13204476D01*
X7471976Y-13099714D02*
X7481500Y-13080667D01*
X7481500Y-13080667D02*
X7500548Y-13071143D01*
X7500548Y-13071143D02*
X7529119Y-13071143D01*
X7529119Y-13071143D02*
X7548167Y-13080667D01*
X7548167Y-13080667D02*
X7557690Y-13099714D01*
X7557690Y-13099714D02*
X7557690Y-13204476D01*
X7652929Y-13204476D02*
X7652929Y-13071143D01*
X7652929Y-13090190D02*
X7662452Y-13080667D01*
X7662452Y-13080667D02*
X7681500Y-13071143D01*
X7681500Y-13071143D02*
X7710071Y-13071143D01*
X7710071Y-13071143D02*
X7729119Y-13080667D01*
X7729119Y-13080667D02*
X7738643Y-13099714D01*
X7738643Y-13099714D02*
X7738643Y-13204476D01*
X7738643Y-13099714D02*
X7748167Y-13080667D01*
X7748167Y-13080667D02*
X7767214Y-13071143D01*
X7767214Y-13071143D02*
X7795786Y-13071143D01*
X7795786Y-13071143D02*
X7814833Y-13080667D01*
X7814833Y-13080667D02*
X7824357Y-13099714D01*
X7824357Y-13099714D02*
X7824357Y-13204476D01*
X8182452Y-12994952D02*
X8011024Y-13252095D01*
X8407214Y-13004476D02*
X8426262Y-13004476D01*
X8426262Y-13004476D02*
X8445310Y-13014000D01*
X8445310Y-13014000D02*
X8454833Y-13023524D01*
X8454833Y-13023524D02*
X8464357Y-13042571D01*
X8464357Y-13042571D02*
X8473881Y-13080667D01*
X8473881Y-13080667D02*
X8473881Y-13128286D01*
X8473881Y-13128286D02*
X8464357Y-13166381D01*
X8464357Y-13166381D02*
X8454833Y-13185428D01*
X8454833Y-13185428D02*
X8445310Y-13194952D01*
X8445310Y-13194952D02*
X8426262Y-13204476D01*
X8426262Y-13204476D02*
X8407214Y-13204476D01*
X8407214Y-13204476D02*
X8388167Y-13194952D01*
X8388167Y-13194952D02*
X8378643Y-13185428D01*
X8378643Y-13185428D02*
X8369119Y-13166381D01*
X8369119Y-13166381D02*
X8359595Y-13128286D01*
X8359595Y-13128286D02*
X8359595Y-13080667D01*
X8359595Y-13080667D02*
X8369119Y-13042571D01*
X8369119Y-13042571D02*
X8378643Y-13023524D01*
X8378643Y-13023524D02*
X8388167Y-13014000D01*
X8388167Y-13014000D02*
X8407214Y-13004476D01*
X8559595Y-13185428D02*
X8569119Y-13194952D01*
X8569119Y-13194952D02*
X8559595Y-13204476D01*
X8559595Y-13204476D02*
X8550072Y-13194952D01*
X8550072Y-13194952D02*
X8559595Y-13185428D01*
X8559595Y-13185428D02*
X8559595Y-13204476D01*
X8692929Y-13004476D02*
X8711976Y-13004476D01*
X8711976Y-13004476D02*
X8731024Y-13014000D01*
X8731024Y-13014000D02*
X8740548Y-13023524D01*
X8740548Y-13023524D02*
X8750072Y-13042571D01*
X8750072Y-13042571D02*
X8759595Y-13080667D01*
X8759595Y-13080667D02*
X8759595Y-13128286D01*
X8759595Y-13128286D02*
X8750072Y-13166381D01*
X8750072Y-13166381D02*
X8740548Y-13185428D01*
X8740548Y-13185428D02*
X8731024Y-13194952D01*
X8731024Y-13194952D02*
X8711976Y-13204476D01*
X8711976Y-13204476D02*
X8692929Y-13204476D01*
X8692929Y-13204476D02*
X8673881Y-13194952D01*
X8673881Y-13194952D02*
X8664357Y-13185428D01*
X8664357Y-13185428D02*
X8654833Y-13166381D01*
X8654833Y-13166381D02*
X8645310Y-13128286D01*
X8645310Y-13128286D02*
X8645310Y-13080667D01*
X8645310Y-13080667D02*
X8654833Y-13042571D01*
X8654833Y-13042571D02*
X8664357Y-13023524D01*
X8664357Y-13023524D02*
X8673881Y-13014000D01*
X8673881Y-13014000D02*
X8692929Y-13004476D01*
X8931024Y-13071143D02*
X8931024Y-13204476D01*
X8883405Y-12994952D02*
X8835786Y-13137809D01*
X8835786Y-13137809D02*
X8959595Y-13137809D01*
X9016738Y-13004476D02*
X9150072Y-13004476D01*
X9150072Y-13004476D02*
X9064357Y-13204476D01*
X9216738Y-13023524D02*
X9226262Y-13014000D01*
X9226262Y-13014000D02*
X9245310Y-13004476D01*
X9245310Y-13004476D02*
X9292929Y-13004476D01*
X9292929Y-13004476D02*
X9311976Y-13014000D01*
X9311976Y-13014000D02*
X9321500Y-13023524D01*
X9321500Y-13023524D02*
X9331024Y-13042571D01*
X9331024Y-13042571D02*
X9331024Y-13061619D01*
X9331024Y-13061619D02*
X9321500Y-13090190D01*
X9321500Y-13090190D02*
X9207214Y-13204476D01*
X9207214Y-13204476D02*
X9331024Y-13204476D01*
X9407214Y-13004476D02*
X9407214Y-13042571D01*
X9483405Y-13004476D02*
X9483405Y-13042571D01*
X9746262Y-13280667D02*
X9736738Y-13271143D01*
X9736738Y-13271143D02*
X9717691Y-13242571D01*
X9717691Y-13242571D02*
X9708167Y-13223524D01*
X9708167Y-13223524D02*
X9698643Y-13194952D01*
X9698643Y-13194952D02*
X9689119Y-13147333D01*
X9689119Y-13147333D02*
X9689119Y-13109238D01*
X9689119Y-13109238D02*
X9698643Y-13061619D01*
X9698643Y-13061619D02*
X9708167Y-13033048D01*
X9708167Y-13033048D02*
X9717691Y-13014000D01*
X9717691Y-13014000D02*
X9736738Y-12985428D01*
X9736738Y-12985428D02*
X9746262Y-12975905D01*
X9927214Y-13204476D02*
X9812929Y-13204476D01*
X9870072Y-13204476D02*
X9870072Y-13004476D01*
X9870072Y-13004476D02*
X9851024Y-13033048D01*
X9851024Y-13033048D02*
X9831976Y-13052095D01*
X9831976Y-13052095D02*
X9812929Y-13061619D01*
X10041500Y-13090190D02*
X10022453Y-13080667D01*
X10022453Y-13080667D02*
X10012929Y-13071143D01*
X10012929Y-13071143D02*
X10003405Y-13052095D01*
X10003405Y-13052095D02*
X10003405Y-13042571D01*
X10003405Y-13042571D02*
X10012929Y-13023524D01*
X10012929Y-13023524D02*
X10022453Y-13014000D01*
X10022453Y-13014000D02*
X10041500Y-13004476D01*
X10041500Y-13004476D02*
X10079595Y-13004476D01*
X10079595Y-13004476D02*
X10098643Y-13014000D01*
X10098643Y-13014000D02*
X10108167Y-13023524D01*
X10108167Y-13023524D02*
X10117691Y-13042571D01*
X10117691Y-13042571D02*
X10117691Y-13052095D01*
X10117691Y-13052095D02*
X10108167Y-13071143D01*
X10108167Y-13071143D02*
X10098643Y-13080667D01*
X10098643Y-13080667D02*
X10079595Y-13090190D01*
X10079595Y-13090190D02*
X10041500Y-13090190D01*
X10041500Y-13090190D02*
X10022453Y-13099714D01*
X10022453Y-13099714D02*
X10012929Y-13109238D01*
X10012929Y-13109238D02*
X10003405Y-13128286D01*
X10003405Y-13128286D02*
X10003405Y-13166381D01*
X10003405Y-13166381D02*
X10012929Y-13185428D01*
X10012929Y-13185428D02*
X10022453Y-13194952D01*
X10022453Y-13194952D02*
X10041500Y-13204476D01*
X10041500Y-13204476D02*
X10079595Y-13204476D01*
X10079595Y-13204476D02*
X10098643Y-13194952D01*
X10098643Y-13194952D02*
X10108167Y-13185428D01*
X10108167Y-13185428D02*
X10117691Y-13166381D01*
X10117691Y-13166381D02*
X10117691Y-13128286D01*
X10117691Y-13128286D02*
X10108167Y-13109238D01*
X10108167Y-13109238D02*
X10098643Y-13099714D01*
X10098643Y-13099714D02*
X10079595Y-13090190D01*
X10323405Y-13204476D02*
X10323405Y-13004476D01*
X10409119Y-13204476D02*
X10409119Y-13099714D01*
X10409119Y-13099714D02*
X10399595Y-13080667D01*
X10399595Y-13080667D02*
X10380548Y-13071143D01*
X10380548Y-13071143D02*
X10351976Y-13071143D01*
X10351976Y-13071143D02*
X10332929Y-13080667D01*
X10332929Y-13080667D02*
X10323405Y-13090190D01*
X10532929Y-13204476D02*
X10513881Y-13194952D01*
X10513881Y-13194952D02*
X10504357Y-13185428D01*
X10504357Y-13185428D02*
X10494834Y-13166381D01*
X10494834Y-13166381D02*
X10494834Y-13109238D01*
X10494834Y-13109238D02*
X10504357Y-13090190D01*
X10504357Y-13090190D02*
X10513881Y-13080667D01*
X10513881Y-13080667D02*
X10532929Y-13071143D01*
X10532929Y-13071143D02*
X10561500Y-13071143D01*
X10561500Y-13071143D02*
X10580548Y-13080667D01*
X10580548Y-13080667D02*
X10590072Y-13090190D01*
X10590072Y-13090190D02*
X10599595Y-13109238D01*
X10599595Y-13109238D02*
X10599595Y-13166381D01*
X10599595Y-13166381D02*
X10590072Y-13185428D01*
X10590072Y-13185428D02*
X10580548Y-13194952D01*
X10580548Y-13194952D02*
X10561500Y-13204476D01*
X10561500Y-13204476D02*
X10532929Y-13204476D01*
X10713881Y-13204476D02*
X10694834Y-13194952D01*
X10694834Y-13194952D02*
X10685310Y-13175905D01*
X10685310Y-13175905D02*
X10685310Y-13004476D01*
X10866262Y-13194952D02*
X10847215Y-13204476D01*
X10847215Y-13204476D02*
X10809119Y-13204476D01*
X10809119Y-13204476D02*
X10790072Y-13194952D01*
X10790072Y-13194952D02*
X10780548Y-13175905D01*
X10780548Y-13175905D02*
X10780548Y-13099714D01*
X10780548Y-13099714D02*
X10790072Y-13080667D01*
X10790072Y-13080667D02*
X10809119Y-13071143D01*
X10809119Y-13071143D02*
X10847215Y-13071143D01*
X10847215Y-13071143D02*
X10866262Y-13080667D01*
X10866262Y-13080667D02*
X10875786Y-13099714D01*
X10875786Y-13099714D02*
X10875786Y-13118762D01*
X10875786Y-13118762D02*
X10780548Y-13137809D01*
X10951976Y-13194952D02*
X10971024Y-13204476D01*
X10971024Y-13204476D02*
X11009119Y-13204476D01*
X11009119Y-13204476D02*
X11028167Y-13194952D01*
X11028167Y-13194952D02*
X11037691Y-13175905D01*
X11037691Y-13175905D02*
X11037691Y-13166381D01*
X11037691Y-13166381D02*
X11028167Y-13147333D01*
X11028167Y-13147333D02*
X11009119Y-13137809D01*
X11009119Y-13137809D02*
X10980548Y-13137809D01*
X10980548Y-13137809D02*
X10961500Y-13128286D01*
X10961500Y-13128286D02*
X10951976Y-13109238D01*
X10951976Y-13109238D02*
X10951976Y-13099714D01*
X10951976Y-13099714D02*
X10961500Y-13080667D01*
X10961500Y-13080667D02*
X10980548Y-13071143D01*
X10980548Y-13071143D02*
X11009119Y-13071143D01*
X11009119Y-13071143D02*
X11028167Y-13080667D01*
X11104357Y-13280667D02*
X11113881Y-13271143D01*
X11113881Y-13271143D02*
X11132929Y-13242571D01*
X11132929Y-13242571D02*
X11142453Y-13223524D01*
X11142453Y-13223524D02*
X11151976Y-13194952D01*
X11151976Y-13194952D02*
X11161500Y-13147333D01*
X11161500Y-13147333D02*
X11161500Y-13109238D01*
X11161500Y-13109238D02*
X11151976Y-13061619D01*
X11151976Y-13061619D02*
X11142453Y-13033048D01*
X11142453Y-13033048D02*
X11132929Y-13014000D01*
X11132929Y-13014000D02*
X11113881Y-12985428D01*
X11113881Y-12985428D02*
X11104357Y-12975905D01*
D16*
X6131500Y-13320000D02*
X6281500Y-13470000D01*
X6281500Y-13320000D02*
X6131500Y-13470000D01*
X6281500Y-13395000D02*
G75*
G03*
X6281500Y-13395000I-75000J0D01*
G01*
D11*
X6633881Y-13468476D02*
X6519595Y-13468476D01*
X6576738Y-13468476D02*
X6576738Y-13268476D01*
X6576738Y-13268476D02*
X6557690Y-13297048D01*
X6557690Y-13297048D02*
X6538643Y-13316095D01*
X6538643Y-13316095D02*
X6519595Y-13325619D01*
X6719595Y-13449428D02*
X6729119Y-13458952D01*
X6729119Y-13458952D02*
X6719595Y-13468476D01*
X6719595Y-13468476D02*
X6710071Y-13458952D01*
X6710071Y-13458952D02*
X6719595Y-13449428D01*
X6719595Y-13449428D02*
X6719595Y-13468476D01*
X6910071Y-13268476D02*
X6814833Y-13268476D01*
X6814833Y-13268476D02*
X6805309Y-13363714D01*
X6805309Y-13363714D02*
X6814833Y-13354190D01*
X6814833Y-13354190D02*
X6833881Y-13344667D01*
X6833881Y-13344667D02*
X6881500Y-13344667D01*
X6881500Y-13344667D02*
X6900548Y-13354190D01*
X6900548Y-13354190D02*
X6910071Y-13363714D01*
X6910071Y-13363714D02*
X6919595Y-13382762D01*
X6919595Y-13382762D02*
X6919595Y-13430381D01*
X6919595Y-13430381D02*
X6910071Y-13449428D01*
X6910071Y-13449428D02*
X6900548Y-13458952D01*
X6900548Y-13458952D02*
X6881500Y-13468476D01*
X6881500Y-13468476D02*
X6833881Y-13468476D01*
X6833881Y-13468476D02*
X6814833Y-13458952D01*
X6814833Y-13458952D02*
X6805309Y-13449428D01*
X7043405Y-13268476D02*
X7062452Y-13268476D01*
X7062452Y-13268476D02*
X7081500Y-13278000D01*
X7081500Y-13278000D02*
X7091024Y-13287524D01*
X7091024Y-13287524D02*
X7100548Y-13306571D01*
X7100548Y-13306571D02*
X7110071Y-13344667D01*
X7110071Y-13344667D02*
X7110071Y-13392286D01*
X7110071Y-13392286D02*
X7100548Y-13430381D01*
X7100548Y-13430381D02*
X7091024Y-13449428D01*
X7091024Y-13449428D02*
X7081500Y-13458952D01*
X7081500Y-13458952D02*
X7062452Y-13468476D01*
X7062452Y-13468476D02*
X7043405Y-13468476D01*
X7043405Y-13468476D02*
X7024357Y-13458952D01*
X7024357Y-13458952D02*
X7014833Y-13449428D01*
X7014833Y-13449428D02*
X7005309Y-13430381D01*
X7005309Y-13430381D02*
X6995786Y-13392286D01*
X6995786Y-13392286D02*
X6995786Y-13344667D01*
X6995786Y-13344667D02*
X7005309Y-13306571D01*
X7005309Y-13306571D02*
X7014833Y-13287524D01*
X7014833Y-13287524D02*
X7024357Y-13278000D01*
X7024357Y-13278000D02*
X7043405Y-13268476D01*
X7233881Y-13268476D02*
X7252929Y-13268476D01*
X7252929Y-13268476D02*
X7271976Y-13278000D01*
X7271976Y-13278000D02*
X7281500Y-13287524D01*
X7281500Y-13287524D02*
X7291024Y-13306571D01*
X7291024Y-13306571D02*
X7300548Y-13344667D01*
X7300548Y-13344667D02*
X7300548Y-13392286D01*
X7300548Y-13392286D02*
X7291024Y-13430381D01*
X7291024Y-13430381D02*
X7281500Y-13449428D01*
X7281500Y-13449428D02*
X7271976Y-13458952D01*
X7271976Y-13458952D02*
X7252929Y-13468476D01*
X7252929Y-13468476D02*
X7233881Y-13468476D01*
X7233881Y-13468476D02*
X7214833Y-13458952D01*
X7214833Y-13458952D02*
X7205309Y-13449428D01*
X7205309Y-13449428D02*
X7195786Y-13430381D01*
X7195786Y-13430381D02*
X7186262Y-13392286D01*
X7186262Y-13392286D02*
X7186262Y-13344667D01*
X7186262Y-13344667D02*
X7195786Y-13306571D01*
X7195786Y-13306571D02*
X7205309Y-13287524D01*
X7205309Y-13287524D02*
X7214833Y-13278000D01*
X7214833Y-13278000D02*
X7233881Y-13268476D01*
X7386262Y-13468476D02*
X7386262Y-13335143D01*
X7386262Y-13354190D02*
X7395786Y-13344667D01*
X7395786Y-13344667D02*
X7414833Y-13335143D01*
X7414833Y-13335143D02*
X7443405Y-13335143D01*
X7443405Y-13335143D02*
X7462452Y-13344667D01*
X7462452Y-13344667D02*
X7471976Y-13363714D01*
X7471976Y-13363714D02*
X7471976Y-13468476D01*
X7471976Y-13363714D02*
X7481500Y-13344667D01*
X7481500Y-13344667D02*
X7500548Y-13335143D01*
X7500548Y-13335143D02*
X7529119Y-13335143D01*
X7529119Y-13335143D02*
X7548167Y-13344667D01*
X7548167Y-13344667D02*
X7557690Y-13363714D01*
X7557690Y-13363714D02*
X7557690Y-13468476D01*
X7652929Y-13468476D02*
X7652929Y-13335143D01*
X7652929Y-13354190D02*
X7662452Y-13344667D01*
X7662452Y-13344667D02*
X7681500Y-13335143D01*
X7681500Y-13335143D02*
X7710071Y-13335143D01*
X7710071Y-13335143D02*
X7729119Y-13344667D01*
X7729119Y-13344667D02*
X7738643Y-13363714D01*
X7738643Y-13363714D02*
X7738643Y-13468476D01*
X7738643Y-13363714D02*
X7748167Y-13344667D01*
X7748167Y-13344667D02*
X7767214Y-13335143D01*
X7767214Y-13335143D02*
X7795786Y-13335143D01*
X7795786Y-13335143D02*
X7814833Y-13344667D01*
X7814833Y-13344667D02*
X7824357Y-13363714D01*
X7824357Y-13363714D02*
X7824357Y-13468476D01*
X8182452Y-13258952D02*
X8011024Y-13516095D01*
X8407214Y-13268476D02*
X8426262Y-13268476D01*
X8426262Y-13268476D02*
X8445310Y-13278000D01*
X8445310Y-13278000D02*
X8454833Y-13287524D01*
X8454833Y-13287524D02*
X8464357Y-13306571D01*
X8464357Y-13306571D02*
X8473881Y-13344667D01*
X8473881Y-13344667D02*
X8473881Y-13392286D01*
X8473881Y-13392286D02*
X8464357Y-13430381D01*
X8464357Y-13430381D02*
X8454833Y-13449428D01*
X8454833Y-13449428D02*
X8445310Y-13458952D01*
X8445310Y-13458952D02*
X8426262Y-13468476D01*
X8426262Y-13468476D02*
X8407214Y-13468476D01*
X8407214Y-13468476D02*
X8388167Y-13458952D01*
X8388167Y-13458952D02*
X8378643Y-13449428D01*
X8378643Y-13449428D02*
X8369119Y-13430381D01*
X8369119Y-13430381D02*
X8359595Y-13392286D01*
X8359595Y-13392286D02*
X8359595Y-13344667D01*
X8359595Y-13344667D02*
X8369119Y-13306571D01*
X8369119Y-13306571D02*
X8378643Y-13287524D01*
X8378643Y-13287524D02*
X8388167Y-13278000D01*
X8388167Y-13278000D02*
X8407214Y-13268476D01*
X8559595Y-13449428D02*
X8569119Y-13458952D01*
X8569119Y-13458952D02*
X8559595Y-13468476D01*
X8559595Y-13468476D02*
X8550072Y-13458952D01*
X8550072Y-13458952D02*
X8559595Y-13449428D01*
X8559595Y-13449428D02*
X8559595Y-13468476D01*
X8692929Y-13268476D02*
X8711976Y-13268476D01*
X8711976Y-13268476D02*
X8731024Y-13278000D01*
X8731024Y-13278000D02*
X8740548Y-13287524D01*
X8740548Y-13287524D02*
X8750072Y-13306571D01*
X8750072Y-13306571D02*
X8759595Y-13344667D01*
X8759595Y-13344667D02*
X8759595Y-13392286D01*
X8759595Y-13392286D02*
X8750072Y-13430381D01*
X8750072Y-13430381D02*
X8740548Y-13449428D01*
X8740548Y-13449428D02*
X8731024Y-13458952D01*
X8731024Y-13458952D02*
X8711976Y-13468476D01*
X8711976Y-13468476D02*
X8692929Y-13468476D01*
X8692929Y-13468476D02*
X8673881Y-13458952D01*
X8673881Y-13458952D02*
X8664357Y-13449428D01*
X8664357Y-13449428D02*
X8654833Y-13430381D01*
X8654833Y-13430381D02*
X8645310Y-13392286D01*
X8645310Y-13392286D02*
X8645310Y-13344667D01*
X8645310Y-13344667D02*
X8654833Y-13306571D01*
X8654833Y-13306571D02*
X8664357Y-13287524D01*
X8664357Y-13287524D02*
X8673881Y-13278000D01*
X8673881Y-13278000D02*
X8692929Y-13268476D01*
X8940548Y-13268476D02*
X8845310Y-13268476D01*
X8845310Y-13268476D02*
X8835786Y-13363714D01*
X8835786Y-13363714D02*
X8845310Y-13354190D01*
X8845310Y-13354190D02*
X8864357Y-13344667D01*
X8864357Y-13344667D02*
X8911976Y-13344667D01*
X8911976Y-13344667D02*
X8931024Y-13354190D01*
X8931024Y-13354190D02*
X8940548Y-13363714D01*
X8940548Y-13363714D02*
X8950072Y-13382762D01*
X8950072Y-13382762D02*
X8950072Y-13430381D01*
X8950072Y-13430381D02*
X8940548Y-13449428D01*
X8940548Y-13449428D02*
X8931024Y-13458952D01*
X8931024Y-13458952D02*
X8911976Y-13468476D01*
X8911976Y-13468476D02*
X8864357Y-13468476D01*
X8864357Y-13468476D02*
X8845310Y-13458952D01*
X8845310Y-13458952D02*
X8835786Y-13449428D01*
X9045310Y-13468476D02*
X9083405Y-13468476D01*
X9083405Y-13468476D02*
X9102453Y-13458952D01*
X9102453Y-13458952D02*
X9111976Y-13449428D01*
X9111976Y-13449428D02*
X9131024Y-13420857D01*
X9131024Y-13420857D02*
X9140548Y-13382762D01*
X9140548Y-13382762D02*
X9140548Y-13306571D01*
X9140548Y-13306571D02*
X9131024Y-13287524D01*
X9131024Y-13287524D02*
X9121500Y-13278000D01*
X9121500Y-13278000D02*
X9102453Y-13268476D01*
X9102453Y-13268476D02*
X9064357Y-13268476D01*
X9064357Y-13268476D02*
X9045310Y-13278000D01*
X9045310Y-13278000D02*
X9035786Y-13287524D01*
X9035786Y-13287524D02*
X9026262Y-13306571D01*
X9026262Y-13306571D02*
X9026262Y-13354190D01*
X9026262Y-13354190D02*
X9035786Y-13373238D01*
X9035786Y-13373238D02*
X9045310Y-13382762D01*
X9045310Y-13382762D02*
X9064357Y-13392286D01*
X9064357Y-13392286D02*
X9102453Y-13392286D01*
X9102453Y-13392286D02*
X9121500Y-13382762D01*
X9121500Y-13382762D02*
X9131024Y-13373238D01*
X9131024Y-13373238D02*
X9140548Y-13354190D01*
X9331024Y-13468476D02*
X9216738Y-13468476D01*
X9273881Y-13468476D02*
X9273881Y-13268476D01*
X9273881Y-13268476D02*
X9254833Y-13297048D01*
X9254833Y-13297048D02*
X9235786Y-13316095D01*
X9235786Y-13316095D02*
X9216738Y-13325619D01*
X9407214Y-13268476D02*
X9407214Y-13306571D01*
X9483405Y-13268476D02*
X9483405Y-13306571D01*
X9746262Y-13544667D02*
X9736738Y-13535143D01*
X9736738Y-13535143D02*
X9717691Y-13506571D01*
X9717691Y-13506571D02*
X9708167Y-13487524D01*
X9708167Y-13487524D02*
X9698643Y-13458952D01*
X9698643Y-13458952D02*
X9689119Y-13411333D01*
X9689119Y-13411333D02*
X9689119Y-13373238D01*
X9689119Y-13373238D02*
X9698643Y-13325619D01*
X9698643Y-13325619D02*
X9708167Y-13297048D01*
X9708167Y-13297048D02*
X9717691Y-13278000D01*
X9717691Y-13278000D02*
X9736738Y-13249428D01*
X9736738Y-13249428D02*
X9746262Y-13239905D01*
X9860548Y-13268476D02*
X9879595Y-13268476D01*
X9879595Y-13268476D02*
X9898643Y-13278000D01*
X9898643Y-13278000D02*
X9908167Y-13287524D01*
X9908167Y-13287524D02*
X9917691Y-13306571D01*
X9917691Y-13306571D02*
X9927214Y-13344667D01*
X9927214Y-13344667D02*
X9927214Y-13392286D01*
X9927214Y-13392286D02*
X9917691Y-13430381D01*
X9917691Y-13430381D02*
X9908167Y-13449428D01*
X9908167Y-13449428D02*
X9898643Y-13458952D01*
X9898643Y-13458952D02*
X9879595Y-13468476D01*
X9879595Y-13468476D02*
X9860548Y-13468476D01*
X9860548Y-13468476D02*
X9841500Y-13458952D01*
X9841500Y-13458952D02*
X9831976Y-13449428D01*
X9831976Y-13449428D02*
X9822453Y-13430381D01*
X9822453Y-13430381D02*
X9812929Y-13392286D01*
X9812929Y-13392286D02*
X9812929Y-13344667D01*
X9812929Y-13344667D02*
X9822453Y-13306571D01*
X9822453Y-13306571D02*
X9831976Y-13287524D01*
X9831976Y-13287524D02*
X9841500Y-13278000D01*
X9841500Y-13278000D02*
X9860548Y-13268476D01*
X10132929Y-13468476D02*
X10132929Y-13268476D01*
X10218643Y-13468476D02*
X10218643Y-13363714D01*
X10218643Y-13363714D02*
X10209119Y-13344667D01*
X10209119Y-13344667D02*
X10190072Y-13335143D01*
X10190072Y-13335143D02*
X10161500Y-13335143D01*
X10161500Y-13335143D02*
X10142453Y-13344667D01*
X10142453Y-13344667D02*
X10132929Y-13354190D01*
X10342453Y-13468476D02*
X10323405Y-13458952D01*
X10323405Y-13458952D02*
X10313881Y-13449428D01*
X10313881Y-13449428D02*
X10304357Y-13430381D01*
X10304357Y-13430381D02*
X10304357Y-13373238D01*
X10304357Y-13373238D02*
X10313881Y-13354190D01*
X10313881Y-13354190D02*
X10323405Y-13344667D01*
X10323405Y-13344667D02*
X10342453Y-13335143D01*
X10342453Y-13335143D02*
X10371024Y-13335143D01*
X10371024Y-13335143D02*
X10390072Y-13344667D01*
X10390072Y-13344667D02*
X10399595Y-13354190D01*
X10399595Y-13354190D02*
X10409119Y-13373238D01*
X10409119Y-13373238D02*
X10409119Y-13430381D01*
X10409119Y-13430381D02*
X10399595Y-13449428D01*
X10399595Y-13449428D02*
X10390072Y-13458952D01*
X10390072Y-13458952D02*
X10371024Y-13468476D01*
X10371024Y-13468476D02*
X10342453Y-13468476D01*
X10523405Y-13468476D02*
X10504357Y-13458952D01*
X10504357Y-13458952D02*
X10494834Y-13439905D01*
X10494834Y-13439905D02*
X10494834Y-13268476D01*
X10675786Y-13458952D02*
X10656738Y-13468476D01*
X10656738Y-13468476D02*
X10618643Y-13468476D01*
X10618643Y-13468476D02*
X10599595Y-13458952D01*
X10599595Y-13458952D02*
X10590072Y-13439905D01*
X10590072Y-13439905D02*
X10590072Y-13363714D01*
X10590072Y-13363714D02*
X10599595Y-13344667D01*
X10599595Y-13344667D02*
X10618643Y-13335143D01*
X10618643Y-13335143D02*
X10656738Y-13335143D01*
X10656738Y-13335143D02*
X10675786Y-13344667D01*
X10675786Y-13344667D02*
X10685310Y-13363714D01*
X10685310Y-13363714D02*
X10685310Y-13382762D01*
X10685310Y-13382762D02*
X10590072Y-13401809D01*
X10761500Y-13458952D02*
X10780548Y-13468476D01*
X10780548Y-13468476D02*
X10818643Y-13468476D01*
X10818643Y-13468476D02*
X10837691Y-13458952D01*
X10837691Y-13458952D02*
X10847215Y-13439905D01*
X10847215Y-13439905D02*
X10847215Y-13430381D01*
X10847215Y-13430381D02*
X10837691Y-13411333D01*
X10837691Y-13411333D02*
X10818643Y-13401809D01*
X10818643Y-13401809D02*
X10790072Y-13401809D01*
X10790072Y-13401809D02*
X10771024Y-13392286D01*
X10771024Y-13392286D02*
X10761500Y-13373238D01*
X10761500Y-13373238D02*
X10761500Y-13363714D01*
X10761500Y-13363714D02*
X10771024Y-13344667D01*
X10771024Y-13344667D02*
X10790072Y-13335143D01*
X10790072Y-13335143D02*
X10818643Y-13335143D01*
X10818643Y-13335143D02*
X10837691Y-13344667D01*
X11052929Y-13392286D02*
X11205310Y-13392286D01*
X11129119Y-13468476D02*
X11129119Y-13316095D01*
X11411024Y-13287524D02*
X11420548Y-13278000D01*
X11420548Y-13278000D02*
X11439595Y-13268476D01*
X11439595Y-13268476D02*
X11487214Y-13268476D01*
X11487214Y-13268476D02*
X11506262Y-13278000D01*
X11506262Y-13278000D02*
X11515786Y-13287524D01*
X11515786Y-13287524D02*
X11525310Y-13306571D01*
X11525310Y-13306571D02*
X11525310Y-13325619D01*
X11525310Y-13325619D02*
X11515786Y-13354190D01*
X11515786Y-13354190D02*
X11401500Y-13468476D01*
X11401500Y-13468476D02*
X11525310Y-13468476D01*
X11721500Y-13458952D02*
X11740548Y-13468476D01*
X11740548Y-13468476D02*
X11778643Y-13468476D01*
X11778643Y-13468476D02*
X11797691Y-13458952D01*
X11797691Y-13458952D02*
X11807214Y-13439905D01*
X11807214Y-13439905D02*
X11807214Y-13430381D01*
X11807214Y-13430381D02*
X11797691Y-13411333D01*
X11797691Y-13411333D02*
X11778643Y-13401809D01*
X11778643Y-13401809D02*
X11750072Y-13401809D01*
X11750072Y-13401809D02*
X11731024Y-13392286D01*
X11731024Y-13392286D02*
X11721500Y-13373238D01*
X11721500Y-13373238D02*
X11721500Y-13363714D01*
X11721500Y-13363714D02*
X11731024Y-13344667D01*
X11731024Y-13344667D02*
X11750072Y-13335143D01*
X11750072Y-13335143D02*
X11778643Y-13335143D01*
X11778643Y-13335143D02*
X11797691Y-13344667D01*
X11921500Y-13468476D02*
X11902453Y-13458952D01*
X11902453Y-13458952D02*
X11892929Y-13439905D01*
X11892929Y-13439905D02*
X11892929Y-13268476D01*
X12026262Y-13468476D02*
X12007214Y-13458952D01*
X12007214Y-13458952D02*
X11997691Y-13449428D01*
X11997691Y-13449428D02*
X11988167Y-13430381D01*
X11988167Y-13430381D02*
X11988167Y-13373238D01*
X11988167Y-13373238D02*
X11997691Y-13354190D01*
X11997691Y-13354190D02*
X12007214Y-13344667D01*
X12007214Y-13344667D02*
X12026262Y-13335143D01*
X12026262Y-13335143D02*
X12054834Y-13335143D01*
X12054834Y-13335143D02*
X12073881Y-13344667D01*
X12073881Y-13344667D02*
X12083405Y-13354190D01*
X12083405Y-13354190D02*
X12092929Y-13373238D01*
X12092929Y-13373238D02*
X12092929Y-13430381D01*
X12092929Y-13430381D02*
X12083405Y-13449428D01*
X12083405Y-13449428D02*
X12073881Y-13458952D01*
X12073881Y-13458952D02*
X12054834Y-13468476D01*
X12054834Y-13468476D02*
X12026262Y-13468476D01*
X12150072Y-13335143D02*
X12226262Y-13335143D01*
X12178643Y-13268476D02*
X12178643Y-13439905D01*
X12178643Y-13439905D02*
X12188167Y-13458952D01*
X12188167Y-13458952D02*
X12207214Y-13468476D01*
X12207214Y-13468476D02*
X12226262Y-13468476D01*
X12283405Y-13458952D02*
X12302453Y-13468476D01*
X12302453Y-13468476D02*
X12340548Y-13468476D01*
X12340548Y-13468476D02*
X12359595Y-13458952D01*
X12359595Y-13458952D02*
X12369119Y-13439905D01*
X12369119Y-13439905D02*
X12369119Y-13430381D01*
X12369119Y-13430381D02*
X12359595Y-13411333D01*
X12359595Y-13411333D02*
X12340548Y-13401809D01*
X12340548Y-13401809D02*
X12311976Y-13401809D01*
X12311976Y-13401809D02*
X12292929Y-13392286D01*
X12292929Y-13392286D02*
X12283405Y-13373238D01*
X12283405Y-13373238D02*
X12283405Y-13363714D01*
X12283405Y-13363714D02*
X12292929Y-13344667D01*
X12292929Y-13344667D02*
X12311976Y-13335143D01*
X12311976Y-13335143D02*
X12340548Y-13335143D01*
X12340548Y-13335143D02*
X12359595Y-13344667D01*
X12435786Y-13544667D02*
X12445310Y-13535143D01*
X12445310Y-13535143D02*
X12464357Y-13506571D01*
X12464357Y-13506571D02*
X12473881Y-13487524D01*
X12473881Y-13487524D02*
X12483405Y-13458952D01*
X12483405Y-13458952D02*
X12492929Y-13411333D01*
X12492929Y-13411333D02*
X12492929Y-13373238D01*
X12492929Y-13373238D02*
X12483405Y-13325619D01*
X12483405Y-13325619D02*
X12473881Y-13297048D01*
X12473881Y-13297048D02*
X12464357Y-13278000D01*
X12464357Y-13278000D02*
X12445310Y-13249428D01*
X12445310Y-13249428D02*
X12435786Y-13239905D01*
X6081500Y-13565000D02*
X6281500Y-13765000D01*
X6281500Y-13565000D02*
X6081500Y-13765000D01*
X6181500Y-13565000D02*
X6181500Y-13765000D01*
X6081500Y-13665000D02*
X6281500Y-13665000D01*
X6519595Y-13557524D02*
X6529119Y-13548000D01*
X6529119Y-13548000D02*
X6548167Y-13538476D01*
X6548167Y-13538476D02*
X6595786Y-13538476D01*
X6595786Y-13538476D02*
X6614833Y-13548000D01*
X6614833Y-13548000D02*
X6624357Y-13557524D01*
X6624357Y-13557524D02*
X6633881Y-13576571D01*
X6633881Y-13576571D02*
X6633881Y-13595619D01*
X6633881Y-13595619D02*
X6624357Y-13624190D01*
X6624357Y-13624190D02*
X6510071Y-13738476D01*
X6510071Y-13738476D02*
X6633881Y-13738476D01*
X6719595Y-13719428D02*
X6729119Y-13728952D01*
X6729119Y-13728952D02*
X6719595Y-13738476D01*
X6719595Y-13738476D02*
X6710071Y-13728952D01*
X6710071Y-13728952D02*
X6719595Y-13719428D01*
X6719595Y-13719428D02*
X6719595Y-13738476D01*
X6910071Y-13538476D02*
X6814833Y-13538476D01*
X6814833Y-13538476D02*
X6805309Y-13633714D01*
X6805309Y-13633714D02*
X6814833Y-13624190D01*
X6814833Y-13624190D02*
X6833881Y-13614667D01*
X6833881Y-13614667D02*
X6881500Y-13614667D01*
X6881500Y-13614667D02*
X6900548Y-13624190D01*
X6900548Y-13624190D02*
X6910071Y-13633714D01*
X6910071Y-13633714D02*
X6919595Y-13652762D01*
X6919595Y-13652762D02*
X6919595Y-13700381D01*
X6919595Y-13700381D02*
X6910071Y-13719428D01*
X6910071Y-13719428D02*
X6900548Y-13728952D01*
X6900548Y-13728952D02*
X6881500Y-13738476D01*
X6881500Y-13738476D02*
X6833881Y-13738476D01*
X6833881Y-13738476D02*
X6814833Y-13728952D01*
X6814833Y-13728952D02*
X6805309Y-13719428D01*
X7043405Y-13538476D02*
X7062452Y-13538476D01*
X7062452Y-13538476D02*
X7081500Y-13548000D01*
X7081500Y-13548000D02*
X7091024Y-13557524D01*
X7091024Y-13557524D02*
X7100548Y-13576571D01*
X7100548Y-13576571D02*
X7110071Y-13614667D01*
X7110071Y-13614667D02*
X7110071Y-13662286D01*
X7110071Y-13662286D02*
X7100548Y-13700381D01*
X7100548Y-13700381D02*
X7091024Y-13719428D01*
X7091024Y-13719428D02*
X7081500Y-13728952D01*
X7081500Y-13728952D02*
X7062452Y-13738476D01*
X7062452Y-13738476D02*
X7043405Y-13738476D01*
X7043405Y-13738476D02*
X7024357Y-13728952D01*
X7024357Y-13728952D02*
X7014833Y-13719428D01*
X7014833Y-13719428D02*
X7005309Y-13700381D01*
X7005309Y-13700381D02*
X6995786Y-13662286D01*
X6995786Y-13662286D02*
X6995786Y-13614667D01*
X6995786Y-13614667D02*
X7005309Y-13576571D01*
X7005309Y-13576571D02*
X7014833Y-13557524D01*
X7014833Y-13557524D02*
X7024357Y-13548000D01*
X7024357Y-13548000D02*
X7043405Y-13538476D01*
X7233881Y-13538476D02*
X7252929Y-13538476D01*
X7252929Y-13538476D02*
X7271976Y-13548000D01*
X7271976Y-13548000D02*
X7281500Y-13557524D01*
X7281500Y-13557524D02*
X7291024Y-13576571D01*
X7291024Y-13576571D02*
X7300548Y-13614667D01*
X7300548Y-13614667D02*
X7300548Y-13662286D01*
X7300548Y-13662286D02*
X7291024Y-13700381D01*
X7291024Y-13700381D02*
X7281500Y-13719428D01*
X7281500Y-13719428D02*
X7271976Y-13728952D01*
X7271976Y-13728952D02*
X7252929Y-13738476D01*
X7252929Y-13738476D02*
X7233881Y-13738476D01*
X7233881Y-13738476D02*
X7214833Y-13728952D01*
X7214833Y-13728952D02*
X7205309Y-13719428D01*
X7205309Y-13719428D02*
X7195786Y-13700381D01*
X7195786Y-13700381D02*
X7186262Y-13662286D01*
X7186262Y-13662286D02*
X7186262Y-13614667D01*
X7186262Y-13614667D02*
X7195786Y-13576571D01*
X7195786Y-13576571D02*
X7205309Y-13557524D01*
X7205309Y-13557524D02*
X7214833Y-13548000D01*
X7214833Y-13548000D02*
X7233881Y-13538476D01*
X7386262Y-13738476D02*
X7386262Y-13605143D01*
X7386262Y-13624190D02*
X7395786Y-13614667D01*
X7395786Y-13614667D02*
X7414833Y-13605143D01*
X7414833Y-13605143D02*
X7443405Y-13605143D01*
X7443405Y-13605143D02*
X7462452Y-13614667D01*
X7462452Y-13614667D02*
X7471976Y-13633714D01*
X7471976Y-13633714D02*
X7471976Y-13738476D01*
X7471976Y-13633714D02*
X7481500Y-13614667D01*
X7481500Y-13614667D02*
X7500548Y-13605143D01*
X7500548Y-13605143D02*
X7529119Y-13605143D01*
X7529119Y-13605143D02*
X7548167Y-13614667D01*
X7548167Y-13614667D02*
X7557690Y-13633714D01*
X7557690Y-13633714D02*
X7557690Y-13738476D01*
X7652929Y-13738476D02*
X7652929Y-13605143D01*
X7652929Y-13624190D02*
X7662452Y-13614667D01*
X7662452Y-13614667D02*
X7681500Y-13605143D01*
X7681500Y-13605143D02*
X7710071Y-13605143D01*
X7710071Y-13605143D02*
X7729119Y-13614667D01*
X7729119Y-13614667D02*
X7738643Y-13633714D01*
X7738643Y-13633714D02*
X7738643Y-13738476D01*
X7738643Y-13633714D02*
X7748167Y-13614667D01*
X7748167Y-13614667D02*
X7767214Y-13605143D01*
X7767214Y-13605143D02*
X7795786Y-13605143D01*
X7795786Y-13605143D02*
X7814833Y-13614667D01*
X7814833Y-13614667D02*
X7824357Y-13633714D01*
X7824357Y-13633714D02*
X7824357Y-13738476D01*
X8182452Y-13528952D02*
X8011024Y-13786095D01*
X8407214Y-13538476D02*
X8426262Y-13538476D01*
X8426262Y-13538476D02*
X8445310Y-13548000D01*
X8445310Y-13548000D02*
X8454833Y-13557524D01*
X8454833Y-13557524D02*
X8464357Y-13576571D01*
X8464357Y-13576571D02*
X8473881Y-13614667D01*
X8473881Y-13614667D02*
X8473881Y-13662286D01*
X8473881Y-13662286D02*
X8464357Y-13700381D01*
X8464357Y-13700381D02*
X8454833Y-13719428D01*
X8454833Y-13719428D02*
X8445310Y-13728952D01*
X8445310Y-13728952D02*
X8426262Y-13738476D01*
X8426262Y-13738476D02*
X8407214Y-13738476D01*
X8407214Y-13738476D02*
X8388167Y-13728952D01*
X8388167Y-13728952D02*
X8378643Y-13719428D01*
X8378643Y-13719428D02*
X8369119Y-13700381D01*
X8369119Y-13700381D02*
X8359595Y-13662286D01*
X8359595Y-13662286D02*
X8359595Y-13614667D01*
X8359595Y-13614667D02*
X8369119Y-13576571D01*
X8369119Y-13576571D02*
X8378643Y-13557524D01*
X8378643Y-13557524D02*
X8388167Y-13548000D01*
X8388167Y-13548000D02*
X8407214Y-13538476D01*
X8559595Y-13719428D02*
X8569119Y-13728952D01*
X8569119Y-13728952D02*
X8559595Y-13738476D01*
X8559595Y-13738476D02*
X8550072Y-13728952D01*
X8550072Y-13728952D02*
X8559595Y-13719428D01*
X8559595Y-13719428D02*
X8559595Y-13738476D01*
X8692929Y-13538476D02*
X8711976Y-13538476D01*
X8711976Y-13538476D02*
X8731024Y-13548000D01*
X8731024Y-13548000D02*
X8740548Y-13557524D01*
X8740548Y-13557524D02*
X8750072Y-13576571D01*
X8750072Y-13576571D02*
X8759595Y-13614667D01*
X8759595Y-13614667D02*
X8759595Y-13662286D01*
X8759595Y-13662286D02*
X8750072Y-13700381D01*
X8750072Y-13700381D02*
X8740548Y-13719428D01*
X8740548Y-13719428D02*
X8731024Y-13728952D01*
X8731024Y-13728952D02*
X8711976Y-13738476D01*
X8711976Y-13738476D02*
X8692929Y-13738476D01*
X8692929Y-13738476D02*
X8673881Y-13728952D01*
X8673881Y-13728952D02*
X8664357Y-13719428D01*
X8664357Y-13719428D02*
X8654833Y-13700381D01*
X8654833Y-13700381D02*
X8645310Y-13662286D01*
X8645310Y-13662286D02*
X8645310Y-13614667D01*
X8645310Y-13614667D02*
X8654833Y-13576571D01*
X8654833Y-13576571D02*
X8664357Y-13557524D01*
X8664357Y-13557524D02*
X8673881Y-13548000D01*
X8673881Y-13548000D02*
X8692929Y-13538476D01*
X8854833Y-13738476D02*
X8892929Y-13738476D01*
X8892929Y-13738476D02*
X8911976Y-13728952D01*
X8911976Y-13728952D02*
X8921500Y-13719428D01*
X8921500Y-13719428D02*
X8940548Y-13690857D01*
X8940548Y-13690857D02*
X8950072Y-13652762D01*
X8950072Y-13652762D02*
X8950072Y-13576571D01*
X8950072Y-13576571D02*
X8940548Y-13557524D01*
X8940548Y-13557524D02*
X8931024Y-13548000D01*
X8931024Y-13548000D02*
X8911976Y-13538476D01*
X8911976Y-13538476D02*
X8873881Y-13538476D01*
X8873881Y-13538476D02*
X8854833Y-13548000D01*
X8854833Y-13548000D02*
X8845310Y-13557524D01*
X8845310Y-13557524D02*
X8835786Y-13576571D01*
X8835786Y-13576571D02*
X8835786Y-13624190D01*
X8835786Y-13624190D02*
X8845310Y-13643238D01*
X8845310Y-13643238D02*
X8854833Y-13652762D01*
X8854833Y-13652762D02*
X8873881Y-13662286D01*
X8873881Y-13662286D02*
X8911976Y-13662286D01*
X8911976Y-13662286D02*
X8931024Y-13652762D01*
X8931024Y-13652762D02*
X8940548Y-13643238D01*
X8940548Y-13643238D02*
X8950072Y-13624190D01*
X9064357Y-13624190D02*
X9045310Y-13614667D01*
X9045310Y-13614667D02*
X9035786Y-13605143D01*
X9035786Y-13605143D02*
X9026262Y-13586095D01*
X9026262Y-13586095D02*
X9026262Y-13576571D01*
X9026262Y-13576571D02*
X9035786Y-13557524D01*
X9035786Y-13557524D02*
X9045310Y-13548000D01*
X9045310Y-13548000D02*
X9064357Y-13538476D01*
X9064357Y-13538476D02*
X9102453Y-13538476D01*
X9102453Y-13538476D02*
X9121500Y-13548000D01*
X9121500Y-13548000D02*
X9131024Y-13557524D01*
X9131024Y-13557524D02*
X9140548Y-13576571D01*
X9140548Y-13576571D02*
X9140548Y-13586095D01*
X9140548Y-13586095D02*
X9131024Y-13605143D01*
X9131024Y-13605143D02*
X9121500Y-13614667D01*
X9121500Y-13614667D02*
X9102453Y-13624190D01*
X9102453Y-13624190D02*
X9064357Y-13624190D01*
X9064357Y-13624190D02*
X9045310Y-13633714D01*
X9045310Y-13633714D02*
X9035786Y-13643238D01*
X9035786Y-13643238D02*
X9026262Y-13662286D01*
X9026262Y-13662286D02*
X9026262Y-13700381D01*
X9026262Y-13700381D02*
X9035786Y-13719428D01*
X9035786Y-13719428D02*
X9045310Y-13728952D01*
X9045310Y-13728952D02*
X9064357Y-13738476D01*
X9064357Y-13738476D02*
X9102453Y-13738476D01*
X9102453Y-13738476D02*
X9121500Y-13728952D01*
X9121500Y-13728952D02*
X9131024Y-13719428D01*
X9131024Y-13719428D02*
X9140548Y-13700381D01*
X9140548Y-13700381D02*
X9140548Y-13662286D01*
X9140548Y-13662286D02*
X9131024Y-13643238D01*
X9131024Y-13643238D02*
X9121500Y-13633714D01*
X9121500Y-13633714D02*
X9102453Y-13624190D01*
X9311976Y-13605143D02*
X9311976Y-13738476D01*
X9264357Y-13528952D02*
X9216738Y-13671809D01*
X9216738Y-13671809D02*
X9340548Y-13671809D01*
X9407214Y-13538476D02*
X9407214Y-13576571D01*
X9483405Y-13538476D02*
X9483405Y-13576571D01*
X9746262Y-13814667D02*
X9736738Y-13805143D01*
X9736738Y-13805143D02*
X9717691Y-13776571D01*
X9717691Y-13776571D02*
X9708167Y-13757524D01*
X9708167Y-13757524D02*
X9698643Y-13728952D01*
X9698643Y-13728952D02*
X9689119Y-13681333D01*
X9689119Y-13681333D02*
X9689119Y-13643238D01*
X9689119Y-13643238D02*
X9698643Y-13595619D01*
X9698643Y-13595619D02*
X9708167Y-13567048D01*
X9708167Y-13567048D02*
X9717691Y-13548000D01*
X9717691Y-13548000D02*
X9736738Y-13519428D01*
X9736738Y-13519428D02*
X9746262Y-13509905D01*
X9908167Y-13605143D02*
X9908167Y-13738476D01*
X9860548Y-13528952D02*
X9812929Y-13671809D01*
X9812929Y-13671809D02*
X9936738Y-13671809D01*
X10132929Y-13738476D02*
X10132929Y-13538476D01*
X10218643Y-13738476D02*
X10218643Y-13633714D01*
X10218643Y-13633714D02*
X10209119Y-13614667D01*
X10209119Y-13614667D02*
X10190072Y-13605143D01*
X10190072Y-13605143D02*
X10161500Y-13605143D01*
X10161500Y-13605143D02*
X10142453Y-13614667D01*
X10142453Y-13614667D02*
X10132929Y-13624190D01*
X10342453Y-13738476D02*
X10323405Y-13728952D01*
X10323405Y-13728952D02*
X10313881Y-13719428D01*
X10313881Y-13719428D02*
X10304357Y-13700381D01*
X10304357Y-13700381D02*
X10304357Y-13643238D01*
X10304357Y-13643238D02*
X10313881Y-13624190D01*
X10313881Y-13624190D02*
X10323405Y-13614667D01*
X10323405Y-13614667D02*
X10342453Y-13605143D01*
X10342453Y-13605143D02*
X10371024Y-13605143D01*
X10371024Y-13605143D02*
X10390072Y-13614667D01*
X10390072Y-13614667D02*
X10399595Y-13624190D01*
X10399595Y-13624190D02*
X10409119Y-13643238D01*
X10409119Y-13643238D02*
X10409119Y-13700381D01*
X10409119Y-13700381D02*
X10399595Y-13719428D01*
X10399595Y-13719428D02*
X10390072Y-13728952D01*
X10390072Y-13728952D02*
X10371024Y-13738476D01*
X10371024Y-13738476D02*
X10342453Y-13738476D01*
X10523405Y-13738476D02*
X10504357Y-13728952D01*
X10504357Y-13728952D02*
X10494834Y-13709905D01*
X10494834Y-13709905D02*
X10494834Y-13538476D01*
X10675786Y-13728952D02*
X10656738Y-13738476D01*
X10656738Y-13738476D02*
X10618643Y-13738476D01*
X10618643Y-13738476D02*
X10599595Y-13728952D01*
X10599595Y-13728952D02*
X10590072Y-13709905D01*
X10590072Y-13709905D02*
X10590072Y-13633714D01*
X10590072Y-13633714D02*
X10599595Y-13614667D01*
X10599595Y-13614667D02*
X10618643Y-13605143D01*
X10618643Y-13605143D02*
X10656738Y-13605143D01*
X10656738Y-13605143D02*
X10675786Y-13614667D01*
X10675786Y-13614667D02*
X10685310Y-13633714D01*
X10685310Y-13633714D02*
X10685310Y-13652762D01*
X10685310Y-13652762D02*
X10590072Y-13671809D01*
X10761500Y-13728952D02*
X10780548Y-13738476D01*
X10780548Y-13738476D02*
X10818643Y-13738476D01*
X10818643Y-13738476D02*
X10837691Y-13728952D01*
X10837691Y-13728952D02*
X10847215Y-13709905D01*
X10847215Y-13709905D02*
X10847215Y-13700381D01*
X10847215Y-13700381D02*
X10837691Y-13681333D01*
X10837691Y-13681333D02*
X10818643Y-13671809D01*
X10818643Y-13671809D02*
X10790072Y-13671809D01*
X10790072Y-13671809D02*
X10771024Y-13662286D01*
X10771024Y-13662286D02*
X10761500Y-13643238D01*
X10761500Y-13643238D02*
X10761500Y-13633714D01*
X10761500Y-13633714D02*
X10771024Y-13614667D01*
X10771024Y-13614667D02*
X10790072Y-13605143D01*
X10790072Y-13605143D02*
X10818643Y-13605143D01*
X10818643Y-13605143D02*
X10837691Y-13614667D01*
X10913881Y-13814667D02*
X10923405Y-13805143D01*
X10923405Y-13805143D02*
X10942453Y-13776571D01*
X10942453Y-13776571D02*
X10951976Y-13757524D01*
X10951976Y-13757524D02*
X10961500Y-13728952D01*
X10961500Y-13728952D02*
X10971024Y-13681333D01*
X10971024Y-13681333D02*
X10971024Y-13643238D01*
X10971024Y-13643238D02*
X10961500Y-13595619D01*
X10961500Y-13595619D02*
X10951976Y-13567048D01*
X10951976Y-13567048D02*
X10942453Y-13548000D01*
X10942453Y-13548000D02*
X10923405Y-13519428D01*
X10923405Y-13519428D02*
X10913881Y-13509905D01*
M02*
