%TF.GenerationSoftware,KiCad,Pcbnew,(7.0.0)*%
%TF.CreationDate,2023-02-28T15:15:22-06:00*%
%TF.ProjectId,Film_Dev_Robot,46696c6d-5f44-4657-965f-526f626f742e,rev?*%
%TF.SameCoordinates,Original*%
%TF.FileFunction,Copper,L1,Top*%
%TF.FilePolarity,Positive*%
%FSLAX46Y46*%
G04 Gerber Fmt 4.6, Leading zero omitted, Abs format (unit mm)*
G04 Created by KiCad (PCBNEW (7.0.0)) date 2023-02-28 15:15:22*
%MOMM*%
%LPD*%
G01*
G04 APERTURE LIST*
G04 Aperture macros list*
%AMRoundRect*
0 Rectangle with rounded corners*
0 $1 Rounding radius*
0 $2 $3 $4 $5 $6 $7 $8 $9 X,Y pos of 4 corners*
0 Add a 4 corners polygon primitive as box body*
4,1,4,$2,$3,$4,$5,$6,$7,$8,$9,$2,$3,0*
0 Add four circle primitives for the rounded corners*
1,1,$1+$1,$2,$3*
1,1,$1+$1,$4,$5*
1,1,$1+$1,$6,$7*
1,1,$1+$1,$8,$9*
0 Add four rect primitives between the rounded corners*
20,1,$1+$1,$2,$3,$4,$5,0*
20,1,$1+$1,$4,$5,$6,$7,0*
20,1,$1+$1,$6,$7,$8,$9,0*
20,1,$1+$1,$8,$9,$2,$3,0*%
G04 Aperture macros list end*
%TA.AperFunction,ComponentPad*%
%ADD10C,3.000000*%
%TD*%
%TA.AperFunction,ComponentPad*%
%ADD11R,1.800000X2.600000*%
%TD*%
%TA.AperFunction,ComponentPad*%
%ADD12O,1.800000X2.600000*%
%TD*%
%TA.AperFunction,SMDPad,CuDef*%
%ADD13RoundRect,0.200000X-0.275000X0.200000X-0.275000X-0.200000X0.275000X-0.200000X0.275000X0.200000X0*%
%TD*%
%TA.AperFunction,SMDPad,CuDef*%
%ADD14RoundRect,0.225000X-0.225000X-0.250000X0.225000X-0.250000X0.225000X0.250000X-0.225000X0.250000X0*%
%TD*%
%TA.AperFunction,ComponentPad*%
%ADD15R,2.400000X2.400000*%
%TD*%
%TA.AperFunction,ComponentPad*%
%ADD16C,2.400000*%
%TD*%
%TA.AperFunction,SMDPad,CuDef*%
%ADD17RoundRect,0.200000X0.200000X0.275000X-0.200000X0.275000X-0.200000X-0.275000X0.200000X-0.275000X0*%
%TD*%
%TA.AperFunction,SMDPad,CuDef*%
%ADD18RoundRect,0.200000X0.275000X-0.200000X0.275000X0.200000X-0.275000X0.200000X-0.275000X-0.200000X0*%
%TD*%
%TA.AperFunction,ComponentPad*%
%ADD19C,1.800000*%
%TD*%
%TA.AperFunction,SMDPad,CuDef*%
%ADD20R,0.400000X1.350000*%
%TD*%
%TA.AperFunction,ComponentPad*%
%ADD21O,0.890000X1.550000*%
%TD*%
%TA.AperFunction,SMDPad,CuDef*%
%ADD22R,1.200000X1.550000*%
%TD*%
%TA.AperFunction,ComponentPad*%
%ADD23O,1.250000X0.950000*%
%TD*%
%TA.AperFunction,SMDPad,CuDef*%
%ADD24R,1.500000X1.550000*%
%TD*%
%TA.AperFunction,ComponentPad*%
%ADD25R,2.000000X2.000000*%
%TD*%
%TA.AperFunction,ComponentPad*%
%ADD26C,2.000000*%
%TD*%
%TA.AperFunction,ComponentPad*%
%ADD27R,3.200000X2.000000*%
%TD*%
%TA.AperFunction,ComponentPad*%
%ADD28R,1.700000X1.700000*%
%TD*%
%TA.AperFunction,ComponentPad*%
%ADD29O,1.700000X1.700000*%
%TD*%
%TA.AperFunction,ComponentPad*%
%ADD30R,1.600000X1.600000*%
%TD*%
%TA.AperFunction,ComponentPad*%
%ADD31O,1.600000X1.600000*%
%TD*%
%TA.AperFunction,ViaPad*%
%ADD32C,0.800000*%
%TD*%
%TA.AperFunction,Conductor*%
%ADD33C,0.250000*%
%TD*%
G04 APERTURE END LIST*
D10*
%TO.P,DS1,*%
%TO.N,*%
X69430900Y-55880000D03*
X69430900Y-86880700D03*
X144429480Y-86880700D03*
X144430000Y-55880000D03*
D11*
%TO.P,DS1,1,VSS*%
%TO.N,REC_C*%
X74929999Y-55879999D03*
D12*
%TO.P,DS1,2,VDD*%
%TO.N,+5V*%
X77469999Y-55879999D03*
%TO.P,DS1,3,VO*%
%TO.N,Net-(DS1-VO)*%
X80009999Y-55879999D03*
%TO.P,DS1,4,RS*%
%TO.N,Reg_Select*%
X82549999Y-55879999D03*
%TO.P,DS1,5,R/W*%
%TO.N,Read{slash}Write*%
X85089999Y-55879999D03*
%TO.P,DS1,6,E*%
%TO.N,LCD_Enable*%
X87629999Y-55879999D03*
%TO.P,DS1,7,D0*%
%TO.N,unconnected-(DS1-D0-Pad7)*%
X90169999Y-55879999D03*
%TO.P,DS1,8,D1*%
%TO.N,unconnected-(DS1-D1-Pad8)*%
X92709999Y-55879999D03*
%TO.P,DS1,9,D2*%
%TO.N,unconnected-(DS1-D2-Pad9)*%
X95249999Y-55879999D03*
%TO.P,DS1,10,D3*%
%TO.N,unconnected-(DS1-D3-Pad10)*%
X97789999Y-55879999D03*
%TO.P,DS1,11,D4*%
%TO.N,Data_1*%
X100329999Y-55879999D03*
%TO.P,DS1,12,D5*%
%TO.N,Data_2*%
X102869999Y-55879999D03*
%TO.P,DS1,13,D6*%
%TO.N,Data_3*%
X105409999Y-55879999D03*
%TO.P,DS1,14,D7*%
%TO.N,Data_4*%
X107949999Y-55879999D03*
%TO.P,DS1,15,LED(+)*%
%TO.N,+5V*%
X110489999Y-55879999D03*
%TO.P,DS1,16,LED(-)*%
%TO.N,REC_C*%
X113029999Y-55879999D03*
%TD*%
D13*
%TO.P,R6,1*%
%TO.N,+5V*%
X145795000Y-93600000D03*
%TO.P,R6,2*%
%TO.N,THI*%
X145795000Y-95250000D03*
%TD*%
D14*
%TO.P,C2,1*%
%TO.N,REC_B*%
X90665000Y-101600000D03*
%TO.P,C2,2*%
%TO.N,REC_C*%
X92215000Y-101600000D03*
%TD*%
D15*
%TO.P,TH1,1*%
%TO.N,REC_C*%
X146049999Y-102559999D03*
D16*
%TO.P,TH1,2*%
%TO.N,THI*%
X146050000Y-99060000D03*
%TD*%
D17*
%TO.P,R3,1*%
%TO.N,+5V*%
X88645000Y-110490000D03*
%TO.P,R3,2*%
%TO.N,Net-(R1-Pad2)*%
X86995000Y-110490000D03*
%TD*%
D14*
%TO.P,C1,2*%
%TO.N,REC_C*%
X92215000Y-106680000D03*
%TO.P,C1,1*%
%TO.N,REC_A*%
X90665000Y-106680000D03*
%TD*%
D18*
%TO.P,R5,1*%
%TO.N,+5V*%
X67310000Y-105155000D03*
%TO.P,R5,2*%
%TO.N,REC_1*%
X67310000Y-103505000D03*
%TD*%
D19*
%TO.P,RV1,1,1*%
%TO.N,REC_C*%
X133335000Y-105970000D03*
%TO.P,RV1,2,2*%
%TO.N,Net-(DS1-VO)*%
X130795000Y-105970000D03*
%TO.P,RV1,3,3*%
%TO.N,+5V*%
X128255000Y-105970000D03*
%TD*%
D20*
%TO.P,J1,1,VBUS*%
%TO.N,+5V*%
X132784999Y-58419999D03*
%TO.P,J1,2,D-*%
%TO.N,unconnected-(J1-D--Pad2)*%
X132134999Y-58419999D03*
%TO.P,J1,3,D+*%
%TO.N,unconnected-(J1-D+-Pad3)*%
X131484999Y-58419999D03*
%TO.P,J1,4,ID*%
%TO.N,unconnected-(J1-ID-Pad4)*%
X130834999Y-58419999D03*
%TO.P,J1,5,GND*%
%TO.N,REC_C*%
X130184999Y-58419999D03*
D21*
%TO.P,J1,6,Shield*%
%TO.N,unconnected-(J1-Shield-Pad6)*%
X134984999Y-55719999D03*
D22*
X134384999Y-55719999D03*
D23*
X133984999Y-58419999D03*
D24*
X132484999Y-55719999D03*
X130484999Y-55719999D03*
D23*
X128984999Y-58419999D03*
D22*
X128584999Y-55719999D03*
D21*
X127984999Y-55719999D03*
%TD*%
D17*
%TO.P,R2,1*%
%TO.N,REC_B*%
X88645000Y-101600000D03*
%TO.P,R2,2*%
%TO.N,Net-(R2-Pad2)*%
X86995000Y-101600000D03*
%TD*%
%TO.P,R4,1*%
%TO.N,+5V*%
X88645000Y-97790000D03*
%TO.P,R4,2*%
%TO.N,Net-(R2-Pad2)*%
X86995000Y-97790000D03*
%TD*%
%TO.P,R1,1*%
%TO.N,REC_A*%
X88645000Y-106680000D03*
%TO.P,R1,2*%
%TO.N,Net-(R1-Pad2)*%
X86995000Y-106680000D03*
%TD*%
D25*
%TO.P,SW1,A,A*%
%TO.N,Net-(R1-Pad2)*%
X84364999Y-106639999D03*
D26*
%TO.P,SW1,B,B*%
%TO.N,Net-(R2-Pad2)*%
X84365000Y-101640000D03*
%TO.P,SW1,C,C*%
%TO.N,REC_C*%
X84365000Y-104140000D03*
D27*
%TO.P,SW1,MP*%
%TO.N,N/C*%
X76864999Y-109739999D03*
X76864999Y-98539999D03*
D26*
%TO.P,SW1,S1,S1*%
%TO.N,REC_1*%
X69865000Y-101640000D03*
%TO.P,SW1,S2,S2*%
%TO.N,REC_C*%
X69865000Y-106640000D03*
%TD*%
D28*
%TO.P,M1,1,PWM*%
%TO.N,Servo*%
X137229999Y-78089999D03*
D29*
%TO.P,M1,2,+*%
%TO.N,+5V*%
X137229999Y-75549999D03*
%TO.P,M1,3,-*%
%TO.N,REC_C*%
X137229999Y-73009999D03*
%TD*%
D30*
%TO.P,A1,1,NC*%
%TO.N,unconnected-(A1-NC-Pad1)*%
X100329999Y-111124999D03*
D31*
%TO.P,A1,2,IOREF*%
%TO.N,unconnected-(A1-IOREF-Pad2)*%
X102869999Y-111124999D03*
%TO.P,A1,3,~{RESET}*%
%TO.N,unconnected-(A1-~{RESET}-Pad3)*%
X105409999Y-111124999D03*
%TO.P,A1,4,3V3*%
%TO.N,unconnected-(A1-3V3-Pad4)*%
X107949999Y-111124999D03*
%TO.P,A1,5,+5V*%
%TO.N,unconnected-(A1-+5V-Pad5)*%
X110489999Y-111124999D03*
%TO.P,A1,6,GND*%
%TO.N,REC_C*%
X113029999Y-111124999D03*
%TO.P,A1,7,GND*%
X115569999Y-111124999D03*
%TO.P,A1,8,VIN*%
%TO.N,+5V*%
X118109999Y-111124999D03*
%TO.P,A1,9,A0*%
%TO.N,REC_A*%
X123189999Y-111124999D03*
%TO.P,A1,10,A1*%
%TO.N,REC_B*%
X125729999Y-111124999D03*
%TO.P,A1,11,A2*%
%TO.N,REC_C*%
X128269999Y-111124999D03*
%TO.P,A1,12,A3*%
%TO.N,REC_1*%
X130809999Y-111124999D03*
%TO.P,A1,13,SDA/A4*%
%TO.N,THI*%
X133349999Y-111124999D03*
%TO.P,A1,14,SCL/A5*%
%TO.N,unconnected-(A1-SCL{slash}A5-Pad14)*%
X135889999Y-111124999D03*
%TO.P,A1,15,D0/RX*%
%TO.N,unconnected-(A1-D0{slash}RX-Pad15)*%
X135889999Y-62864999D03*
%TO.P,A1,16,D1/TX*%
%TO.N,unconnected-(A1-D1{slash}TX-Pad16)*%
X133349999Y-62864999D03*
%TO.P,A1,17,D2*%
%TO.N,unconnected-(A1-D2-Pad17)*%
X130809999Y-62864999D03*
%TO.P,A1,18,D3*%
%TO.N,Servo*%
X128269999Y-62864999D03*
%TO.P,A1,19,D4*%
%TO.N,unconnected-(A1-D4-Pad19)*%
X125729999Y-62864999D03*
%TO.P,A1,20,D5*%
%TO.N,unconnected-(A1-D5-Pad20)*%
X123189999Y-62864999D03*
%TO.P,A1,21,D6*%
%TO.N,unconnected-(A1-D6-Pad21)*%
X120649999Y-62864999D03*
%TO.P,A1,22,D7*%
%TO.N,LCD_Enable*%
X118109999Y-62864999D03*
%TO.P,A1,23,D8*%
%TO.N,Read{slash}Write*%
X114049999Y-62864999D03*
%TO.P,A1,24,D9*%
%TO.N,Reg_Select*%
X111509999Y-62864999D03*
%TO.P,A1,25,D10*%
%TO.N,Data_4*%
X108969999Y-62864999D03*
%TO.P,A1,26,D11*%
%TO.N,Data_3*%
X106429999Y-62864999D03*
%TO.P,A1,27,D12*%
%TO.N,Data_2*%
X103889999Y-62864999D03*
%TO.P,A1,28,D13*%
%TO.N,Data_1*%
X101349999Y-62864999D03*
%TO.P,A1,29,GND*%
%TO.N,REC_C*%
X98809999Y-62864999D03*
%TO.P,A1,30,AREF*%
%TO.N,unconnected-(A1-AREF-Pad30)*%
X96269999Y-62864999D03*
%TD*%
D32*
%TO.N,+5V*%
X89535000Y-109855000D03*
X89535000Y-99060000D03*
%TD*%
D33*
%TO.N,REC_C*%
X129860000Y-59220000D02*
X116370000Y-59220000D01*
X130185000Y-58420000D02*
X130185000Y-58895000D01*
X130185000Y-58895000D02*
X129860000Y-59220000D01*
X116370000Y-59220000D02*
X113030000Y-55880000D01*
X69865000Y-106640000D02*
X81865000Y-106640000D01*
X81865000Y-106640000D02*
X84365000Y-104140000D01*
%TO.N,+5V*%
X137230000Y-75740000D02*
X141605000Y-80115000D01*
%TO.N,REC_C*%
X113030000Y-111125000D02*
X115570000Y-111125000D01*
X128270000Y-111125000D02*
X133335000Y-106060000D01*
X133335000Y-106060000D02*
X133335000Y-105970000D01*
%TO.N,+5V*%
X137230000Y-75550000D02*
X132225000Y-70545000D01*
X88645000Y-110490000D02*
X88900000Y-110490000D01*
X130720000Y-61685000D02*
X132080000Y-60325000D01*
X67310000Y-105958833D02*
X72641167Y-111290000D01*
X77470000Y-55880000D02*
X79095000Y-54255000D01*
X67310000Y-105155000D02*
X67310000Y-105958833D01*
X79095000Y-54255000D02*
X108865000Y-54255000D01*
X132225000Y-60180000D02*
X132785000Y-59620000D01*
X128255000Y-105970000D02*
X140625000Y-93600000D01*
X116840000Y-109855000D02*
X118110000Y-111125000D01*
X88900000Y-110490000D02*
X89535000Y-109855000D01*
X108865000Y-54255000D02*
X110490000Y-55880000D01*
X89535000Y-98680000D02*
X88645000Y-97790000D01*
X72641167Y-111290000D02*
X87845000Y-111290000D01*
X87845000Y-111290000D02*
X88645000Y-110490000D01*
X141605000Y-92620000D02*
X140625000Y-93600000D01*
X132785000Y-59620000D02*
X132785000Y-58420000D01*
X132225000Y-70545000D02*
X132225000Y-60180000D01*
X89535000Y-109855000D02*
X116840000Y-109855000D01*
X89535000Y-99060000D02*
X89535000Y-98680000D01*
X116295000Y-61685000D02*
X130720000Y-61685000D01*
X137230000Y-75550000D02*
X137230000Y-75740000D01*
X141605000Y-80115000D02*
X141605000Y-92620000D01*
X140625000Y-93600000D02*
X145795000Y-93600000D01*
X110490000Y-55880000D02*
X116295000Y-61685000D01*
%TO.N,Data_1*%
X101350000Y-56900000D02*
X100330000Y-55880000D01*
X101350000Y-62865000D02*
X101350000Y-56900000D01*
%TO.N,Data_2*%
X103890000Y-56900000D02*
X102870000Y-55880000D01*
X103890000Y-62865000D02*
X103890000Y-56900000D01*
%TO.N,Data_3*%
X106430000Y-56900000D02*
X105410000Y-55880000D01*
X106430000Y-62865000D02*
X106430000Y-56900000D01*
%TO.N,Data_4*%
X108970000Y-56900000D02*
X107950000Y-55880000D01*
X108970000Y-62865000D02*
X108970000Y-56900000D01*
%TO.N,Servo*%
X128270000Y-62865000D02*
X128270000Y-69130000D01*
X128270000Y-69130000D02*
X137230000Y-78090000D01*
%TO.N,REC_A*%
X91465000Y-107480000D02*
X119545000Y-107480000D01*
X119545000Y-107480000D02*
X123190000Y-111125000D01*
X90665000Y-106680000D02*
X91465000Y-107480000D01*
X88645000Y-106680000D02*
X90665000Y-106680000D01*
%TO.N,REC_B*%
X90665000Y-101600000D02*
X91465000Y-100800000D01*
X88645000Y-101600000D02*
X90665000Y-101600000D01*
X115405000Y-100800000D02*
X125730000Y-111125000D01*
X91465000Y-100800000D02*
X115405000Y-100800000D01*
%TO.N,REC_1*%
X67310000Y-103505000D02*
X66510000Y-104305000D01*
X66510000Y-104305000D02*
X66510000Y-105795229D01*
X73109771Y-112395000D02*
X129540000Y-112395000D01*
X66510000Y-105795229D02*
X73109771Y-112395000D01*
X129540000Y-112395000D02*
X130810000Y-111125000D01*
X67310000Y-103505000D02*
X68000000Y-103505000D01*
X68000000Y-103505000D02*
X69865000Y-101640000D01*
%TO.N,THI*%
X146050000Y-95505000D02*
X145795000Y-95250000D01*
X146050000Y-99060000D02*
X146050000Y-95505000D01*
X133350000Y-111125000D02*
X145415000Y-99060000D01*
X145415000Y-99060000D02*
X146050000Y-99060000D01*
%TO.N,unconnected-(J1-Shield-Pad6)*%
X128985000Y-56720000D02*
X127985000Y-55720000D01*
X132485000Y-55720000D02*
X134385000Y-55720000D01*
X130485000Y-55720000D02*
X132485000Y-55720000D01*
X133985000Y-56720000D02*
X134985000Y-55720000D01*
X133985000Y-58420000D02*
X133985000Y-56720000D01*
X128985000Y-58420000D02*
X128985000Y-56720000D01*
X127985000Y-55720000D02*
X130485000Y-55720000D01*
%TO.N,Net-(R1-Pad2)*%
X86955000Y-106640000D02*
X84365000Y-106640000D01*
X86995000Y-106680000D02*
X86955000Y-106640000D01*
X86995000Y-106680000D02*
X86995000Y-110490000D01*
%TO.N,Net-(R2-Pad2)*%
X86995000Y-101600000D02*
X86955000Y-101640000D01*
X86995000Y-101600000D02*
X86995000Y-97790000D01*
X86955000Y-101640000D02*
X84365000Y-101640000D01*
%TD*%
%TA.AperFunction,Conductor*%
%TO.N,REC_C*%
G36*
X115758000Y-110891613D02*
G01*
X115803387Y-110937000D01*
X115820000Y-110999000D01*
X115820000Y-111251000D01*
X115803387Y-111313000D01*
X115758000Y-111358387D01*
X115696000Y-111375000D01*
X112904000Y-111375000D01*
X112842000Y-111358387D01*
X112796613Y-111313000D01*
X112780000Y-111251000D01*
X112780000Y-110999000D01*
X112796613Y-110937000D01*
X112842000Y-110891613D01*
X112904000Y-110875000D01*
X115696000Y-110875000D01*
X115758000Y-110891613D01*
G37*
%TD.AperFunction*%
%TA.AperFunction,Conductor*%
G36*
X149220883Y-49539939D02*
G01*
X149261111Y-49566819D01*
X151728181Y-52033888D01*
X151755061Y-52074116D01*
X151764500Y-52121569D01*
X151764500Y-111708431D01*
X151755061Y-111755884D01*
X151728181Y-111796112D01*
X149261111Y-114263181D01*
X149220883Y-114290061D01*
X149173430Y-114299500D01*
X65456569Y-114299500D01*
X65409116Y-114290061D01*
X65368888Y-114263181D01*
X62901819Y-111796111D01*
X62874939Y-111755883D01*
X62865500Y-111708430D01*
X62865500Y-104285196D01*
X65879840Y-104285196D01*
X65880574Y-104292961D01*
X65880574Y-104292964D01*
X65883950Y-104328676D01*
X65884500Y-104340345D01*
X65884500Y-105717454D01*
X65883978Y-105728509D01*
X65882327Y-105735896D01*
X65882571Y-105743682D01*
X65882571Y-105743690D01*
X65884439Y-105803102D01*
X65884500Y-105806997D01*
X65884500Y-105834579D01*
X65884988Y-105838448D01*
X65884989Y-105838454D01*
X65885004Y-105838572D01*
X65885918Y-105850195D01*
X65887045Y-105886059D01*
X65887046Y-105886066D01*
X65887291Y-105893856D01*
X65889467Y-105901348D01*
X65889468Y-105901350D01*
X65892879Y-105913091D01*
X65896825Y-105932144D01*
X65899336Y-105952021D01*
X65902206Y-105959271D01*
X65902208Y-105959277D01*
X65915414Y-105992633D01*
X65919197Y-106003680D01*
X65931382Y-106045619D01*
X65935353Y-106052334D01*
X65935354Y-106052336D01*
X65941581Y-106062866D01*
X65950136Y-106080328D01*
X65954642Y-106091709D01*
X65954643Y-106091712D01*
X65957514Y-106098961D01*
X65969433Y-106115366D01*
X65983181Y-106134289D01*
X65989593Y-106144051D01*
X66007856Y-106174931D01*
X66007859Y-106174936D01*
X66011830Y-106181649D01*
X66017345Y-106187164D01*
X66025990Y-106195809D01*
X66038626Y-106210603D01*
X66045819Y-106220504D01*
X66045823Y-106220508D01*
X66050406Y-106226816D01*
X66056415Y-106231787D01*
X66056416Y-106231788D01*
X66084058Y-106254655D01*
X66092699Y-106262518D01*
X72612478Y-112782297D01*
X72619927Y-112790483D01*
X72623985Y-112796877D01*
X72629670Y-112802215D01*
X72629672Y-112802218D01*
X72673010Y-112842915D01*
X72675806Y-112845625D01*
X72695301Y-112865120D01*
X72698386Y-112867513D01*
X72698472Y-112867580D01*
X72707344Y-112875158D01*
X72720651Y-112887654D01*
X72739189Y-112905062D01*
X72746019Y-112908817D01*
X72746022Y-112908819D01*
X72756742Y-112914712D01*
X72772993Y-112925386D01*
X72788835Y-112937674D01*
X72795992Y-112940771D01*
X72795994Y-112940772D01*
X72828926Y-112955022D01*
X72839421Y-112960164D01*
X72877679Y-112981197D01*
X72897083Y-112986179D01*
X72915485Y-112992480D01*
X72926712Y-112997338D01*
X72933876Y-113000438D01*
X72971468Y-113006391D01*
X72977010Y-113007269D01*
X72988453Y-113009639D01*
X73023196Y-113018560D01*
X73023197Y-113018560D01*
X73030752Y-113020500D01*
X73050788Y-113020500D01*
X73070173Y-113022025D01*
X73089967Y-113025160D01*
X73128047Y-113021560D01*
X73133447Y-113021050D01*
X73145116Y-113020500D01*
X129462225Y-113020500D01*
X129473280Y-113021021D01*
X129480667Y-113022673D01*
X129547872Y-113020561D01*
X129551768Y-113020500D01*
X129575448Y-113020500D01*
X129579350Y-113020500D01*
X129583313Y-113019999D01*
X129594963Y-113019080D01*
X129638627Y-113017709D01*
X129657861Y-113012119D01*
X129676917Y-113008174D01*
X129696792Y-113005664D01*
X129737395Y-112989587D01*
X129748450Y-112985802D01*
X129790390Y-112973618D01*
X129807629Y-112963422D01*
X129825103Y-112954862D01*
X129836474Y-112950360D01*
X129836476Y-112950358D01*
X129843732Y-112947486D01*
X129879069Y-112921811D01*
X129888824Y-112915403D01*
X129926420Y-112893170D01*
X129940584Y-112879005D01*
X129955379Y-112866368D01*
X129971587Y-112854594D01*
X129999428Y-112820938D01*
X130007279Y-112812309D01*
X130395179Y-112424410D01*
X130450765Y-112392318D01*
X130514951Y-112392318D01*
X130548255Y-112401242D01*
X130578078Y-112409234D01*
X130578082Y-112409234D01*
X130583308Y-112410635D01*
X130810000Y-112430468D01*
X131036692Y-112410635D01*
X131256496Y-112351739D01*
X131462734Y-112255568D01*
X131649139Y-112125047D01*
X131810047Y-111964139D01*
X131940568Y-111777734D01*
X131967618Y-111719724D01*
X132013375Y-111667549D01*
X132080000Y-111648130D01*
X132146625Y-111667549D01*
X132192381Y-111719724D01*
X132219432Y-111777734D01*
X132222539Y-111782171D01*
X132222540Y-111782173D01*
X132232300Y-111796112D01*
X132349953Y-111964139D01*
X132510861Y-112125047D01*
X132697266Y-112255568D01*
X132903504Y-112351739D01*
X132908734Y-112353140D01*
X132908736Y-112353141D01*
X133054951Y-112392319D01*
X133123308Y-112410635D01*
X133350000Y-112430468D01*
X133576692Y-112410635D01*
X133796496Y-112351739D01*
X134002734Y-112255568D01*
X134189139Y-112125047D01*
X134350047Y-111964139D01*
X134480568Y-111777734D01*
X134507618Y-111719724D01*
X134553375Y-111667549D01*
X134620000Y-111648130D01*
X134686625Y-111667549D01*
X134732381Y-111719724D01*
X134759432Y-111777734D01*
X134762539Y-111782171D01*
X134762540Y-111782173D01*
X134772300Y-111796112D01*
X134889953Y-111964139D01*
X135050861Y-112125047D01*
X135237266Y-112255568D01*
X135443504Y-112351739D01*
X135448734Y-112353140D01*
X135448736Y-112353141D01*
X135594951Y-112392319D01*
X135663308Y-112410635D01*
X135890000Y-112430468D01*
X136116692Y-112410635D01*
X136336496Y-112351739D01*
X136542734Y-112255568D01*
X136729139Y-112125047D01*
X136890047Y-111964139D01*
X137020568Y-111777734D01*
X137116739Y-111571496D01*
X137175635Y-111351692D01*
X137195468Y-111125000D01*
X137175635Y-110898308D01*
X137116739Y-110678504D01*
X137020568Y-110472266D01*
X136890047Y-110285861D01*
X136729139Y-110124953D01*
X136542734Y-109994432D01*
X136394683Y-109925394D01*
X136341405Y-109900550D01*
X136341403Y-109900549D01*
X136336496Y-109898261D01*
X136331271Y-109896861D01*
X136331263Y-109896858D01*
X136121916Y-109840764D01*
X136121907Y-109840762D01*
X136116692Y-109839365D01*
X136111304Y-109838893D01*
X136111301Y-109838893D01*
X135895395Y-109820004D01*
X135890000Y-109819532D01*
X135884605Y-109820004D01*
X135884602Y-109820004D01*
X135845893Y-109823390D01*
X135786636Y-109814004D01*
X135738721Y-109777897D01*
X135713366Y-109723522D01*
X135716506Y-109663608D01*
X135747405Y-109612183D01*
X141555070Y-103804518D01*
X144350000Y-103804518D01*
X144350353Y-103811114D01*
X144355573Y-103859667D01*
X144359111Y-103874641D01*
X144403547Y-103993777D01*
X144411962Y-104009189D01*
X144487498Y-104110092D01*
X144499907Y-104122501D01*
X144600810Y-104198037D01*
X144616222Y-104206452D01*
X144735358Y-104250888D01*
X144750332Y-104254426D01*
X144798885Y-104259646D01*
X144805482Y-104260000D01*
X145783674Y-104260000D01*
X145796549Y-104256549D01*
X145800000Y-104243674D01*
X146300000Y-104243674D01*
X146303450Y-104256549D01*
X146316326Y-104260000D01*
X147294518Y-104260000D01*
X147301114Y-104259646D01*
X147349667Y-104254426D01*
X147364641Y-104250888D01*
X147483777Y-104206452D01*
X147499189Y-104198037D01*
X147600092Y-104122501D01*
X147612501Y-104110092D01*
X147688037Y-104009189D01*
X147696452Y-103993777D01*
X147740888Y-103874641D01*
X147744426Y-103859667D01*
X147749646Y-103811114D01*
X147750000Y-103804518D01*
X147750000Y-102826326D01*
X147746549Y-102813450D01*
X147733674Y-102810000D01*
X146316326Y-102810000D01*
X146303450Y-102813450D01*
X146300000Y-102826326D01*
X146300000Y-104243674D01*
X145800000Y-104243674D01*
X145800000Y-102826326D01*
X145796549Y-102813450D01*
X145783674Y-102810000D01*
X144366326Y-102810000D01*
X144353450Y-102813450D01*
X144350000Y-102826326D01*
X144350000Y-103804518D01*
X141555070Y-103804518D01*
X144138503Y-101221085D01*
X144189126Y-101190434D01*
X144248192Y-101186737D01*
X144302245Y-101210837D01*
X144338971Y-101257244D01*
X144349395Y-101312172D01*
X144350000Y-101312172D01*
X144350000Y-101315362D01*
X144350005Y-101315388D01*
X144350000Y-101315482D01*
X144350000Y-102293674D01*
X144353450Y-102306549D01*
X144366326Y-102310000D01*
X147733674Y-102310000D01*
X147746549Y-102306549D01*
X147750000Y-102293674D01*
X147750000Y-101315482D01*
X147749646Y-101308885D01*
X147744426Y-101260332D01*
X147740888Y-101245358D01*
X147696452Y-101126222D01*
X147688037Y-101110810D01*
X147612501Y-101009907D01*
X147600092Y-100997498D01*
X147499189Y-100921962D01*
X147483777Y-100913547D01*
X147364641Y-100869111D01*
X147349667Y-100865573D01*
X147301114Y-100860353D01*
X147294518Y-100860000D01*
X146774792Y-100860000D01*
X146711192Y-100842448D01*
X146665598Y-100794760D01*
X146650917Y-100730437D01*
X146671305Y-100667689D01*
X146720990Y-100624280D01*
X146902634Y-100536805D01*
X147113217Y-100393232D01*
X147300050Y-100219877D01*
X147458959Y-100020612D01*
X147586393Y-99799888D01*
X147679508Y-99562637D01*
X147736222Y-99314157D01*
X147755268Y-99060000D01*
X147736222Y-98805843D01*
X147679508Y-98557363D01*
X147586393Y-98320112D01*
X147458959Y-98099388D01*
X147300050Y-97900123D01*
X147113217Y-97726768D01*
X146902634Y-97583195D01*
X146898450Y-97581180D01*
X146898443Y-97581176D01*
X146745699Y-97507619D01*
X146694506Y-97461871D01*
X146675500Y-97395899D01*
X146675500Y-95836997D01*
X146693383Y-95772847D01*
X146713478Y-95739606D01*
X146764086Y-95577196D01*
X146770500Y-95506616D01*
X146770500Y-94993384D01*
X146764086Y-94922804D01*
X146713478Y-94760394D01*
X146625472Y-94614815D01*
X146523338Y-94512681D01*
X146491244Y-94457094D01*
X146491244Y-94392906D01*
X146523338Y-94337319D01*
X146523337Y-94337319D01*
X146625472Y-94235185D01*
X146713478Y-94089606D01*
X146764086Y-93927196D01*
X146770500Y-93856616D01*
X146770500Y-93343384D01*
X146764086Y-93272804D01*
X146713478Y-93110394D01*
X146625472Y-92964815D01*
X146505185Y-92844528D01*
X146448980Y-92810551D01*
X146366021Y-92760400D01*
X146366020Y-92760399D01*
X146359606Y-92756522D01*
X146310843Y-92741327D01*
X146203457Y-92707864D01*
X146203448Y-92707862D01*
X146197196Y-92705914D01*
X146190662Y-92705320D01*
X146190661Y-92705320D01*
X146129425Y-92699755D01*
X146129419Y-92699754D01*
X146126616Y-92699500D01*
X145463384Y-92699500D01*
X145460581Y-92699754D01*
X145460574Y-92699755D01*
X145399338Y-92705320D01*
X145399335Y-92705320D01*
X145392804Y-92705914D01*
X145386553Y-92707861D01*
X145386542Y-92707864D01*
X145237550Y-92754292D01*
X145230394Y-92756522D01*
X145223982Y-92760398D01*
X145223978Y-92760400D01*
X145091232Y-92840648D01*
X145091227Y-92840651D01*
X145084815Y-92844528D01*
X145079515Y-92849827D01*
X145079511Y-92849831D01*
X144991162Y-92938181D01*
X144950934Y-92965061D01*
X144903481Y-92974500D01*
X142321920Y-92974500D01*
X142263037Y-92959627D01*
X142218279Y-92918577D01*
X142198382Y-92861196D01*
X142206543Y-92810952D01*
X142205161Y-92810551D01*
X142207337Y-92803059D01*
X142210437Y-92795896D01*
X142217271Y-92752744D01*
X142219633Y-92741338D01*
X142230500Y-92699019D01*
X142230500Y-92678983D01*
X142232027Y-92659585D01*
X142233939Y-92647513D01*
X142233938Y-92647513D01*
X142235160Y-92639804D01*
X142231050Y-92596324D01*
X142230500Y-92584655D01*
X142230500Y-87336747D01*
X142244968Y-87278619D01*
X142284997Y-87234056D01*
X142341245Y-87213457D01*
X142400586Y-87221629D01*
X142449173Y-87256665D01*
X142475665Y-87310388D01*
X142505111Y-87445746D01*
X142605113Y-87713861D01*
X142607233Y-87717743D01*
X142607236Y-87717750D01*
X142740127Y-87961120D01*
X142742254Y-87965015D01*
X142913741Y-88194095D01*
X143116085Y-88396439D01*
X143345165Y-88567926D01*
X143596319Y-88705067D01*
X143864434Y-88805069D01*
X144144052Y-88865896D01*
X144429480Y-88886310D01*
X144714908Y-88865896D01*
X144994526Y-88805069D01*
X145262641Y-88705067D01*
X145513795Y-88567926D01*
X145742875Y-88396439D01*
X145945219Y-88194095D01*
X146116706Y-87965015D01*
X146253847Y-87713861D01*
X146353849Y-87445746D01*
X146414676Y-87166128D01*
X146435090Y-86880700D01*
X146414676Y-86595272D01*
X146353849Y-86315654D01*
X146253847Y-86047539D01*
X146116706Y-85796385D01*
X145945219Y-85567305D01*
X145742875Y-85364961D01*
X145513795Y-85193474D01*
X145509900Y-85191347D01*
X145266530Y-85058456D01*
X145266523Y-85058453D01*
X145262641Y-85056333D01*
X145258497Y-85054787D01*
X145258492Y-85054785D01*
X144998669Y-84957876D01*
X144998665Y-84957875D01*
X144994526Y-84956331D01*
X144964555Y-84949811D01*
X144719241Y-84896446D01*
X144719233Y-84896444D01*
X144714908Y-84895504D01*
X144710494Y-84895188D01*
X144710485Y-84895187D01*
X144433898Y-84875406D01*
X144429480Y-84875090D01*
X144425062Y-84875406D01*
X144148474Y-84895187D01*
X144148463Y-84895188D01*
X144144052Y-84895504D01*
X144139728Y-84896444D01*
X144139718Y-84896446D01*
X143868759Y-84955390D01*
X143868756Y-84955390D01*
X143864434Y-84956331D01*
X143860298Y-84957873D01*
X143860290Y-84957876D01*
X143600467Y-85054785D01*
X143600456Y-85054789D01*
X143596319Y-85056333D01*
X143592441Y-85058450D01*
X143592429Y-85058456D01*
X143349059Y-85191347D01*
X143349051Y-85191351D01*
X143345165Y-85193474D01*
X143341615Y-85196131D01*
X143341611Y-85196134D01*
X143119636Y-85362302D01*
X143119629Y-85362307D01*
X143116085Y-85364961D01*
X143112954Y-85368091D01*
X143112947Y-85368098D01*
X142916878Y-85564167D01*
X142916871Y-85564174D01*
X142913741Y-85567305D01*
X142911087Y-85570849D01*
X142911082Y-85570856D01*
X142744914Y-85792831D01*
X142742254Y-85796385D01*
X142740131Y-85800271D01*
X142740127Y-85800279D01*
X142607236Y-86043649D01*
X142607230Y-86043661D01*
X142605113Y-86047539D01*
X142603569Y-86051676D01*
X142603565Y-86051687D01*
X142506656Y-86311510D01*
X142506653Y-86311518D01*
X142505111Y-86315654D01*
X142504170Y-86319976D01*
X142504170Y-86319979D01*
X142475666Y-86451011D01*
X142449173Y-86504735D01*
X142400586Y-86539771D01*
X142341245Y-86547943D01*
X142284997Y-86527344D01*
X142244968Y-86482781D01*
X142230500Y-86424653D01*
X142230500Y-80192771D01*
X142231020Y-80181718D01*
X142232672Y-80174332D01*
X142230561Y-80107144D01*
X142230500Y-80103250D01*
X142230500Y-80079545D01*
X142230500Y-80075650D01*
X142229998Y-80071681D01*
X142229080Y-80060024D01*
X142227709Y-80016373D01*
X142222119Y-79997135D01*
X142218175Y-79978091D01*
X142215664Y-79958208D01*
X142199582Y-79917591D01*
X142195798Y-79906539D01*
X142185793Y-79872101D01*
X142183617Y-79864610D01*
X142179645Y-79857894D01*
X142179643Y-79857889D01*
X142173422Y-79847370D01*
X142164860Y-79829892D01*
X142160360Y-79818527D01*
X142160359Y-79818526D01*
X142157486Y-79811268D01*
X142131812Y-79775931D01*
X142125409Y-79766184D01*
X142103170Y-79728579D01*
X142089005Y-79714414D01*
X142076368Y-79699618D01*
X142069184Y-79689729D01*
X142069178Y-79689723D01*
X142064594Y-79683413D01*
X142030946Y-79655577D01*
X142022305Y-79647714D01*
X138528519Y-76153928D01*
X138500891Y-76111852D01*
X138492264Y-76062261D01*
X138501424Y-76024259D01*
X138499763Y-76023655D01*
X138501609Y-76018581D01*
X138503903Y-76013663D01*
X138565063Y-75785408D01*
X138585659Y-75550000D01*
X138565063Y-75314592D01*
X138503903Y-75086337D01*
X138404035Y-74872171D01*
X138268495Y-74678599D01*
X138101401Y-74511505D01*
X138096970Y-74508402D01*
X138096966Y-74508399D01*
X137915405Y-74381269D01*
X137876540Y-74336951D01*
X137862529Y-74279694D01*
X137876540Y-74222437D01*
X137915406Y-74178119D01*
X138096638Y-74051219D01*
X138104909Y-74044278D01*
X138264278Y-73884909D01*
X138271215Y-73876643D01*
X138400498Y-73692008D01*
X138405886Y-73682676D01*
X138501143Y-73478397D01*
X138504831Y-73468263D01*
X138556943Y-73273780D01*
X138557311Y-73262551D01*
X138546369Y-73260000D01*
X135913626Y-73260000D01*
X135908530Y-73261188D01*
X135846326Y-73259659D01*
X135792697Y-73228107D01*
X135322038Y-72757448D01*
X135902688Y-72757448D01*
X135913631Y-72760000D01*
X136963674Y-72760000D01*
X136976549Y-72756549D01*
X136980000Y-72743674D01*
X137480000Y-72743674D01*
X137483450Y-72756549D01*
X137496326Y-72760000D01*
X138546369Y-72760000D01*
X138557311Y-72757448D01*
X138556943Y-72746219D01*
X138504831Y-72551736D01*
X138501143Y-72541602D01*
X138405889Y-72337332D01*
X138400491Y-72327982D01*
X138271215Y-72143357D01*
X138264280Y-72135092D01*
X138104909Y-71975721D01*
X138096643Y-71968784D01*
X137912008Y-71839501D01*
X137902676Y-71834113D01*
X137698397Y-71738856D01*
X137688263Y-71735168D01*
X137493780Y-71683056D01*
X137482551Y-71682688D01*
X137480000Y-71693631D01*
X137480000Y-72743674D01*
X136980000Y-72743674D01*
X136980000Y-71693631D01*
X136977448Y-71682688D01*
X136966219Y-71683056D01*
X136771736Y-71735168D01*
X136761602Y-71738856D01*
X136557332Y-71834110D01*
X136547982Y-71839508D01*
X136363357Y-71968784D01*
X136355092Y-71975719D01*
X136195719Y-72135092D01*
X136188784Y-72143357D01*
X136059508Y-72327982D01*
X136054110Y-72337332D01*
X135958856Y-72541602D01*
X135955168Y-72551736D01*
X135903056Y-72746219D01*
X135902688Y-72757448D01*
X135322038Y-72757448D01*
X134707947Y-72143357D01*
X132886819Y-70322228D01*
X132859939Y-70282000D01*
X132850500Y-70234547D01*
X132850500Y-64239136D01*
X132863288Y-64184292D01*
X132899014Y-64140760D01*
X132950309Y-64117519D01*
X133006590Y-64119360D01*
X133123308Y-64150635D01*
X133350000Y-64170468D01*
X133576692Y-64150635D01*
X133796496Y-64091739D01*
X134002734Y-63995568D01*
X134189139Y-63865047D01*
X134350047Y-63704139D01*
X134480568Y-63517734D01*
X134507618Y-63459724D01*
X134553375Y-63407549D01*
X134620000Y-63388130D01*
X134686625Y-63407549D01*
X134732381Y-63459724D01*
X134759432Y-63517734D01*
X134889953Y-63704139D01*
X135050861Y-63865047D01*
X135237266Y-63995568D01*
X135443504Y-64091739D01*
X135448734Y-64093140D01*
X135448736Y-64093141D01*
X135624285Y-64140179D01*
X135663308Y-64150635D01*
X135890000Y-64170468D01*
X136116692Y-64150635D01*
X136336496Y-64091739D01*
X136542734Y-63995568D01*
X136729139Y-63865047D01*
X136890047Y-63704139D01*
X137020568Y-63517734D01*
X137116739Y-63311496D01*
X137175635Y-63091692D01*
X137195468Y-62865000D01*
X137175635Y-62638308D01*
X137116739Y-62418504D01*
X137020568Y-62212266D01*
X136890047Y-62025861D01*
X136729139Y-61864953D01*
X136542734Y-61734432D01*
X136336496Y-61638261D01*
X136331271Y-61636861D01*
X136331263Y-61636858D01*
X136121916Y-61580764D01*
X136121907Y-61580762D01*
X136116692Y-61579365D01*
X136111304Y-61578893D01*
X136111301Y-61578893D01*
X135895395Y-61560004D01*
X135890000Y-61559532D01*
X135884605Y-61560004D01*
X135668698Y-61578893D01*
X135668693Y-61578893D01*
X135663308Y-61579365D01*
X135658094Y-61580762D01*
X135658083Y-61580764D01*
X135448736Y-61636858D01*
X135448724Y-61636862D01*
X135443504Y-61638261D01*
X135438599Y-61640547D01*
X135438594Y-61640550D01*
X135242176Y-61732142D01*
X135242172Y-61732144D01*
X135237266Y-61734432D01*
X135232833Y-61737535D01*
X135232826Y-61737540D01*
X135055296Y-61861847D01*
X135055291Y-61861850D01*
X135050861Y-61864953D01*
X135047037Y-61868776D01*
X135047031Y-61868782D01*
X134893782Y-62022031D01*
X134893776Y-62022037D01*
X134889953Y-62025861D01*
X134886850Y-62030291D01*
X134886847Y-62030296D01*
X134762540Y-62207826D01*
X134762535Y-62207833D01*
X134759432Y-62212266D01*
X134757148Y-62217163D01*
X134757141Y-62217176D01*
X134732382Y-62270274D01*
X134686625Y-62322450D01*
X134620000Y-62341869D01*
X134553375Y-62322450D01*
X134507618Y-62270274D01*
X134482858Y-62217176D01*
X134482855Y-62217172D01*
X134480568Y-62212266D01*
X134350047Y-62025861D01*
X134189139Y-61864953D01*
X134002734Y-61734432D01*
X133796496Y-61638261D01*
X133791271Y-61636861D01*
X133791263Y-61636858D01*
X133581916Y-61580764D01*
X133581907Y-61580762D01*
X133576692Y-61579365D01*
X133571304Y-61578893D01*
X133571301Y-61578893D01*
X133355395Y-61560004D01*
X133350000Y-61559532D01*
X133344605Y-61560004D01*
X133128698Y-61578893D01*
X133128693Y-61578893D01*
X133123308Y-61579365D01*
X133118088Y-61580763D01*
X133118086Y-61580764D01*
X133092215Y-61587696D01*
X133006590Y-61610639D01*
X132950309Y-61612481D01*
X132899014Y-61589240D01*
X132863288Y-61545708D01*
X132850500Y-61490864D01*
X132850500Y-60490452D01*
X132859939Y-60442999D01*
X132886816Y-60402773D01*
X133172316Y-60117272D01*
X133180481Y-60109843D01*
X133186877Y-60105786D01*
X133232933Y-60056740D01*
X133235550Y-60054038D01*
X133255120Y-60034470D01*
X133257565Y-60031316D01*
X133265155Y-60022428D01*
X133295062Y-59990582D01*
X133304709Y-59973032D01*
X133315393Y-59956766D01*
X133327674Y-59940936D01*
X133345018Y-59900851D01*
X133350160Y-59890356D01*
X133371197Y-59852092D01*
X133376179Y-59832689D01*
X133382480Y-59814283D01*
X133390438Y-59795895D01*
X133397269Y-59752756D01*
X133399639Y-59741315D01*
X133408560Y-59706574D01*
X133408559Y-59706574D01*
X133410500Y-59699019D01*
X133410500Y-59678983D01*
X133412025Y-59659597D01*
X133415160Y-59639804D01*
X133411050Y-59596324D01*
X133410500Y-59584655D01*
X133410500Y-59480723D01*
X133422489Y-59427529D01*
X133456139Y-59384621D01*
X133504942Y-59360297D01*
X133559459Y-59359261D01*
X133735801Y-59395500D01*
X134181331Y-59395500D01*
X134184473Y-59395500D01*
X134332379Y-59380459D01*
X134521678Y-59321067D01*
X134695146Y-59224784D01*
X134845682Y-59095553D01*
X134967122Y-58938666D01*
X135054495Y-58760544D01*
X135104224Y-58568480D01*
X135114272Y-58370337D01*
X135084230Y-58174227D01*
X135015325Y-57988180D01*
X134910380Y-57819811D01*
X134802113Y-57705914D01*
X134778022Y-57680570D01*
X134778020Y-57680569D01*
X134773691Y-57676014D01*
X134768534Y-57672424D01*
X134768531Y-57672422D01*
X134663663Y-57599432D01*
X134624591Y-57555068D01*
X134610500Y-57497657D01*
X134610500Y-57119499D01*
X134627113Y-57057499D01*
X134672500Y-57012112D01*
X134734500Y-56995499D01*
X134957877Y-56995499D01*
X134964157Y-56995658D01*
X135033136Y-56999156D01*
X135223214Y-56970037D01*
X135403540Y-56903252D01*
X135566731Y-56801534D01*
X135706106Y-56669049D01*
X135815958Y-56511219D01*
X135891791Y-56334508D01*
X135930500Y-56146148D01*
X135930500Y-55880000D01*
X142424390Y-55880000D01*
X142424706Y-55884418D01*
X142444487Y-56161005D01*
X142444488Y-56161014D01*
X142444804Y-56165428D01*
X142445744Y-56169753D01*
X142445746Y-56169761D01*
X142480246Y-56328353D01*
X142505631Y-56445046D01*
X142507175Y-56449185D01*
X142507176Y-56449189D01*
X142590794Y-56673378D01*
X142605633Y-56713161D01*
X142607753Y-56717043D01*
X142607756Y-56717050D01*
X142731833Y-56944279D01*
X142742774Y-56964315D01*
X142914261Y-57193395D01*
X143116605Y-57395739D01*
X143345685Y-57567226D01*
X143465875Y-57632855D01*
X143560085Y-57684298D01*
X143596839Y-57704367D01*
X143864954Y-57804369D01*
X144144572Y-57865196D01*
X144430000Y-57885610D01*
X144715428Y-57865196D01*
X144995046Y-57804369D01*
X145263161Y-57704367D01*
X145514315Y-57567226D01*
X145743395Y-57395739D01*
X145945739Y-57193395D01*
X146117226Y-56964315D01*
X146254367Y-56713161D01*
X146354369Y-56445046D01*
X146415196Y-56165428D01*
X146435610Y-55880000D01*
X146415196Y-55594572D01*
X146354369Y-55314954D01*
X146254367Y-55046839D01*
X146117226Y-54795685D01*
X145945739Y-54566605D01*
X145743395Y-54364261D01*
X145514315Y-54192774D01*
X145510420Y-54190647D01*
X145267050Y-54057756D01*
X145267043Y-54057753D01*
X145263161Y-54055633D01*
X145259017Y-54054087D01*
X145259012Y-54054085D01*
X144999189Y-53957176D01*
X144999185Y-53957175D01*
X144995046Y-53955631D01*
X144965075Y-53949111D01*
X144719761Y-53895746D01*
X144719753Y-53895744D01*
X144715428Y-53894804D01*
X144711014Y-53894488D01*
X144711005Y-53894487D01*
X144434418Y-53874706D01*
X144430000Y-53874390D01*
X144425582Y-53874706D01*
X144148994Y-53894487D01*
X144148983Y-53894488D01*
X144144572Y-53894804D01*
X144140248Y-53895744D01*
X144140238Y-53895746D01*
X143869279Y-53954690D01*
X143869276Y-53954690D01*
X143864954Y-53955631D01*
X143860818Y-53957173D01*
X143860810Y-53957176D01*
X143600987Y-54054085D01*
X143600976Y-54054089D01*
X143596839Y-54055633D01*
X143592961Y-54057750D01*
X143592949Y-54057756D01*
X143349579Y-54190647D01*
X143349571Y-54190651D01*
X143345685Y-54192774D01*
X143342135Y-54195431D01*
X143342131Y-54195434D01*
X143120156Y-54361602D01*
X143120149Y-54361607D01*
X143116605Y-54364261D01*
X143113474Y-54367391D01*
X143113467Y-54367398D01*
X142917398Y-54563467D01*
X142917391Y-54563474D01*
X142914261Y-54566605D01*
X142911607Y-54570149D01*
X142911602Y-54570156D01*
X142746737Y-54790391D01*
X142742774Y-54795685D01*
X142740651Y-54799571D01*
X142740647Y-54799579D01*
X142607756Y-55042949D01*
X142607750Y-55042961D01*
X142605633Y-55046839D01*
X142604089Y-55050976D01*
X142604085Y-55050987D01*
X142507176Y-55310810D01*
X142507173Y-55310818D01*
X142505631Y-55314954D01*
X142504690Y-55319276D01*
X142504690Y-55319279D01*
X142445746Y-55590238D01*
X142445744Y-55590248D01*
X142444804Y-55594572D01*
X142444488Y-55598983D01*
X142444487Y-55598994D01*
X142442270Y-55630000D01*
X142424390Y-55880000D01*
X135930500Y-55880000D01*
X135930500Y-55342050D01*
X135915922Y-55198691D01*
X135858355Y-55015214D01*
X135765034Y-54847080D01*
X135639778Y-54701174D01*
X135554471Y-54635142D01*
X135492693Y-54587322D01*
X135492691Y-54587321D01*
X135487715Y-54583469D01*
X135482069Y-54580699D01*
X135482065Y-54580697D01*
X135320715Y-54501551D01*
X135320710Y-54501549D01*
X135315071Y-54498783D01*
X135308986Y-54497207D01*
X135308985Y-54497207D01*
X135134994Y-54452157D01*
X135134989Y-54452156D01*
X135128913Y-54450583D01*
X135122643Y-54450265D01*
X135122637Y-54450264D01*
X135057718Y-54446972D01*
X135050747Y-54446421D01*
X135036165Y-54444853D01*
X135036148Y-54444852D01*
X135032873Y-54444500D01*
X135029563Y-54444500D01*
X135012104Y-54444500D01*
X135005824Y-54444341D01*
X134943145Y-54441162D01*
X134943139Y-54441162D01*
X134936864Y-54440844D01*
X134930653Y-54441795D01*
X134930642Y-54441796D01*
X134922331Y-54443070D01*
X134903556Y-54444500D01*
X133740439Y-54444500D01*
X133740420Y-54444500D01*
X133737128Y-54444501D01*
X133733850Y-54444853D01*
X133733838Y-54444854D01*
X133685231Y-54450079D01*
X133685225Y-54450080D01*
X133677517Y-54450909D01*
X133670250Y-54453619D01*
X133670243Y-54453621D01*
X133553331Y-54497226D01*
X133509999Y-54505044D01*
X133466666Y-54497226D01*
X133349752Y-54453620D01*
X133349750Y-54453619D01*
X133342483Y-54450909D01*
X133334770Y-54450079D01*
X133334767Y-54450079D01*
X133286180Y-54444855D01*
X133286169Y-54444854D01*
X133282873Y-54444500D01*
X133279550Y-54444500D01*
X131690439Y-54444500D01*
X131690420Y-54444500D01*
X131687128Y-54444501D01*
X131683850Y-54444853D01*
X131683838Y-54444854D01*
X131635231Y-54450079D01*
X131635225Y-54450080D01*
X131627517Y-54450909D01*
X131620250Y-54453619D01*
X131620243Y-54453621D01*
X131528331Y-54487902D01*
X131484999Y-54495720D01*
X131441666Y-54487902D01*
X131349752Y-54453620D01*
X131349750Y-54453619D01*
X131342483Y-54450909D01*
X131334770Y-54450079D01*
X131334767Y-54450079D01*
X131286180Y-54444855D01*
X131286169Y-54444854D01*
X131282873Y-54444500D01*
X131279550Y-54444500D01*
X129690439Y-54444500D01*
X129690420Y-54444500D01*
X129687128Y-54444501D01*
X129683850Y-54444853D01*
X129683838Y-54444854D01*
X129635231Y-54450079D01*
X129635225Y-54450080D01*
X129627517Y-54450909D01*
X129620250Y-54453619D01*
X129620243Y-54453621D01*
X129503331Y-54497226D01*
X129459999Y-54505044D01*
X129416666Y-54497226D01*
X129299752Y-54453620D01*
X129299750Y-54453619D01*
X129292483Y-54450909D01*
X129284770Y-54450079D01*
X129284767Y-54450079D01*
X129236180Y-54444855D01*
X129236169Y-54444854D01*
X129232873Y-54444500D01*
X129229551Y-54444500D01*
X128012120Y-54444500D01*
X128005842Y-54444341D01*
X127943146Y-54441162D01*
X127943141Y-54441162D01*
X127936864Y-54440844D01*
X127930652Y-54441795D01*
X127930645Y-54441796D01*
X127753000Y-54469010D01*
X127752990Y-54469012D01*
X127746786Y-54469963D01*
X127740897Y-54472143D01*
X127740889Y-54472146D01*
X127572360Y-54534562D01*
X127572352Y-54534565D01*
X127566460Y-54536748D01*
X127561131Y-54540069D01*
X127561122Y-54540074D01*
X127408601Y-54635142D01*
X127408597Y-54635144D01*
X127403269Y-54638466D01*
X127398719Y-54642790D01*
X127398715Y-54642794D01*
X127268448Y-54766621D01*
X127268442Y-54766627D01*
X127263894Y-54770951D01*
X127260308Y-54776102D01*
X127260302Y-54776110D01*
X127157632Y-54923622D01*
X127157629Y-54923627D01*
X127154042Y-54928781D01*
X127151566Y-54934550D01*
X127151563Y-54934556D01*
X127105048Y-55042949D01*
X127078209Y-55105492D01*
X127076944Y-55111643D01*
X127076944Y-55111646D01*
X127040765Y-55287694D01*
X127040764Y-55287698D01*
X127039500Y-55293852D01*
X127039500Y-56097950D01*
X127039816Y-56101061D01*
X127039817Y-56101073D01*
X127046802Y-56169761D01*
X127054078Y-56241309D01*
X127111645Y-56424786D01*
X127114697Y-56430284D01*
X127114698Y-56430287D01*
X127201912Y-56587418D01*
X127204966Y-56592920D01*
X127330222Y-56738826D01*
X127482285Y-56856531D01*
X127654929Y-56941217D01*
X127841087Y-56989417D01*
X127912305Y-56993027D01*
X127919223Y-56993574D01*
X127937127Y-56995500D01*
X127957894Y-56995499D01*
X127964172Y-56995657D01*
X128033136Y-56999156D01*
X128047664Y-56996929D01*
X128066444Y-56995499D01*
X128078409Y-56995499D01*
X128235501Y-56995500D01*
X128297500Y-57012113D01*
X128342887Y-57057500D01*
X128359500Y-57119500D01*
X128359500Y-57495239D01*
X128342359Y-57558144D01*
X128295676Y-57603658D01*
X128292297Y-57605534D01*
X128280347Y-57612166D01*
X128280339Y-57612171D01*
X128274854Y-57615216D01*
X128270091Y-57619304D01*
X128270085Y-57619309D01*
X128143776Y-57727743D01*
X128124318Y-57744447D01*
X128120468Y-57749420D01*
X128120463Y-57749426D01*
X128061851Y-57825147D01*
X128002878Y-57901334D01*
X128000110Y-57906975D01*
X128000106Y-57906983D01*
X127918273Y-58073811D01*
X127918269Y-58073819D01*
X127915505Y-58079456D01*
X127913930Y-58085536D01*
X127913929Y-58085541D01*
X127889357Y-58180447D01*
X127865776Y-58271520D01*
X127865458Y-58277785D01*
X127865457Y-58277794D01*
X127856046Y-58463381D01*
X127856046Y-58463386D01*
X127855728Y-58469663D01*
X127856679Y-58475875D01*
X127856680Y-58475882D01*
X127871797Y-58574560D01*
X127885770Y-58665773D01*
X127954675Y-58851820D01*
X127958001Y-58857156D01*
X127958003Y-58857160D01*
X128056293Y-59014852D01*
X128059620Y-59020189D01*
X128063952Y-59024746D01*
X128176238Y-59142872D01*
X128196309Y-59163986D01*
X128359146Y-59277324D01*
X128541465Y-59355563D01*
X128735801Y-59395500D01*
X129181331Y-59395500D01*
X129184473Y-59395500D01*
X129332379Y-59380459D01*
X129444369Y-59345322D01*
X129494691Y-59340341D01*
X129542823Y-59355870D01*
X129580751Y-59389325D01*
X129622498Y-59445092D01*
X129634907Y-59457501D01*
X129735810Y-59533037D01*
X129751222Y-59541452D01*
X129870358Y-59585888D01*
X129885332Y-59589426D01*
X129933885Y-59594646D01*
X129940482Y-59595000D01*
X129968674Y-59595000D01*
X129981549Y-59591549D01*
X129985000Y-59578674D01*
X129985000Y-59434435D01*
X130000168Y-59375008D01*
X130041960Y-59330120D01*
X130100154Y-59310751D01*
X130160511Y-59321640D01*
X130208266Y-59360123D01*
X130277454Y-59452546D01*
X130284550Y-59457858D01*
X130284551Y-59457859D01*
X130335353Y-59495890D01*
X130363731Y-59525653D01*
X130380815Y-59563061D01*
X130388448Y-59591549D01*
X130401326Y-59595000D01*
X130429518Y-59595000D01*
X130436114Y-59594646D01*
X130492376Y-59588598D01*
X130492574Y-59590441D01*
X130527372Y-59590438D01*
X130527517Y-59589091D01*
X130587127Y-59595500D01*
X131082872Y-59595499D01*
X131142483Y-59589091D01*
X131142655Y-59590698D01*
X131177344Y-59590697D01*
X131177517Y-59589091D01*
X131237127Y-59595500D01*
X131629273Y-59595499D01*
X131684870Y-59608661D01*
X131728664Y-59645354D01*
X131751358Y-59697788D01*
X131748133Y-59754831D01*
X131723904Y-59797010D01*
X131724725Y-59797609D01*
X131724477Y-59797949D01*
X131721753Y-59800754D01*
X131719675Y-59804373D01*
X131714946Y-59809410D01*
X131714111Y-59808626D01*
X131700303Y-59822850D01*
X131700286Y-59822863D01*
X131693579Y-59826830D01*
X131688068Y-59832340D01*
X131688064Y-59832344D01*
X130497228Y-61023181D01*
X130457000Y-61050061D01*
X130409547Y-61059500D01*
X116605452Y-61059500D01*
X116557999Y-61050061D01*
X116517771Y-61023181D01*
X113336344Y-57841753D01*
X113303862Y-57784679D01*
X113305082Y-57719021D01*
X113339662Y-57663193D01*
X113397904Y-57632855D01*
X113436279Y-57624585D01*
X113446322Y-57621509D01*
X113657678Y-57536578D01*
X113667043Y-57531857D01*
X113861016Y-57412424D01*
X113869446Y-57406189D01*
X114040439Y-57255696D01*
X114047700Y-57248120D01*
X114190795Y-57070899D01*
X114196678Y-57062195D01*
X114307764Y-56863344D01*
X114312086Y-56853783D01*
X114387969Y-56639014D01*
X114390616Y-56628847D01*
X114429109Y-56404351D01*
X114430000Y-56393891D01*
X114430000Y-56146326D01*
X114426549Y-56133450D01*
X114413674Y-56130000D01*
X112904000Y-56130000D01*
X112842000Y-56113387D01*
X112796613Y-56068000D01*
X112780000Y-56006000D01*
X112780000Y-55613674D01*
X113280000Y-55613674D01*
X113283450Y-55626549D01*
X113296326Y-55630000D01*
X114413674Y-55630000D01*
X114426549Y-55626549D01*
X114430000Y-55613674D01*
X114430000Y-55423158D01*
X114429776Y-55417902D01*
X114415298Y-55247796D01*
X114413522Y-55237442D01*
X114356127Y-55017013D01*
X114352631Y-55007118D01*
X114258810Y-54799560D01*
X114253687Y-54790391D01*
X114126139Y-54601679D01*
X114119541Y-54593507D01*
X113961934Y-54429062D01*
X113954053Y-54422126D01*
X113770921Y-54286682D01*
X113761977Y-54281176D01*
X113558588Y-54178629D01*
X113548851Y-54174716D01*
X113331053Y-54108016D01*
X113320793Y-54105805D01*
X113297523Y-54102825D01*
X113283862Y-54104969D01*
X113280000Y-54118248D01*
X113280000Y-55613674D01*
X112780000Y-55613674D01*
X112780000Y-54115611D01*
X112777544Y-54104775D01*
X112766435Y-54104657D01*
X112623714Y-54135416D01*
X112613677Y-54138490D01*
X112402321Y-54223421D01*
X112392956Y-54228142D01*
X112198983Y-54347575D01*
X112190553Y-54353810D01*
X112019560Y-54504303D01*
X112012299Y-54511879D01*
X111869204Y-54689100D01*
X111860377Y-54702161D01*
X111858620Y-54700973D01*
X111822290Y-54738669D01*
X111762594Y-54756821D01*
X111701615Y-54743603D01*
X111654793Y-54702362D01*
X111648411Y-54692920D01*
X111609160Y-54634846D01*
X111586530Y-54601363D01*
X111586529Y-54601362D01*
X111583579Y-54596997D01*
X111442770Y-54450079D01*
X111422266Y-54428685D01*
X111422265Y-54428684D01*
X111418621Y-54424882D01*
X111408424Y-54417340D01*
X111231184Y-54286254D01*
X111231178Y-54286250D01*
X111226947Y-54283121D01*
X111222243Y-54280749D01*
X111222241Y-54280748D01*
X111078213Y-54208131D01*
X111014074Y-54175793D01*
X110892267Y-54138490D01*
X110791159Y-54107526D01*
X110791156Y-54107525D01*
X110786123Y-54105984D01*
X110710705Y-54096326D01*
X110554871Y-54076370D01*
X110554870Y-54076369D01*
X110549654Y-54075702D01*
X110544399Y-54075925D01*
X110544394Y-54075925D01*
X110316733Y-54085596D01*
X110316728Y-54085596D01*
X110311468Y-54085820D01*
X110306328Y-54086927D01*
X110306318Y-54086929D01*
X110083571Y-54134935D01*
X110083563Y-54134937D01*
X110078419Y-54136046D01*
X110073532Y-54138009D01*
X110073528Y-54138011D01*
X109862097Y-54222971D01*
X109862085Y-54222977D01*
X109857210Y-54224936D01*
X109852726Y-54227696D01*
X109848024Y-54230068D01*
X109847379Y-54228789D01*
X109803519Y-54243754D01*
X109749084Y-54237363D01*
X109702722Y-54208131D01*
X109362286Y-53867695D01*
X109354842Y-53859514D01*
X109350786Y-53853123D01*
X109301775Y-53807098D01*
X109298978Y-53804387D01*
X109282227Y-53787636D01*
X109282226Y-53787635D01*
X109279471Y-53784880D01*
X109276290Y-53782412D01*
X109267414Y-53774830D01*
X109241269Y-53750278D01*
X109241267Y-53750276D01*
X109235582Y-53744938D01*
X109228749Y-53741182D01*
X109228743Y-53741177D01*
X109218025Y-53735285D01*
X109201766Y-53724606D01*
X109192095Y-53717104D01*
X109192092Y-53717102D01*
X109185936Y-53712327D01*
X109178779Y-53709229D01*
X109178776Y-53709228D01*
X109145849Y-53694978D01*
X109135363Y-53689841D01*
X109103932Y-53672562D01*
X109103923Y-53672558D01*
X109097092Y-53668803D01*
X109089535Y-53666862D01*
X109089531Y-53666861D01*
X109077688Y-53663820D01*
X109059284Y-53657519D01*
X109048057Y-53652660D01*
X109048050Y-53652658D01*
X109040896Y-53649562D01*
X109033192Y-53648341D01*
X109033190Y-53648341D01*
X108997759Y-53642729D01*
X108986324Y-53640361D01*
X108951571Y-53631438D01*
X108951563Y-53631437D01*
X108944019Y-53629500D01*
X108936223Y-53629500D01*
X108923983Y-53629500D01*
X108904597Y-53627974D01*
X108884804Y-53624840D01*
X108877038Y-53625574D01*
X108877035Y-53625574D01*
X108841324Y-53628950D01*
X108829655Y-53629500D01*
X79172772Y-53629500D01*
X79161719Y-53628979D01*
X79154333Y-53627328D01*
X79146535Y-53627573D01*
X79087145Y-53629439D01*
X79083251Y-53629500D01*
X79055650Y-53629500D01*
X79051799Y-53629986D01*
X79051768Y-53629988D01*
X79051640Y-53630005D01*
X79040029Y-53630918D01*
X79004172Y-53632045D01*
X79004165Y-53632046D01*
X78996373Y-53632291D01*
X78988888Y-53634465D01*
X78988872Y-53634468D01*
X78977126Y-53637881D01*
X78958083Y-53641825D01*
X78945949Y-53643358D01*
X78945948Y-53643358D01*
X78938208Y-53644336D01*
X78930958Y-53647205D01*
X78930951Y-53647208D01*
X78897598Y-53660413D01*
X78886554Y-53664194D01*
X78852101Y-53674204D01*
X78852090Y-53674208D01*
X78844610Y-53676382D01*
X78837898Y-53680351D01*
X78837896Y-53680352D01*
X78827364Y-53686580D01*
X78809904Y-53695134D01*
X78798519Y-53699642D01*
X78798513Y-53699644D01*
X78791268Y-53702514D01*
X78784963Y-53707094D01*
X78784955Y-53707099D01*
X78755932Y-53728185D01*
X78746174Y-53734595D01*
X78715296Y-53752857D01*
X78715290Y-53752861D01*
X78708580Y-53756830D01*
X78703067Y-53762341D01*
X78703060Y-53762348D01*
X78694410Y-53770998D01*
X78679627Y-53783624D01*
X78669726Y-53790817D01*
X78669716Y-53790826D01*
X78663413Y-53795406D01*
X78658444Y-53801411D01*
X78658441Y-53801415D01*
X78635572Y-53829059D01*
X78627711Y-53837697D01*
X78253973Y-54211434D01*
X78210894Y-54239454D01*
X78160153Y-54247601D01*
X78110468Y-54234476D01*
X77998782Y-54178166D01*
X77998775Y-54178163D01*
X77994074Y-54175793D01*
X77872267Y-54138490D01*
X77771159Y-54107526D01*
X77771156Y-54107525D01*
X77766123Y-54105984D01*
X77690705Y-54096326D01*
X77534871Y-54076370D01*
X77534870Y-54076369D01*
X77529654Y-54075702D01*
X77524399Y-54075925D01*
X77524394Y-54075925D01*
X77296733Y-54085596D01*
X77296728Y-54085596D01*
X77291468Y-54085820D01*
X77286328Y-54086927D01*
X77286318Y-54086929D01*
X77063571Y-54134935D01*
X77063563Y-54134937D01*
X77058419Y-54136046D01*
X77053532Y-54138009D01*
X77053528Y-54138011D01*
X76842091Y-54222974D01*
X76842084Y-54222977D01*
X76837210Y-54224936D01*
X76832738Y-54227689D01*
X76832731Y-54227693D01*
X76638684Y-54347172D01*
X76638674Y-54347179D01*
X76634205Y-54349931D01*
X76630258Y-54353404D01*
X76630255Y-54353407D01*
X76501083Y-54467092D01*
X76448374Y-54494518D01*
X76388957Y-54494273D01*
X76336475Y-54466416D01*
X76302978Y-54417340D01*
X76276453Y-54346224D01*
X76268037Y-54330810D01*
X76192501Y-54229907D01*
X76180092Y-54217498D01*
X76079189Y-54141962D01*
X76063777Y-54133547D01*
X75944641Y-54089111D01*
X75929667Y-54085573D01*
X75881114Y-54080353D01*
X75874518Y-54080000D01*
X75196326Y-54080000D01*
X75183450Y-54083450D01*
X75180000Y-54096326D01*
X75180000Y-57663674D01*
X75183450Y-57676549D01*
X75196326Y-57680000D01*
X75874518Y-57680000D01*
X75881114Y-57679646D01*
X75929667Y-57674426D01*
X75944641Y-57670888D01*
X76063777Y-57626452D01*
X76079189Y-57618037D01*
X76180092Y-57542501D01*
X76192501Y-57530092D01*
X76268037Y-57429189D01*
X76276453Y-57413776D01*
X76302760Y-57343244D01*
X76338237Y-57292434D01*
X76393871Y-57265137D01*
X76455766Y-57268170D01*
X76508465Y-57300776D01*
X76541379Y-57335118D01*
X76602815Y-57380556D01*
X76728815Y-57473745D01*
X76728818Y-57473746D01*
X76733053Y-57476879D01*
X76945926Y-57584207D01*
X77173877Y-57654016D01*
X77410346Y-57684298D01*
X77648532Y-57674180D01*
X77881581Y-57623954D01*
X78102790Y-57535064D01*
X78305795Y-57410069D01*
X78484755Y-57252564D01*
X78634523Y-57067080D01*
X78637093Y-57062477D01*
X78640044Y-57058114D01*
X78642663Y-57059884D01*
X78674183Y-57024243D01*
X78734687Y-57003803D01*
X78797339Y-57016183D01*
X78845519Y-57058100D01*
X78916421Y-57163003D01*
X78920067Y-57166807D01*
X79043382Y-57295473D01*
X79081379Y-57335118D01*
X79142815Y-57380556D01*
X79268815Y-57473745D01*
X79268818Y-57473746D01*
X79273053Y-57476879D01*
X79485926Y-57584207D01*
X79713877Y-57654016D01*
X79950346Y-57684298D01*
X80188532Y-57674180D01*
X80421581Y-57623954D01*
X80642790Y-57535064D01*
X80845795Y-57410069D01*
X81024755Y-57252564D01*
X81174523Y-57067080D01*
X81177093Y-57062477D01*
X81180044Y-57058114D01*
X81182663Y-57059884D01*
X81214183Y-57024243D01*
X81274687Y-57003803D01*
X81337339Y-57016183D01*
X81385519Y-57058100D01*
X81456421Y-57163003D01*
X81460067Y-57166807D01*
X81583382Y-57295473D01*
X81621379Y-57335118D01*
X81682815Y-57380556D01*
X81808815Y-57473745D01*
X81808818Y-57473746D01*
X81813053Y-57476879D01*
X82025926Y-57584207D01*
X82253877Y-57654016D01*
X82490346Y-57684298D01*
X82728532Y-57674180D01*
X82961581Y-57623954D01*
X83182790Y-57535064D01*
X83385795Y-57410069D01*
X83564755Y-57252564D01*
X83714523Y-57067080D01*
X83717093Y-57062477D01*
X83720044Y-57058114D01*
X83722663Y-57059884D01*
X83754183Y-57024243D01*
X83814687Y-57003803D01*
X83877339Y-57016183D01*
X83925519Y-57058100D01*
X83996421Y-57163003D01*
X84000067Y-57166807D01*
X84123382Y-57295473D01*
X84161379Y-57335118D01*
X84222815Y-57380556D01*
X84348815Y-57473745D01*
X84348818Y-57473746D01*
X84353053Y-57476879D01*
X84565926Y-57584207D01*
X84793877Y-57654016D01*
X85030346Y-57684298D01*
X85268532Y-57674180D01*
X85501581Y-57623954D01*
X85722790Y-57535064D01*
X85925795Y-57410069D01*
X86104755Y-57252564D01*
X86254523Y-57067080D01*
X86257093Y-57062477D01*
X86260044Y-57058114D01*
X86262663Y-57059884D01*
X86294183Y-57024243D01*
X86354687Y-57003803D01*
X86417339Y-57016183D01*
X86465519Y-57058100D01*
X86536421Y-57163003D01*
X86540067Y-57166807D01*
X86663382Y-57295473D01*
X86701379Y-57335118D01*
X86762815Y-57380556D01*
X86888815Y-57473745D01*
X86888818Y-57473746D01*
X86893053Y-57476879D01*
X87105926Y-57584207D01*
X87333877Y-57654016D01*
X87570346Y-57684298D01*
X87808532Y-57674180D01*
X88041581Y-57623954D01*
X88262790Y-57535064D01*
X88465795Y-57410069D01*
X88644755Y-57252564D01*
X88794523Y-57067080D01*
X88797093Y-57062477D01*
X88800044Y-57058114D01*
X88802663Y-57059884D01*
X88834183Y-57024243D01*
X88894687Y-57003803D01*
X88957339Y-57016183D01*
X89005519Y-57058100D01*
X89076421Y-57163003D01*
X89080067Y-57166807D01*
X89203382Y-57295473D01*
X89241379Y-57335118D01*
X89302815Y-57380556D01*
X89428815Y-57473745D01*
X89428818Y-57473746D01*
X89433053Y-57476879D01*
X89645926Y-57584207D01*
X89873877Y-57654016D01*
X90110346Y-57684298D01*
X90348532Y-57674180D01*
X90581581Y-57623954D01*
X90802790Y-57535064D01*
X91005795Y-57410069D01*
X91184755Y-57252564D01*
X91334523Y-57067080D01*
X91337093Y-57062477D01*
X91340044Y-57058114D01*
X91342663Y-57059884D01*
X91374183Y-57024243D01*
X91434687Y-57003803D01*
X91497339Y-57016183D01*
X91545519Y-57058100D01*
X91616421Y-57163003D01*
X91620067Y-57166807D01*
X91743382Y-57295473D01*
X91781379Y-57335118D01*
X91842815Y-57380556D01*
X91968815Y-57473745D01*
X91968818Y-57473746D01*
X91973053Y-57476879D01*
X92185926Y-57584207D01*
X92413877Y-57654016D01*
X92650346Y-57684298D01*
X92888532Y-57674180D01*
X93121581Y-57623954D01*
X93342790Y-57535064D01*
X93545795Y-57410069D01*
X93724755Y-57252564D01*
X93874523Y-57067080D01*
X93877093Y-57062477D01*
X93880044Y-57058114D01*
X93882663Y-57059884D01*
X93914183Y-57024243D01*
X93974687Y-57003803D01*
X94037339Y-57016183D01*
X94085519Y-57058100D01*
X94156421Y-57163003D01*
X94160067Y-57166807D01*
X94283382Y-57295473D01*
X94321379Y-57335118D01*
X94382815Y-57380556D01*
X94508815Y-57473745D01*
X94508818Y-57473746D01*
X94513053Y-57476879D01*
X94725926Y-57584207D01*
X94953877Y-57654016D01*
X95190346Y-57684298D01*
X95428532Y-57674180D01*
X95661581Y-57623954D01*
X95882790Y-57535064D01*
X96085795Y-57410069D01*
X96264755Y-57252564D01*
X96414523Y-57067080D01*
X96417093Y-57062477D01*
X96420044Y-57058114D01*
X96422663Y-57059884D01*
X96454183Y-57024243D01*
X96514687Y-57003803D01*
X96577339Y-57016183D01*
X96625519Y-57058100D01*
X96696421Y-57163003D01*
X96700067Y-57166807D01*
X96823382Y-57295473D01*
X96861379Y-57335118D01*
X96922815Y-57380556D01*
X97048815Y-57473745D01*
X97048818Y-57473746D01*
X97053053Y-57476879D01*
X97265926Y-57584207D01*
X97493877Y-57654016D01*
X97730346Y-57684298D01*
X97968532Y-57674180D01*
X98201581Y-57623954D01*
X98422790Y-57535064D01*
X98625795Y-57410069D01*
X98804755Y-57252564D01*
X98954523Y-57067080D01*
X98957093Y-57062477D01*
X98960044Y-57058114D01*
X98962663Y-57059884D01*
X98994183Y-57024243D01*
X99054687Y-57003803D01*
X99117339Y-57016183D01*
X99165519Y-57058100D01*
X99236421Y-57163003D01*
X99240067Y-57166807D01*
X99363382Y-57295473D01*
X99401379Y-57335118D01*
X99462815Y-57380556D01*
X99588815Y-57473745D01*
X99588818Y-57473746D01*
X99593053Y-57476879D01*
X99805926Y-57584207D01*
X100033877Y-57654016D01*
X100270346Y-57684298D01*
X100508532Y-57674180D01*
X100574377Y-57659989D01*
X100629191Y-57660571D01*
X100678399Y-57684729D01*
X100712383Y-57727743D01*
X100724500Y-57781206D01*
X100724500Y-61650812D01*
X100710489Y-61708069D01*
X100671623Y-61752387D01*
X100515296Y-61861847D01*
X100515291Y-61861850D01*
X100510861Y-61864953D01*
X100507037Y-61868776D01*
X100507031Y-61868782D01*
X100353782Y-62022031D01*
X100353776Y-62022037D01*
X100349953Y-62025861D01*
X100346850Y-62030291D01*
X100346847Y-62030296D01*
X100222540Y-62207826D01*
X100222535Y-62207833D01*
X100219432Y-62212266D01*
X100204695Y-62243868D01*
X100192106Y-62270866D01*
X100146348Y-62323041D01*
X100079723Y-62342460D01*
X100013098Y-62323040D01*
X99967342Y-62270864D01*
X99942422Y-62217423D01*
X99937032Y-62208087D01*
X99812767Y-62030618D01*
X99805830Y-62022352D01*
X99652647Y-61869169D01*
X99644381Y-61862232D01*
X99466912Y-61737967D01*
X99457580Y-61732579D01*
X99261234Y-61641022D01*
X99251092Y-61637330D01*
X99073780Y-61589820D01*
X99062551Y-61589452D01*
X99060000Y-61600395D01*
X99060000Y-64129605D01*
X99062551Y-64140547D01*
X99073780Y-64140179D01*
X99251092Y-64092669D01*
X99261234Y-64088977D01*
X99457580Y-63997420D01*
X99466912Y-63992032D01*
X99644381Y-63867767D01*
X99652647Y-63860830D01*
X99805830Y-63707647D01*
X99812767Y-63699381D01*
X99937032Y-63521912D01*
X99942417Y-63512585D01*
X99967341Y-63459135D01*
X100013098Y-63406959D01*
X100079723Y-63387539D01*
X100146349Y-63406958D01*
X100192106Y-63459134D01*
X100217141Y-63512823D01*
X100217144Y-63512828D01*
X100219432Y-63517734D01*
X100349953Y-63704139D01*
X100510861Y-63865047D01*
X100697266Y-63995568D01*
X100903504Y-64091739D01*
X100908734Y-64093140D01*
X100908736Y-64093141D01*
X101084285Y-64140179D01*
X101123308Y-64150635D01*
X101350000Y-64170468D01*
X101576692Y-64150635D01*
X101796496Y-64091739D01*
X102002734Y-63995568D01*
X102189139Y-63865047D01*
X102350047Y-63704139D01*
X102480568Y-63517734D01*
X102507618Y-63459724D01*
X102553375Y-63407549D01*
X102620000Y-63388130D01*
X102686625Y-63407549D01*
X102732381Y-63459724D01*
X102759432Y-63517734D01*
X102889953Y-63704139D01*
X103050861Y-63865047D01*
X103237266Y-63995568D01*
X103443504Y-64091739D01*
X103448734Y-64093140D01*
X103448736Y-64093141D01*
X103624285Y-64140179D01*
X103663308Y-64150635D01*
X103890000Y-64170468D01*
X104116692Y-64150635D01*
X104336496Y-64091739D01*
X104542734Y-63995568D01*
X104729139Y-63865047D01*
X104890047Y-63704139D01*
X105020568Y-63517734D01*
X105047618Y-63459724D01*
X105093375Y-63407549D01*
X105160000Y-63388130D01*
X105226625Y-63407549D01*
X105272381Y-63459724D01*
X105299432Y-63517734D01*
X105429953Y-63704139D01*
X105590861Y-63865047D01*
X105777266Y-63995568D01*
X105983504Y-64091739D01*
X105988734Y-64093140D01*
X105988736Y-64093141D01*
X106164285Y-64140179D01*
X106203308Y-64150635D01*
X106430000Y-64170468D01*
X106656692Y-64150635D01*
X106876496Y-64091739D01*
X107082734Y-63995568D01*
X107269139Y-63865047D01*
X107430047Y-63704139D01*
X107560568Y-63517734D01*
X107587618Y-63459724D01*
X107633375Y-63407549D01*
X107700000Y-63388130D01*
X107766625Y-63407549D01*
X107812381Y-63459724D01*
X107839432Y-63517734D01*
X107969953Y-63704139D01*
X108130861Y-63865047D01*
X108317266Y-63995568D01*
X108523504Y-64091739D01*
X108528734Y-64093140D01*
X108528736Y-64093141D01*
X108704285Y-64140179D01*
X108743308Y-64150635D01*
X108970000Y-64170468D01*
X109196692Y-64150635D01*
X109416496Y-64091739D01*
X109622734Y-63995568D01*
X109809139Y-63865047D01*
X109970047Y-63704139D01*
X110100568Y-63517734D01*
X110127618Y-63459724D01*
X110173375Y-63407549D01*
X110240000Y-63388130D01*
X110306625Y-63407549D01*
X110352381Y-63459724D01*
X110379432Y-63517734D01*
X110509953Y-63704139D01*
X110670861Y-63865047D01*
X110857266Y-63995568D01*
X111063504Y-64091739D01*
X111068734Y-64093140D01*
X111068736Y-64093141D01*
X111244285Y-64140179D01*
X111283308Y-64150635D01*
X111510000Y-64170468D01*
X111736692Y-64150635D01*
X111956496Y-64091739D01*
X112162734Y-63995568D01*
X112349139Y-63865047D01*
X112510047Y-63704139D01*
X112640568Y-63517734D01*
X112667618Y-63459724D01*
X112713375Y-63407549D01*
X112780000Y-63388130D01*
X112846625Y-63407549D01*
X112892381Y-63459724D01*
X112919432Y-63517734D01*
X113049953Y-63704139D01*
X113210861Y-63865047D01*
X113397266Y-63995568D01*
X113603504Y-64091739D01*
X113608734Y-64093140D01*
X113608736Y-64093141D01*
X113784285Y-64140179D01*
X113823308Y-64150635D01*
X114050000Y-64170468D01*
X114276692Y-64150635D01*
X114496496Y-64091739D01*
X114702734Y-63995568D01*
X114889139Y-63865047D01*
X115050047Y-63704139D01*
X115180568Y-63517734D01*
X115276739Y-63311496D01*
X115335635Y-63091692D01*
X115355468Y-62865000D01*
X115335635Y-62638308D01*
X115276739Y-62418504D01*
X115180568Y-62212266D01*
X115050047Y-62025861D01*
X114889139Y-61864953D01*
X114702734Y-61734432D01*
X114496496Y-61638261D01*
X114491271Y-61636861D01*
X114491263Y-61636858D01*
X114281916Y-61580764D01*
X114281907Y-61580762D01*
X114276692Y-61579365D01*
X114271304Y-61578893D01*
X114271301Y-61578893D01*
X114055395Y-61560004D01*
X114050000Y-61559532D01*
X114044605Y-61560004D01*
X113828698Y-61578893D01*
X113828693Y-61578893D01*
X113823308Y-61579365D01*
X113818094Y-61580762D01*
X113818083Y-61580764D01*
X113608736Y-61636858D01*
X113608724Y-61636862D01*
X113603504Y-61638261D01*
X113598599Y-61640547D01*
X113598594Y-61640550D01*
X113402176Y-61732142D01*
X113402172Y-61732144D01*
X113397266Y-61734432D01*
X113392833Y-61737535D01*
X113392826Y-61737540D01*
X113215296Y-61861847D01*
X113215291Y-61861850D01*
X113210861Y-61864953D01*
X113207037Y-61868776D01*
X113207031Y-61868782D01*
X113053782Y-62022031D01*
X113053776Y-62022037D01*
X113049953Y-62025861D01*
X113046850Y-62030291D01*
X113046847Y-62030296D01*
X112922540Y-62207826D01*
X112922535Y-62207833D01*
X112919432Y-62212266D01*
X112917148Y-62217163D01*
X112917141Y-62217176D01*
X112892382Y-62270274D01*
X112846625Y-62322450D01*
X112780000Y-62341869D01*
X112713375Y-62322450D01*
X112667618Y-62270274D01*
X112642858Y-62217176D01*
X112642855Y-62217172D01*
X112640568Y-62212266D01*
X112510047Y-62025861D01*
X112349139Y-61864953D01*
X112162734Y-61734432D01*
X111956496Y-61638261D01*
X111951271Y-61636861D01*
X111951263Y-61636858D01*
X111741916Y-61580764D01*
X111741907Y-61580762D01*
X111736692Y-61579365D01*
X111731304Y-61578893D01*
X111731301Y-61578893D01*
X111515395Y-61560004D01*
X111510000Y-61559532D01*
X111504605Y-61560004D01*
X111288698Y-61578893D01*
X111288693Y-61578893D01*
X111283308Y-61579365D01*
X111278094Y-61580762D01*
X111278083Y-61580764D01*
X111068736Y-61636858D01*
X111068724Y-61636862D01*
X111063504Y-61638261D01*
X111058599Y-61640547D01*
X111058594Y-61640550D01*
X110862176Y-61732142D01*
X110862172Y-61732144D01*
X110857266Y-61734432D01*
X110852833Y-61737535D01*
X110852826Y-61737540D01*
X110675296Y-61861847D01*
X110675291Y-61861850D01*
X110670861Y-61864953D01*
X110667037Y-61868776D01*
X110667031Y-61868782D01*
X110513782Y-62022031D01*
X110513776Y-62022037D01*
X110509953Y-62025861D01*
X110506850Y-62030291D01*
X110506847Y-62030296D01*
X110382540Y-62207826D01*
X110382535Y-62207833D01*
X110379432Y-62212266D01*
X110377148Y-62217163D01*
X110377141Y-62217176D01*
X110352382Y-62270274D01*
X110306625Y-62322450D01*
X110240000Y-62341869D01*
X110173375Y-62322450D01*
X110127618Y-62270274D01*
X110102858Y-62217176D01*
X110102855Y-62217172D01*
X110100568Y-62212266D01*
X109970047Y-62025861D01*
X109809139Y-61864953D01*
X109648377Y-61752387D01*
X109609511Y-61708069D01*
X109595500Y-61650812D01*
X109595500Y-57598831D01*
X109611246Y-57538357D01*
X109654486Y-57493241D01*
X109714237Y-57474943D01*
X109775324Y-57488107D01*
X109965926Y-57584207D01*
X110193877Y-57654016D01*
X110430346Y-57684298D01*
X110668532Y-57674180D01*
X110901581Y-57623954D01*
X111122790Y-57535064D01*
X111127271Y-57532304D01*
X111131980Y-57529931D01*
X111132630Y-57531220D01*
X111176428Y-57516250D01*
X111230890Y-57522627D01*
X111277278Y-57551868D01*
X115797707Y-62072297D01*
X115805156Y-62080483D01*
X115809214Y-62086877D01*
X115814899Y-62092215D01*
X115814901Y-62092218D01*
X115858239Y-62132915D01*
X115861035Y-62135625D01*
X115880530Y-62155120D01*
X115883615Y-62157513D01*
X115883701Y-62157580D01*
X115892573Y-62165158D01*
X115924418Y-62195062D01*
X115931248Y-62198817D01*
X115931251Y-62198819D01*
X115941971Y-62204712D01*
X115958222Y-62215386D01*
X115974064Y-62227674D01*
X115981221Y-62230771D01*
X115981223Y-62230772D01*
X116014155Y-62245022D01*
X116024650Y-62250164D01*
X116062908Y-62271197D01*
X116082312Y-62276179D01*
X116100714Y-62282480D01*
X116111941Y-62287338D01*
X116119105Y-62290438D01*
X116156697Y-62296391D01*
X116162239Y-62297269D01*
X116173682Y-62299639D01*
X116208425Y-62308560D01*
X116208426Y-62308560D01*
X116215981Y-62310500D01*
X116236017Y-62310500D01*
X116255402Y-62312025D01*
X116275196Y-62315160D01*
X116313276Y-62311560D01*
X116318676Y-62311050D01*
X116330345Y-62310500D01*
X116750601Y-62310500D01*
X116805445Y-62323288D01*
X116848977Y-62359014D01*
X116872218Y-62410309D01*
X116870376Y-62466591D01*
X116824365Y-62638308D01*
X116804532Y-62865000D01*
X116824365Y-63091692D01*
X116825762Y-63096907D01*
X116825764Y-63096916D01*
X116881858Y-63306263D01*
X116881861Y-63306271D01*
X116883261Y-63311496D01*
X116979432Y-63517734D01*
X117109953Y-63704139D01*
X117270861Y-63865047D01*
X117457266Y-63995568D01*
X117663504Y-64091739D01*
X117668734Y-64093140D01*
X117668736Y-64093141D01*
X117844285Y-64140179D01*
X117883308Y-64150635D01*
X118110000Y-64170468D01*
X118336692Y-64150635D01*
X118556496Y-64091739D01*
X118762734Y-63995568D01*
X118949139Y-63865047D01*
X119110047Y-63704139D01*
X119240568Y-63517734D01*
X119267618Y-63459724D01*
X119313375Y-63407549D01*
X119380000Y-63388130D01*
X119446625Y-63407549D01*
X119492381Y-63459724D01*
X119519432Y-63517734D01*
X119649953Y-63704139D01*
X119810861Y-63865047D01*
X119997266Y-63995568D01*
X120203504Y-64091739D01*
X120208734Y-64093140D01*
X120208736Y-64093141D01*
X120384285Y-64140179D01*
X120423308Y-64150635D01*
X120650000Y-64170468D01*
X120876692Y-64150635D01*
X121096496Y-64091739D01*
X121302734Y-63995568D01*
X121489139Y-63865047D01*
X121650047Y-63704139D01*
X121780568Y-63517734D01*
X121807618Y-63459724D01*
X121853375Y-63407549D01*
X121920000Y-63388130D01*
X121986625Y-63407549D01*
X122032381Y-63459724D01*
X122059432Y-63517734D01*
X122189953Y-63704139D01*
X122350861Y-63865047D01*
X122537266Y-63995568D01*
X122743504Y-64091739D01*
X122748734Y-64093140D01*
X122748736Y-64093141D01*
X122924285Y-64140179D01*
X122963308Y-64150635D01*
X123190000Y-64170468D01*
X123416692Y-64150635D01*
X123636496Y-64091739D01*
X123842734Y-63995568D01*
X124029139Y-63865047D01*
X124190047Y-63704139D01*
X124320568Y-63517734D01*
X124347618Y-63459724D01*
X124393375Y-63407549D01*
X124460000Y-63388130D01*
X124526625Y-63407549D01*
X124572381Y-63459724D01*
X124599432Y-63517734D01*
X124729953Y-63704139D01*
X124890861Y-63865047D01*
X125077266Y-63995568D01*
X125283504Y-64091739D01*
X125288734Y-64093140D01*
X125288736Y-64093141D01*
X125464285Y-64140179D01*
X125503308Y-64150635D01*
X125730000Y-64170468D01*
X125956692Y-64150635D01*
X126176496Y-64091739D01*
X126382734Y-63995568D01*
X126569139Y-63865047D01*
X126730047Y-63704139D01*
X126860568Y-63517734D01*
X126887618Y-63459724D01*
X126933375Y-63407549D01*
X127000000Y-63388130D01*
X127066625Y-63407549D01*
X127112381Y-63459724D01*
X127139432Y-63517734D01*
X127269953Y-63704139D01*
X127430861Y-63865047D01*
X127480500Y-63899804D01*
X127591623Y-63977613D01*
X127630489Y-64021931D01*
X127644500Y-64079188D01*
X127644500Y-69052225D01*
X127643978Y-69063280D01*
X127642327Y-69070667D01*
X127642571Y-69078453D01*
X127642571Y-69078461D01*
X127644439Y-69137873D01*
X127644500Y-69141768D01*
X127644500Y-69169350D01*
X127644988Y-69173219D01*
X127644989Y-69173225D01*
X127645004Y-69173343D01*
X127645918Y-69184966D01*
X127647045Y-69220830D01*
X127647046Y-69220837D01*
X127647291Y-69228627D01*
X127649467Y-69236119D01*
X127649468Y-69236121D01*
X127652879Y-69247862D01*
X127656825Y-69266915D01*
X127659336Y-69286792D01*
X127662206Y-69294042D01*
X127662208Y-69294048D01*
X127675414Y-69327404D01*
X127679197Y-69338451D01*
X127691382Y-69380390D01*
X127695353Y-69387105D01*
X127695354Y-69387107D01*
X127701581Y-69397637D01*
X127710136Y-69415099D01*
X127714642Y-69426480D01*
X127714643Y-69426483D01*
X127717514Y-69433732D01*
X127739440Y-69463912D01*
X127743181Y-69469060D01*
X127749593Y-69478822D01*
X127767856Y-69509702D01*
X127767859Y-69509707D01*
X127771830Y-69516420D01*
X127777344Y-69521934D01*
X127777345Y-69521935D01*
X127785990Y-69530580D01*
X127798626Y-69545374D01*
X127805819Y-69555275D01*
X127805823Y-69555279D01*
X127810406Y-69561587D01*
X127816415Y-69566558D01*
X127816416Y-69566559D01*
X127844058Y-69589426D01*
X127852699Y-69597289D01*
X135843181Y-77587771D01*
X135870061Y-77627999D01*
X135879500Y-77675452D01*
X135879500Y-78984560D01*
X135879500Y-78984578D01*
X135879501Y-78987872D01*
X135879853Y-78991150D01*
X135879854Y-78991161D01*
X135885079Y-79039768D01*
X135885080Y-79039773D01*
X135885909Y-79047483D01*
X135888619Y-79054749D01*
X135888620Y-79054753D01*
X135922217Y-79144831D01*
X135936204Y-79182331D01*
X136022454Y-79297546D01*
X136137669Y-79383796D01*
X136272517Y-79434091D01*
X136332127Y-79440500D01*
X138127872Y-79440499D01*
X138187483Y-79434091D01*
X138322331Y-79383796D01*
X138437546Y-79297546D01*
X138523796Y-79182331D01*
X138574091Y-79047483D01*
X138580500Y-78987873D01*
X138580499Y-78274449D01*
X138594014Y-78218156D01*
X138631614Y-78174133D01*
X138685101Y-78151978D01*
X138742817Y-78156520D01*
X138792179Y-78186769D01*
X139895858Y-79290449D01*
X140943181Y-80337772D01*
X140970061Y-80378000D01*
X140979500Y-80425453D01*
X140979500Y-92309547D01*
X140970061Y-92357000D01*
X140943181Y-92397228D01*
X140224412Y-93115995D01*
X140209622Y-93128628D01*
X140199725Y-93135819D01*
X140199720Y-93135822D01*
X140193413Y-93140406D01*
X140188444Y-93146412D01*
X140188439Y-93146417D01*
X140165572Y-93174057D01*
X140157743Y-93182663D01*
X140154904Y-93185504D01*
X140154898Y-93185498D01*
X140154880Y-93185529D01*
X140154876Y-93185533D01*
X128753519Y-104586888D01*
X128693788Y-104620016D01*
X128625577Y-104616489D01*
X128604831Y-104609367D01*
X128604830Y-104609366D01*
X128599981Y-104607702D01*
X128594931Y-104606859D01*
X128594922Y-104606857D01*
X128376111Y-104570344D01*
X128376102Y-104570343D01*
X128371049Y-104569500D01*
X128138951Y-104569500D01*
X128133898Y-104570343D01*
X128133888Y-104570344D01*
X127915077Y-104606857D01*
X127915065Y-104606859D01*
X127910019Y-104607702D01*
X127905169Y-104609366D01*
X127905165Y-104609368D01*
X127695345Y-104681399D01*
X127695337Y-104681402D01*
X127690497Y-104683064D01*
X127686001Y-104685496D01*
X127685992Y-104685501D01*
X127490882Y-104791090D01*
X127490878Y-104791092D01*
X127486374Y-104793530D01*
X127482334Y-104796674D01*
X127482327Y-104796679D01*
X127307263Y-104932936D01*
X127307255Y-104932943D01*
X127303216Y-104936087D01*
X127299746Y-104939855D01*
X127299742Y-104939860D01*
X127149491Y-105103077D01*
X127149488Y-105103080D01*
X127146021Y-105106847D01*
X127143226Y-105111124D01*
X127143219Y-105111134D01*
X127043302Y-105264070D01*
X127019076Y-105301151D01*
X127017021Y-105305835D01*
X127017016Y-105305845D01*
X126927903Y-105509003D01*
X126925843Y-105513700D01*
X126924585Y-105518665D01*
X126924584Y-105518670D01*
X126870125Y-105733720D01*
X126870123Y-105733729D01*
X126868866Y-105738695D01*
X126868442Y-105743802D01*
X126868441Y-105743813D01*
X126850200Y-105963955D01*
X126849700Y-105970000D01*
X126850124Y-105975117D01*
X126868441Y-106196186D01*
X126868442Y-106196195D01*
X126868866Y-106201305D01*
X126870123Y-106206272D01*
X126870125Y-106206279D01*
X126924543Y-106421166D01*
X126925843Y-106426300D01*
X126927903Y-106430996D01*
X127017016Y-106634154D01*
X127017019Y-106634159D01*
X127019076Y-106638849D01*
X127052106Y-106689405D01*
X127143219Y-106828865D01*
X127143222Y-106828869D01*
X127146021Y-106833153D01*
X127303216Y-107003913D01*
X127307262Y-107007062D01*
X127307263Y-107007063D01*
X127307812Y-107007490D01*
X127486374Y-107146470D01*
X127690497Y-107256936D01*
X127910019Y-107332298D01*
X128138951Y-107370500D01*
X128365916Y-107370500D01*
X128371049Y-107370500D01*
X128599981Y-107332298D01*
X128819503Y-107256936D01*
X129023626Y-107146470D01*
X129206784Y-107003913D01*
X129363979Y-106833153D01*
X129390539Y-106792500D01*
X129421191Y-106745584D01*
X129465982Y-106704350D01*
X129525000Y-106689405D01*
X129584018Y-106704350D01*
X129628809Y-106745584D01*
X129683215Y-106828860D01*
X129683222Y-106828869D01*
X129686021Y-106833153D01*
X129843216Y-107003913D01*
X129847262Y-107007062D01*
X129847263Y-107007063D01*
X129847812Y-107007490D01*
X130026374Y-107146470D01*
X130230497Y-107256936D01*
X130450019Y-107332298D01*
X130678951Y-107370500D01*
X130905916Y-107370500D01*
X130911049Y-107370500D01*
X131139981Y-107332298D01*
X131359503Y-107256936D01*
X131563626Y-107146470D01*
X131595077Y-107121991D01*
X132542006Y-107121991D01*
X132550113Y-107133181D01*
X132562602Y-107142901D01*
X132571151Y-107148487D01*
X132766194Y-107254039D01*
X132775547Y-107258141D01*
X132985290Y-107330146D01*
X132995199Y-107332655D01*
X133213929Y-107369155D01*
X133224127Y-107370000D01*
X133445873Y-107370000D01*
X133456070Y-107369155D01*
X133674800Y-107332655D01*
X133684709Y-107330146D01*
X133894452Y-107258141D01*
X133903805Y-107254039D01*
X134098845Y-107148488D01*
X134107397Y-107142901D01*
X134119888Y-107133179D01*
X134127992Y-107121992D01*
X134121331Y-107109884D01*
X133346542Y-106335095D01*
X133334999Y-106328431D01*
X133323457Y-106335095D01*
X132548666Y-107109885D01*
X132542006Y-107121991D01*
X131595077Y-107121991D01*
X131746784Y-107003913D01*
X131903979Y-106833153D01*
X131961489Y-106745126D01*
X132006280Y-106703894D01*
X132065297Y-106688948D01*
X132124314Y-106703893D01*
X132169106Y-106745125D01*
X132176245Y-106756051D01*
X132184212Y-106763776D01*
X132193592Y-106757853D01*
X132969904Y-105981542D01*
X132976568Y-105970000D01*
X133693431Y-105970000D01*
X133700095Y-105981542D01*
X134476405Y-106757852D01*
X134485786Y-106763776D01*
X134493754Y-106756051D01*
X134567675Y-106642906D01*
X134572543Y-106633911D01*
X134661621Y-106430833D01*
X134664940Y-106421166D01*
X134719378Y-106206196D01*
X134721062Y-106196102D01*
X134739374Y-105975117D01*
X134739374Y-105964883D01*
X134721062Y-105743897D01*
X134719378Y-105733803D01*
X134664940Y-105518833D01*
X134661621Y-105509166D01*
X134572543Y-105306086D01*
X134567678Y-105297096D01*
X134493753Y-105183947D01*
X134485786Y-105176222D01*
X134476405Y-105182146D01*
X133700095Y-105958457D01*
X133693431Y-105970000D01*
X132976568Y-105970000D01*
X132969904Y-105958457D01*
X132193592Y-105182145D01*
X132184212Y-105176222D01*
X132176245Y-105183946D01*
X132169106Y-105194874D01*
X132124314Y-105236106D01*
X132065297Y-105251051D01*
X132006280Y-105236105D01*
X131961489Y-105194872D01*
X131906784Y-105111139D01*
X131906778Y-105111131D01*
X131903979Y-105106847D01*
X131746784Y-104936087D01*
X131649876Y-104860661D01*
X131595073Y-104818006D01*
X132542007Y-104818006D01*
X132548667Y-104830114D01*
X133323457Y-105604904D01*
X133335000Y-105611568D01*
X133346542Y-105604904D01*
X134121332Y-104830113D01*
X134127992Y-104818007D01*
X134119886Y-104806818D01*
X134107394Y-104797096D01*
X134098847Y-104791512D01*
X133903805Y-104685960D01*
X133894452Y-104681858D01*
X133684709Y-104609853D01*
X133674800Y-104607344D01*
X133456070Y-104570844D01*
X133445873Y-104570000D01*
X133224127Y-104570000D01*
X133213929Y-104570844D01*
X132995199Y-104607344D01*
X132985290Y-104609853D01*
X132775547Y-104681858D01*
X132766194Y-104685960D01*
X132571156Y-104791510D01*
X132562600Y-104797100D01*
X132550112Y-104806818D01*
X132542007Y-104818006D01*
X131595073Y-104818006D01*
X131567672Y-104796679D01*
X131567671Y-104796678D01*
X131563626Y-104793530D01*
X131509497Y-104764237D01*
X131364007Y-104685501D01*
X131364002Y-104685499D01*
X131359503Y-104683064D01*
X131354657Y-104681400D01*
X131354654Y-104681399D01*
X131144834Y-104609368D01*
X131144833Y-104609367D01*
X131139981Y-104607702D01*
X131134931Y-104606859D01*
X131134922Y-104606857D01*
X130916111Y-104570344D01*
X130916102Y-104570343D01*
X130911049Y-104569500D01*
X130839451Y-104569500D01*
X130783156Y-104555985D01*
X130739133Y-104518385D01*
X130716978Y-104464898D01*
X130721520Y-104407182D01*
X130751770Y-104357819D01*
X135790914Y-99318676D01*
X140847770Y-94261819D01*
X140887999Y-94234939D01*
X140935452Y-94225500D01*
X144903481Y-94225500D01*
X144950934Y-94234939D01*
X144991162Y-94261819D01*
X145066662Y-94337319D01*
X145098756Y-94392906D01*
X145098756Y-94457094D01*
X145066662Y-94512681D01*
X144969831Y-94609511D01*
X144969827Y-94609515D01*
X144964528Y-94614815D01*
X144960651Y-94621227D01*
X144960648Y-94621232D01*
X144880400Y-94753978D01*
X144880398Y-94753982D01*
X144876522Y-94760394D01*
X144874292Y-94767548D01*
X144874292Y-94767550D01*
X144827864Y-94916542D01*
X144827861Y-94916553D01*
X144825914Y-94922804D01*
X144819500Y-94993384D01*
X144819500Y-95506616D01*
X144825914Y-95577196D01*
X144827862Y-95583448D01*
X144827864Y-95583457D01*
X144867452Y-95710500D01*
X144876522Y-95739606D01*
X144964528Y-95885185D01*
X145084815Y-96005472D01*
X145230394Y-96093478D01*
X145237550Y-96095707D01*
X145237557Y-96095711D01*
X145337390Y-96126820D01*
X145382727Y-96152390D01*
X145413576Y-96194314D01*
X145424500Y-96245205D01*
X145424500Y-97395899D01*
X145405494Y-97461871D01*
X145354301Y-97507619D01*
X145201556Y-97581176D01*
X145201543Y-97581183D01*
X145197366Y-97583195D01*
X144986783Y-97726768D01*
X144983391Y-97729914D01*
X144983385Y-97729920D01*
X144862346Y-97842228D01*
X144799950Y-97900123D01*
X144797060Y-97903745D01*
X144797057Y-97903750D01*
X144643933Y-98095761D01*
X144641041Y-98099388D01*
X144638722Y-98103403D01*
X144638721Y-98103406D01*
X144515928Y-98316091D01*
X144515925Y-98316096D01*
X144513607Y-98320112D01*
X144511913Y-98324426D01*
X144511911Y-98324432D01*
X144422189Y-98553038D01*
X144420492Y-98557363D01*
X144419459Y-98561884D01*
X144419458Y-98561891D01*
X144364809Y-98801323D01*
X144364807Y-98801331D01*
X144363778Y-98805843D01*
X144363431Y-98810462D01*
X144363431Y-98810468D01*
X144346605Y-99035004D01*
X144344732Y-99060000D01*
X144345079Y-99064630D01*
X144345079Y-99064631D01*
X144353425Y-99176008D01*
X144346027Y-99228410D01*
X144317453Y-99272955D01*
X133764821Y-109825586D01*
X133709234Y-109857680D01*
X133645048Y-109857680D01*
X133581920Y-109840765D01*
X133581911Y-109840763D01*
X133576692Y-109839365D01*
X133571304Y-109838893D01*
X133571301Y-109838893D01*
X133355395Y-109820004D01*
X133350000Y-109819532D01*
X133344605Y-109820004D01*
X133128698Y-109838893D01*
X133128693Y-109838893D01*
X133123308Y-109839365D01*
X133118094Y-109840762D01*
X133118083Y-109840764D01*
X132908736Y-109896858D01*
X132908724Y-109896862D01*
X132903504Y-109898261D01*
X132898599Y-109900547D01*
X132898594Y-109900550D01*
X132702176Y-109992142D01*
X132702172Y-109992144D01*
X132697266Y-109994432D01*
X132692833Y-109997535D01*
X132692826Y-109997540D01*
X132515296Y-110121847D01*
X132515291Y-110121850D01*
X132510861Y-110124953D01*
X132507037Y-110128776D01*
X132507031Y-110128782D01*
X132353782Y-110282031D01*
X132353776Y-110282037D01*
X132349953Y-110285861D01*
X132346850Y-110290291D01*
X132346847Y-110290296D01*
X132222540Y-110467826D01*
X132222535Y-110467833D01*
X132219432Y-110472266D01*
X132217148Y-110477163D01*
X132217141Y-110477176D01*
X132192382Y-110530274D01*
X132146625Y-110582450D01*
X132080000Y-110601869D01*
X132013375Y-110582450D01*
X131967618Y-110530274D01*
X131942858Y-110477176D01*
X131942855Y-110477172D01*
X131940568Y-110472266D01*
X131810047Y-110285861D01*
X131649139Y-110124953D01*
X131462734Y-109994432D01*
X131314683Y-109925394D01*
X131261405Y-109900550D01*
X131261403Y-109900549D01*
X131256496Y-109898261D01*
X131251271Y-109896861D01*
X131251263Y-109896858D01*
X131041916Y-109840764D01*
X131041907Y-109840762D01*
X131036692Y-109839365D01*
X131031304Y-109838893D01*
X131031301Y-109838893D01*
X130815395Y-109820004D01*
X130810000Y-109819532D01*
X130804605Y-109820004D01*
X130588698Y-109838893D01*
X130588693Y-109838893D01*
X130583308Y-109839365D01*
X130578094Y-109840762D01*
X130578083Y-109840764D01*
X130368736Y-109896858D01*
X130368724Y-109896862D01*
X130363504Y-109898261D01*
X130358599Y-109900547D01*
X130358594Y-109900550D01*
X130162176Y-109992142D01*
X130162172Y-109992144D01*
X130157266Y-109994432D01*
X130152833Y-109997535D01*
X130152826Y-109997540D01*
X129975296Y-110121847D01*
X129975291Y-110121850D01*
X129970861Y-110124953D01*
X129967037Y-110128776D01*
X129967031Y-110128782D01*
X129813782Y-110282031D01*
X129813776Y-110282037D01*
X129809953Y-110285861D01*
X129806850Y-110290291D01*
X129806847Y-110290296D01*
X129682540Y-110467826D01*
X129682535Y-110467833D01*
X129679432Y-110472266D01*
X129670594Y-110491219D01*
X129652106Y-110530866D01*
X129606348Y-110583041D01*
X129539723Y-110602460D01*
X129473098Y-110583040D01*
X129427342Y-110530864D01*
X129402422Y-110477423D01*
X129397032Y-110468087D01*
X129272767Y-110290618D01*
X129265830Y-110282352D01*
X129112647Y-110129169D01*
X129104381Y-110122232D01*
X128926912Y-109997967D01*
X128917580Y-109992579D01*
X128721234Y-109901022D01*
X128711092Y-109897330D01*
X128533780Y-109849820D01*
X128522551Y-109849452D01*
X128520000Y-109860395D01*
X128520000Y-111251000D01*
X128503387Y-111313000D01*
X128458000Y-111358387D01*
X128396000Y-111375000D01*
X128144000Y-111375000D01*
X128082000Y-111358387D01*
X128036613Y-111313000D01*
X128020000Y-111251000D01*
X128020000Y-109860395D01*
X128017448Y-109849452D01*
X128006219Y-109849820D01*
X127828907Y-109897330D01*
X127818765Y-109901022D01*
X127622419Y-109992579D01*
X127613087Y-109997967D01*
X127435618Y-110122232D01*
X127427352Y-110129169D01*
X127274169Y-110282352D01*
X127267232Y-110290618D01*
X127142967Y-110468087D01*
X127137581Y-110477416D01*
X127112657Y-110530866D01*
X127066899Y-110583041D01*
X127000274Y-110602460D01*
X126933649Y-110583040D01*
X126887893Y-110530864D01*
X126862860Y-110477180D01*
X126862856Y-110477173D01*
X126860568Y-110472266D01*
X126730047Y-110285861D01*
X126569139Y-110124953D01*
X126382734Y-109994432D01*
X126234683Y-109925394D01*
X126181405Y-109900550D01*
X126181403Y-109900549D01*
X126176496Y-109898261D01*
X126171271Y-109896861D01*
X126171263Y-109896858D01*
X125961916Y-109840764D01*
X125961907Y-109840762D01*
X125956692Y-109839365D01*
X125951304Y-109838893D01*
X125951301Y-109838893D01*
X125735395Y-109820004D01*
X125730000Y-109819532D01*
X125724605Y-109820004D01*
X125508698Y-109838893D01*
X125508693Y-109838893D01*
X125503308Y-109839365D01*
X125498090Y-109840762D01*
X125498079Y-109840765D01*
X125434950Y-109857680D01*
X125370763Y-109857680D01*
X125315177Y-109825586D01*
X115902286Y-100412695D01*
X115894842Y-100404514D01*
X115890786Y-100398123D01*
X115841775Y-100352098D01*
X115838978Y-100349387D01*
X115822227Y-100332636D01*
X115822226Y-100332635D01*
X115819471Y-100329880D01*
X115816290Y-100327412D01*
X115807414Y-100319830D01*
X115781269Y-100295278D01*
X115781267Y-100295276D01*
X115775582Y-100289938D01*
X115768749Y-100286182D01*
X115768743Y-100286177D01*
X115758025Y-100280285D01*
X115741766Y-100269606D01*
X115732095Y-100262104D01*
X115732092Y-100262102D01*
X115725936Y-100257327D01*
X115718779Y-100254229D01*
X115718776Y-100254228D01*
X115685849Y-100239978D01*
X115675363Y-100234841D01*
X115643932Y-100217562D01*
X115643923Y-100217558D01*
X115637092Y-100213803D01*
X115629535Y-100211862D01*
X115629531Y-100211861D01*
X115617688Y-100208820D01*
X115599284Y-100202519D01*
X115588057Y-100197660D01*
X115588050Y-100197658D01*
X115580896Y-100194562D01*
X115573192Y-100193341D01*
X115573190Y-100193341D01*
X115537759Y-100187729D01*
X115526324Y-100185361D01*
X115491571Y-100176438D01*
X115491563Y-100176437D01*
X115484019Y-100174500D01*
X115476223Y-100174500D01*
X115463983Y-100174500D01*
X115444597Y-100172974D01*
X115424804Y-100169840D01*
X115417038Y-100170574D01*
X115417035Y-100170574D01*
X115381324Y-100173950D01*
X115369655Y-100174500D01*
X91542775Y-100174500D01*
X91531719Y-100173978D01*
X91524333Y-100172327D01*
X91516545Y-100172571D01*
X91516538Y-100172571D01*
X91457127Y-100174439D01*
X91453232Y-100174500D01*
X91425650Y-100174500D01*
X91421805Y-100174985D01*
X91421780Y-100174987D01*
X91421653Y-100175004D01*
X91410034Y-100175918D01*
X91374172Y-100177045D01*
X91374165Y-100177046D01*
X91366373Y-100177291D01*
X91358888Y-100179465D01*
X91358872Y-100179468D01*
X91347126Y-100182881D01*
X91328083Y-100186825D01*
X91315949Y-100188358D01*
X91315948Y-100188358D01*
X91308208Y-100189336D01*
X91300958Y-100192205D01*
X91300951Y-100192208D01*
X91267598Y-100205413D01*
X91256554Y-100209194D01*
X91222101Y-100219204D01*
X91222090Y-100219208D01*
X91214610Y-100221382D01*
X91207898Y-100225351D01*
X91207896Y-100225352D01*
X91197364Y-100231580D01*
X91179904Y-100240134D01*
X91168519Y-100244642D01*
X91168513Y-100244644D01*
X91161268Y-100247514D01*
X91154963Y-100252094D01*
X91154955Y-100252099D01*
X91125932Y-100273185D01*
X91116174Y-100279595D01*
X91085296Y-100297857D01*
X91085290Y-100297861D01*
X91078580Y-100301830D01*
X91073067Y-100307341D01*
X91073060Y-100307348D01*
X91064410Y-100315998D01*
X91049627Y-100328624D01*
X91039726Y-100335817D01*
X91039716Y-100335826D01*
X91033413Y-100340406D01*
X91028444Y-100346411D01*
X91028441Y-100346415D01*
X91005572Y-100374059D01*
X90997711Y-100382697D01*
X90792227Y-100588181D01*
X90751999Y-100615061D01*
X90704546Y-100624500D01*
X90394805Y-100624500D01*
X90394785Y-100624500D01*
X90391656Y-100624501D01*
X90388524Y-100624820D01*
X90388522Y-100624821D01*
X90299027Y-100633962D01*
X90299017Y-100633963D01*
X90292292Y-100634651D01*
X90285870Y-100636778D01*
X90285865Y-100636780D01*
X90138158Y-100685725D01*
X90138154Y-100685726D01*
X90131303Y-100687997D01*
X90125159Y-100691786D01*
X90125154Y-100691789D01*
X89993107Y-100773237D01*
X89993101Y-100773241D01*
X89986956Y-100777032D01*
X89981849Y-100782138D01*
X89981845Y-100782142D01*
X89872142Y-100891845D01*
X89872138Y-100891849D01*
X89867032Y-100896956D01*
X89863241Y-100903101D01*
X89863237Y-100903107D01*
X89855534Y-100915597D01*
X89810427Y-100958778D01*
X89749996Y-100974500D01*
X89521602Y-100974500D01*
X89460686Y-100958506D01*
X89415485Y-100914649D01*
X89404353Y-100896234D01*
X89404350Y-100896230D01*
X89400472Y-100889815D01*
X89280185Y-100769528D01*
X89179201Y-100708481D01*
X89141021Y-100685400D01*
X89141020Y-100685399D01*
X89134606Y-100681522D01*
X89105500Y-100672452D01*
X88978457Y-100632864D01*
X88978448Y-100632862D01*
X88972196Y-100630914D01*
X88965662Y-100630320D01*
X88965661Y-100630320D01*
X88904425Y-100624755D01*
X88904419Y-100624754D01*
X88901616Y-100624500D01*
X88388384Y-100624500D01*
X88385581Y-100624754D01*
X88385574Y-100624755D01*
X88324338Y-100630320D01*
X88324335Y-100630320D01*
X88317804Y-100630914D01*
X88311553Y-100632861D01*
X88311542Y-100632864D01*
X88162550Y-100679292D01*
X88155394Y-100681522D01*
X88148982Y-100685398D01*
X88148978Y-100685400D01*
X88016232Y-100765648D01*
X88016227Y-100765651D01*
X88009815Y-100769528D01*
X88004515Y-100774827D01*
X88004511Y-100774831D01*
X87907681Y-100871662D01*
X87852094Y-100903756D01*
X87787906Y-100903756D01*
X87732319Y-100871662D01*
X87656819Y-100796162D01*
X87629939Y-100755934D01*
X87620500Y-100708481D01*
X87620500Y-98681519D01*
X87629939Y-98634066D01*
X87656819Y-98593838D01*
X87732319Y-98518338D01*
X87787906Y-98486244D01*
X87852094Y-98486244D01*
X87907680Y-98518337D01*
X88009815Y-98620472D01*
X88155394Y-98708478D01*
X88274859Y-98745704D01*
X88311542Y-98757135D01*
X88311544Y-98757135D01*
X88317804Y-98759086D01*
X88388384Y-98765500D01*
X88522777Y-98765500D01*
X88588487Y-98784342D01*
X88634227Y-98835142D01*
X88646097Y-98902460D01*
X88629540Y-99060000D01*
X88630219Y-99066460D01*
X88648646Y-99241795D01*
X88648647Y-99241803D01*
X88649326Y-99248256D01*
X88651331Y-99254428D01*
X88651333Y-99254435D01*
X88705813Y-99422105D01*
X88707821Y-99428284D01*
X88711068Y-99433908D01*
X88711069Y-99433910D01*
X88785389Y-99562637D01*
X88802467Y-99592216D01*
X88929129Y-99732888D01*
X89082270Y-99844151D01*
X89255197Y-99921144D01*
X89440354Y-99960500D01*
X89623143Y-99960500D01*
X89629646Y-99960500D01*
X89814803Y-99921144D01*
X89987730Y-99844151D01*
X90140871Y-99732888D01*
X90267533Y-99592216D01*
X90362179Y-99428284D01*
X90420674Y-99248256D01*
X90440460Y-99060000D01*
X90420674Y-98871744D01*
X90362179Y-98691716D01*
X90267533Y-98527784D01*
X90140871Y-98387112D01*
X90135613Y-98383291D01*
X90135611Y-98383290D01*
X90069792Y-98335470D01*
X90042786Y-98305789D01*
X90041923Y-98306460D01*
X90037142Y-98300296D01*
X90033170Y-98293580D01*
X90019005Y-98279415D01*
X90006370Y-98264622D01*
X89994594Y-98248413D01*
X89988583Y-98243440D01*
X89988581Y-98243438D01*
X89960941Y-98220573D01*
X89952300Y-98212710D01*
X89581819Y-97842228D01*
X89554939Y-97802000D01*
X89545500Y-97754547D01*
X89545500Y-97461203D01*
X89545500Y-97458384D01*
X89539086Y-97387804D01*
X89488478Y-97225394D01*
X89400472Y-97079815D01*
X89280185Y-96959528D01*
X89134606Y-96871522D01*
X89105500Y-96862452D01*
X88978457Y-96822864D01*
X88978448Y-96822862D01*
X88972196Y-96820914D01*
X88965662Y-96820320D01*
X88965661Y-96820320D01*
X88904425Y-96814755D01*
X88904419Y-96814754D01*
X88901616Y-96814500D01*
X88388384Y-96814500D01*
X88385581Y-96814754D01*
X88385574Y-96814755D01*
X88324338Y-96820320D01*
X88324335Y-96820320D01*
X88317804Y-96820914D01*
X88311553Y-96822861D01*
X88311542Y-96822864D01*
X88162550Y-96869292D01*
X88155394Y-96871522D01*
X88148982Y-96875398D01*
X88148978Y-96875400D01*
X88016232Y-96955648D01*
X88016227Y-96955651D01*
X88009815Y-96959528D01*
X88004515Y-96964827D01*
X88004511Y-96964831D01*
X87907681Y-97061662D01*
X87852094Y-97093756D01*
X87787906Y-97093756D01*
X87732319Y-97061662D01*
X87635488Y-96964831D01*
X87635487Y-96964830D01*
X87630185Y-96959528D01*
X87484606Y-96871522D01*
X87455500Y-96862452D01*
X87328457Y-96822864D01*
X87328448Y-96822862D01*
X87322196Y-96820914D01*
X87315662Y-96820320D01*
X87315661Y-96820320D01*
X87254425Y-96814755D01*
X87254419Y-96814754D01*
X87251616Y-96814500D01*
X86738384Y-96814500D01*
X86735581Y-96814754D01*
X86735574Y-96814755D01*
X86674338Y-96820320D01*
X86674335Y-96820320D01*
X86667804Y-96820914D01*
X86661553Y-96822861D01*
X86661542Y-96822864D01*
X86512550Y-96869292D01*
X86505394Y-96871522D01*
X86498982Y-96875398D01*
X86498978Y-96875400D01*
X86366232Y-96955648D01*
X86366227Y-96955651D01*
X86359815Y-96959528D01*
X86354515Y-96964827D01*
X86354511Y-96964831D01*
X86244831Y-97074511D01*
X86244827Y-97074515D01*
X86239528Y-97079815D01*
X86235651Y-97086227D01*
X86235648Y-97086232D01*
X86155400Y-97218978D01*
X86155398Y-97218982D01*
X86151522Y-97225394D01*
X86149292Y-97232548D01*
X86149292Y-97232550D01*
X86102864Y-97381542D01*
X86102861Y-97381553D01*
X86100914Y-97387804D01*
X86100320Y-97394335D01*
X86100320Y-97394338D01*
X86096150Y-97440232D01*
X86094500Y-97458384D01*
X86094500Y-98121616D01*
X86100914Y-98192196D01*
X86102862Y-98198448D01*
X86102864Y-98198457D01*
X86120398Y-98254724D01*
X86151522Y-98354606D01*
X86155399Y-98361020D01*
X86155400Y-98361021D01*
X86174092Y-98391942D01*
X86239528Y-98500185D01*
X86244831Y-98505488D01*
X86333181Y-98593838D01*
X86360061Y-98634066D01*
X86369500Y-98681519D01*
X86369500Y-100708481D01*
X86360061Y-100755934D01*
X86333181Y-100796162D01*
X86244831Y-100884511D01*
X86244827Y-100884515D01*
X86239528Y-100889815D01*
X86235654Y-100896223D01*
X86235648Y-100896231D01*
X86200334Y-100954650D01*
X86155133Y-100998506D01*
X86094217Y-101014500D01*
X85810149Y-101014500D01*
X85763486Y-101005385D01*
X85723683Y-100979380D01*
X85696593Y-100940310D01*
X85689173Y-100923393D01*
X85683460Y-100914649D01*
X85592113Y-100774831D01*
X85553164Y-100715215D01*
X85525717Y-100685400D01*
X85388215Y-100536032D01*
X85388211Y-100536029D01*
X85384744Y-100532262D01*
X85243649Y-100422443D01*
X85192559Y-100382678D01*
X85192557Y-100382676D01*
X85188509Y-100379526D01*
X85137827Y-100352098D01*
X84974316Y-100263610D01*
X84974310Y-100263607D01*
X84969810Y-100261172D01*
X84964969Y-100259510D01*
X84964962Y-100259507D01*
X84739465Y-100182094D01*
X84739461Y-100182093D01*
X84734614Y-100180429D01*
X84715809Y-100177291D01*
X84494398Y-100140344D01*
X84494387Y-100140343D01*
X84489335Y-100139500D01*
X84240665Y-100139500D01*
X84235613Y-100140343D01*
X84235601Y-100140344D01*
X84000443Y-100179585D01*
X84000441Y-100179585D01*
X83995386Y-100180429D01*
X83990541Y-100182092D01*
X83990534Y-100182094D01*
X83765037Y-100259507D01*
X83765026Y-100259511D01*
X83760190Y-100261172D01*
X83755693Y-100263605D01*
X83755683Y-100263610D01*
X83546002Y-100377084D01*
X83545995Y-100377088D01*
X83541491Y-100379526D01*
X83537448Y-100382672D01*
X83537440Y-100382678D01*
X83349304Y-100529111D01*
X83345256Y-100532262D01*
X83341793Y-100536023D01*
X83341784Y-100536032D01*
X83180311Y-100711439D01*
X83180305Y-100711446D01*
X83176836Y-100715215D01*
X83174031Y-100719506D01*
X83174028Y-100719512D01*
X83043631Y-100919099D01*
X83043624Y-100919111D01*
X83040827Y-100923393D01*
X83038772Y-100928077D01*
X83038766Y-100928089D01*
X82942997Y-101146422D01*
X82940937Y-101151119D01*
X82939679Y-101156084D01*
X82939678Y-101156089D01*
X82881151Y-101387204D01*
X82881149Y-101387213D01*
X82879892Y-101392179D01*
X82879468Y-101397288D01*
X82879467Y-101397298D01*
X82875754Y-101442113D01*
X82859357Y-101640000D01*
X82859781Y-101645117D01*
X82879467Y-101882701D01*
X82879468Y-101882709D01*
X82879892Y-101887821D01*
X82881149Y-101892788D01*
X82881151Y-101892795D01*
X82907719Y-101997708D01*
X82940937Y-102128881D01*
X82954016Y-102158697D01*
X83038766Y-102351910D01*
X83038769Y-102351916D01*
X83040827Y-102356607D01*
X83043627Y-102360893D01*
X83043631Y-102360900D01*
X83171675Y-102556885D01*
X83176836Y-102564785D01*
X83180310Y-102568559D01*
X83180311Y-102568560D01*
X83341784Y-102743967D01*
X83345256Y-102747738D01*
X83349302Y-102750887D01*
X83349303Y-102750888D01*
X83451070Y-102830097D01*
X83487942Y-102876966D01*
X83492462Y-102901685D01*
X83507409Y-102928856D01*
X84353457Y-103774904D01*
X84365000Y-103781568D01*
X84376542Y-103774904D01*
X85222589Y-102928857D01*
X85237535Y-102901687D01*
X85242054Y-102876971D01*
X85278925Y-102830099D01*
X85384744Y-102747738D01*
X85553164Y-102564785D01*
X85689173Y-102356607D01*
X85696593Y-102339689D01*
X85723683Y-102300620D01*
X85763486Y-102274615D01*
X85810149Y-102265500D01*
X86145292Y-102265500D01*
X86199572Y-102278012D01*
X86239465Y-102310247D01*
X86239528Y-102310185D01*
X86359815Y-102430472D01*
X86505394Y-102518478D01*
X86624859Y-102555704D01*
X86661542Y-102567135D01*
X86661544Y-102567135D01*
X86667804Y-102569086D01*
X86738384Y-102575500D01*
X87248797Y-102575500D01*
X87251616Y-102575500D01*
X87322196Y-102569086D01*
X87484606Y-102518478D01*
X87630185Y-102430472D01*
X87732319Y-102328337D01*
X87787906Y-102296244D01*
X87852094Y-102296244D01*
X87907680Y-102328337D01*
X88009815Y-102430472D01*
X88155394Y-102518478D01*
X88274859Y-102555704D01*
X88311542Y-102567135D01*
X88311544Y-102567135D01*
X88317804Y-102569086D01*
X88388384Y-102575500D01*
X88898797Y-102575500D01*
X88901616Y-102575500D01*
X88972196Y-102569086D01*
X89134606Y-102518478D01*
X89280185Y-102430472D01*
X89400472Y-102310185D01*
X89415484Y-102285351D01*
X89460686Y-102241494D01*
X89521602Y-102225500D01*
X89749996Y-102225500D01*
X89810427Y-102241222D01*
X89855534Y-102284403D01*
X89862837Y-102296244D01*
X89867032Y-102303044D01*
X89986956Y-102422968D01*
X90131303Y-102512003D01*
X90292292Y-102565349D01*
X90391655Y-102575500D01*
X90938344Y-102575499D01*
X91037708Y-102565349D01*
X91198697Y-102512003D01*
X91343044Y-102422968D01*
X91352665Y-102413346D01*
X91408251Y-102381247D01*
X91472442Y-102381244D01*
X91528034Y-102413339D01*
X91532157Y-102417462D01*
X91543419Y-102426367D01*
X91675366Y-102507753D01*
X91688374Y-102513819D01*
X91835969Y-102562727D01*
X91849125Y-102565543D01*
X91938555Y-102574680D01*
X91944832Y-102575000D01*
X91948674Y-102575000D01*
X91961549Y-102571549D01*
X91965000Y-102558674D01*
X91965000Y-102558673D01*
X92465000Y-102558673D01*
X92468450Y-102571548D01*
X92481326Y-102574999D01*
X92485165Y-102574999D01*
X92491447Y-102574678D01*
X92580867Y-102565544D01*
X92594036Y-102562725D01*
X92741625Y-102513819D01*
X92754633Y-102507753D01*
X92886580Y-102426367D01*
X92897842Y-102417462D01*
X93007462Y-102307842D01*
X93016367Y-102296580D01*
X93097753Y-102164633D01*
X93103819Y-102151625D01*
X93152727Y-102004030D01*
X93155543Y-101990874D01*
X93164680Y-101901444D01*
X93165000Y-101895168D01*
X93165000Y-101866326D01*
X93161549Y-101853450D01*
X93148674Y-101850000D01*
X92481326Y-101850000D01*
X92468450Y-101853450D01*
X92465000Y-101866326D01*
X92465000Y-102558673D01*
X91965000Y-102558673D01*
X91965000Y-101549500D01*
X91981613Y-101487500D01*
X92027000Y-101442113D01*
X92089000Y-101425500D01*
X115094548Y-101425500D01*
X115142001Y-101434939D01*
X115182229Y-101461819D01*
X123332590Y-109612181D01*
X123363491Y-109663608D01*
X123366631Y-109723522D01*
X123341276Y-109777897D01*
X123293361Y-109814004D01*
X123234103Y-109823390D01*
X123195397Y-109820004D01*
X123195395Y-109820004D01*
X123190000Y-109819532D01*
X123184605Y-109820004D01*
X122968698Y-109838893D01*
X122968693Y-109838893D01*
X122963308Y-109839365D01*
X122958090Y-109840762D01*
X122958079Y-109840765D01*
X122894950Y-109857680D01*
X122830763Y-109857680D01*
X122775177Y-109825586D01*
X120042286Y-107092695D01*
X120034842Y-107084514D01*
X120030786Y-107078123D01*
X119981775Y-107032098D01*
X119978978Y-107029387D01*
X119962227Y-107012636D01*
X119962226Y-107012635D01*
X119959471Y-107009880D01*
X119956290Y-107007412D01*
X119947414Y-106999830D01*
X119921269Y-106975278D01*
X119921267Y-106975276D01*
X119915582Y-106969938D01*
X119908749Y-106966182D01*
X119908743Y-106966177D01*
X119898025Y-106960285D01*
X119881766Y-106949606D01*
X119872095Y-106942104D01*
X119872092Y-106942102D01*
X119865936Y-106937327D01*
X119858779Y-106934229D01*
X119858776Y-106934228D01*
X119825849Y-106919978D01*
X119815363Y-106914841D01*
X119783932Y-106897562D01*
X119783923Y-106897558D01*
X119777092Y-106893803D01*
X119769535Y-106891862D01*
X119769531Y-106891861D01*
X119757688Y-106888820D01*
X119739284Y-106882519D01*
X119728057Y-106877660D01*
X119728050Y-106877658D01*
X119720896Y-106874562D01*
X119713192Y-106873341D01*
X119713190Y-106873341D01*
X119677759Y-106867729D01*
X119666324Y-106865361D01*
X119631571Y-106856438D01*
X119631563Y-106856437D01*
X119624019Y-106854500D01*
X119616223Y-106854500D01*
X119603983Y-106854500D01*
X119584597Y-106852974D01*
X119564804Y-106849840D01*
X119557038Y-106850574D01*
X119557035Y-106850574D01*
X119521324Y-106853950D01*
X119509655Y-106854500D01*
X92089000Y-106854500D01*
X92027000Y-106837887D01*
X91981613Y-106792500D01*
X91965000Y-106730500D01*
X91965000Y-106413674D01*
X92465000Y-106413674D01*
X92468450Y-106426549D01*
X92481326Y-106430000D01*
X93148673Y-106430000D01*
X93161548Y-106426549D01*
X93164999Y-106413674D01*
X93164999Y-106384835D01*
X93164678Y-106378552D01*
X93155544Y-106289132D01*
X93152725Y-106275963D01*
X93103819Y-106128374D01*
X93097753Y-106115366D01*
X93016367Y-105983419D01*
X93007462Y-105972157D01*
X92897842Y-105862537D01*
X92886580Y-105853632D01*
X92754633Y-105772246D01*
X92741625Y-105766180D01*
X92594030Y-105717272D01*
X92580874Y-105714456D01*
X92491444Y-105705319D01*
X92485168Y-105705000D01*
X92481326Y-105705000D01*
X92468450Y-105708450D01*
X92465000Y-105721326D01*
X92465000Y-106413674D01*
X91965000Y-106413674D01*
X91965000Y-105721327D01*
X91961549Y-105708451D01*
X91948674Y-105705001D01*
X91944835Y-105705001D01*
X91938552Y-105705321D01*
X91849132Y-105714455D01*
X91835963Y-105717274D01*
X91688374Y-105766180D01*
X91675366Y-105772246D01*
X91543416Y-105853634D01*
X91532157Y-105862536D01*
X91528024Y-105866669D01*
X91472437Y-105898755D01*
X91408254Y-105898752D01*
X91352671Y-105866659D01*
X91348154Y-105862142D01*
X91343044Y-105857032D01*
X91336894Y-105853238D01*
X91336892Y-105853237D01*
X91204845Y-105771789D01*
X91204843Y-105771788D01*
X91198697Y-105767997D01*
X91191842Y-105765725D01*
X91191841Y-105765725D01*
X91044136Y-105716781D01*
X91044135Y-105716780D01*
X91037708Y-105714651D01*
X91030975Y-105713963D01*
X91030970Y-105713962D01*
X90941476Y-105704819D01*
X90941459Y-105704818D01*
X90938345Y-105704500D01*
X90935196Y-105704500D01*
X90394805Y-105704500D01*
X90394785Y-105704500D01*
X90391656Y-105704501D01*
X90388524Y-105704820D01*
X90388522Y-105704821D01*
X90299027Y-105713962D01*
X90299017Y-105713963D01*
X90292292Y-105714651D01*
X90285870Y-105716778D01*
X90285865Y-105716780D01*
X90138158Y-105765725D01*
X90138154Y-105765726D01*
X90131303Y-105767997D01*
X90125159Y-105771786D01*
X90125154Y-105771789D01*
X89993107Y-105853237D01*
X89993101Y-105853241D01*
X89986956Y-105857032D01*
X89981849Y-105862138D01*
X89981845Y-105862142D01*
X89872142Y-105971845D01*
X89872138Y-105971849D01*
X89867032Y-105976956D01*
X89863241Y-105983101D01*
X89863237Y-105983107D01*
X89855534Y-105995597D01*
X89810427Y-106038778D01*
X89749996Y-106054500D01*
X89521602Y-106054500D01*
X89460686Y-106038506D01*
X89415485Y-105994649D01*
X89404353Y-105976234D01*
X89404350Y-105976230D01*
X89400472Y-105969815D01*
X89280185Y-105849528D01*
X89271634Y-105844359D01*
X89141021Y-105765400D01*
X89141020Y-105765399D01*
X89134606Y-105761522D01*
X89105500Y-105752452D01*
X88978457Y-105712864D01*
X88978448Y-105712862D01*
X88972196Y-105710914D01*
X88965662Y-105710320D01*
X88965661Y-105710320D01*
X88904425Y-105704755D01*
X88904419Y-105704754D01*
X88901616Y-105704500D01*
X88388384Y-105704500D01*
X88385581Y-105704754D01*
X88385574Y-105704755D01*
X88324338Y-105710320D01*
X88324335Y-105710320D01*
X88317804Y-105710914D01*
X88311553Y-105712861D01*
X88311542Y-105712864D01*
X88162550Y-105759292D01*
X88155394Y-105761522D01*
X88148982Y-105765398D01*
X88148978Y-105765400D01*
X88016232Y-105845648D01*
X88016227Y-105845651D01*
X88009815Y-105849528D01*
X88004515Y-105854827D01*
X88004511Y-105854831D01*
X87907681Y-105951662D01*
X87852094Y-105983756D01*
X87787906Y-105983756D01*
X87732319Y-105951662D01*
X87635488Y-105854831D01*
X87630185Y-105849528D01*
X87621634Y-105844359D01*
X87491021Y-105765400D01*
X87491020Y-105765399D01*
X87484606Y-105761522D01*
X87455500Y-105752452D01*
X87328457Y-105712864D01*
X87328448Y-105712862D01*
X87322196Y-105710914D01*
X87315662Y-105710320D01*
X87315661Y-105710320D01*
X87254425Y-105704755D01*
X87254419Y-105704754D01*
X87251616Y-105704500D01*
X86738384Y-105704500D01*
X86735581Y-105704754D01*
X86735574Y-105704755D01*
X86674338Y-105710320D01*
X86674335Y-105710320D01*
X86667804Y-105710914D01*
X86661553Y-105712861D01*
X86661542Y-105712864D01*
X86512550Y-105759292D01*
X86505394Y-105761522D01*
X86498982Y-105765398D01*
X86498978Y-105765400D01*
X86366232Y-105845648D01*
X86366227Y-105845651D01*
X86359815Y-105849528D01*
X86354515Y-105854827D01*
X86354511Y-105854831D01*
X86244831Y-105964511D01*
X86244827Y-105964515D01*
X86240122Y-105969220D01*
X86240117Y-105969225D01*
X86239528Y-105969815D01*
X86239465Y-105969752D01*
X86199572Y-106001988D01*
X86145292Y-106014500D01*
X85989499Y-106014500D01*
X85927499Y-105997887D01*
X85882112Y-105952500D01*
X85865499Y-105890500D01*
X85865499Y-105595439D01*
X85865499Y-105592128D01*
X85859091Y-105532517D01*
X85808796Y-105397669D01*
X85722546Y-105282454D01*
X85607331Y-105196204D01*
X85607331Y-105196203D01*
X85609223Y-105193675D01*
X85572656Y-105157882D01*
X85556246Y-105092578D01*
X85576386Y-105028325D01*
X85685930Y-104860655D01*
X85690792Y-104851671D01*
X85786527Y-104633414D01*
X85789846Y-104623747D01*
X85848353Y-104392712D01*
X85850037Y-104382618D01*
X85869717Y-104145117D01*
X85869717Y-104134883D01*
X85850037Y-103897381D01*
X85848353Y-103887287D01*
X85789846Y-103656252D01*
X85786527Y-103646585D01*
X85690792Y-103428330D01*
X85685924Y-103419335D01*
X85596002Y-103281699D01*
X85588034Y-103273974D01*
X85578653Y-103279898D01*
X84452680Y-104405871D01*
X84397093Y-104437965D01*
X84332905Y-104437965D01*
X84277318Y-104405871D01*
X83151345Y-103279898D01*
X83141964Y-103273974D01*
X83133997Y-103281699D01*
X83044072Y-103419338D01*
X83039207Y-103428328D01*
X82943472Y-103646585D01*
X82940153Y-103656252D01*
X82881646Y-103887287D01*
X82879962Y-103897381D01*
X82860283Y-104134883D01*
X82860283Y-104145117D01*
X82879962Y-104382618D01*
X82881646Y-104392712D01*
X82940153Y-104623747D01*
X82943472Y-104633414D01*
X83039207Y-104851671D01*
X83044073Y-104860661D01*
X83153613Y-105028326D01*
X83173752Y-105092566D01*
X83157355Y-105157862D01*
X83120779Y-105193680D01*
X83122669Y-105196204D01*
X83014550Y-105277141D01*
X83014546Y-105277144D01*
X83007454Y-105282454D01*
X83002144Y-105289546D01*
X83002141Y-105289550D01*
X82926519Y-105390568D01*
X82926516Y-105390572D01*
X82921204Y-105397669D01*
X82918104Y-105405978D01*
X82918104Y-105405980D01*
X82873620Y-105525247D01*
X82873619Y-105525250D01*
X82870909Y-105532517D01*
X82870079Y-105540227D01*
X82870079Y-105540232D01*
X82864855Y-105588819D01*
X82864854Y-105588831D01*
X82864500Y-105592127D01*
X82864500Y-105595448D01*
X82864500Y-105595449D01*
X82864500Y-107684560D01*
X82864500Y-107684578D01*
X82864501Y-107687872D01*
X82864853Y-107691150D01*
X82864854Y-107691161D01*
X82870079Y-107739768D01*
X82870080Y-107739773D01*
X82870909Y-107747483D01*
X82873619Y-107754749D01*
X82873620Y-107754753D01*
X82907217Y-107844831D01*
X82921204Y-107882331D01*
X82926518Y-107889430D01*
X82926519Y-107889431D01*
X82979467Y-107960161D01*
X83007454Y-107997546D01*
X83122669Y-108083796D01*
X83257517Y-108134091D01*
X83317127Y-108140500D01*
X85412872Y-108140499D01*
X85472483Y-108134091D01*
X85607331Y-108083796D01*
X85722546Y-107997546D01*
X85808796Y-107882331D01*
X85859091Y-107747483D01*
X85865500Y-107687873D01*
X85865500Y-107389500D01*
X85882113Y-107327500D01*
X85927500Y-107282113D01*
X85989500Y-107265500D01*
X86094217Y-107265500D01*
X86155133Y-107281494D01*
X86200333Y-107325349D01*
X86203233Y-107330146D01*
X86235648Y-107383768D01*
X86235651Y-107383772D01*
X86239528Y-107390185D01*
X86244830Y-107395487D01*
X86244831Y-107395488D01*
X86333181Y-107483838D01*
X86360061Y-107524066D01*
X86369500Y-107571519D01*
X86369500Y-109598481D01*
X86360061Y-109645934D01*
X86333181Y-109686162D01*
X86244831Y-109774511D01*
X86244827Y-109774515D01*
X86239528Y-109779815D01*
X86235651Y-109786227D01*
X86235648Y-109786232D01*
X86155400Y-109918978D01*
X86155398Y-109918982D01*
X86151522Y-109925394D01*
X86149292Y-109932548D01*
X86149292Y-109932550D01*
X86102864Y-110081542D01*
X86102861Y-110081553D01*
X86100914Y-110087804D01*
X86094500Y-110158384D01*
X86094500Y-110161203D01*
X86094500Y-110540500D01*
X86077887Y-110602500D01*
X86032500Y-110647887D01*
X85970500Y-110664500D01*
X79089500Y-110664500D01*
X79027500Y-110647887D01*
X78982113Y-110602500D01*
X78965500Y-110540500D01*
X78965499Y-108695439D01*
X78965499Y-108692128D01*
X78959091Y-108632517D01*
X78908796Y-108497669D01*
X78822546Y-108382454D01*
X78707331Y-108296204D01*
X78572483Y-108245909D01*
X78564770Y-108245079D01*
X78564767Y-108245079D01*
X78516180Y-108239855D01*
X78516169Y-108239854D01*
X78512873Y-108239500D01*
X78509550Y-108239500D01*
X75220439Y-108239500D01*
X75220420Y-108239500D01*
X75217128Y-108239501D01*
X75213850Y-108239853D01*
X75213838Y-108239854D01*
X75165231Y-108245079D01*
X75165225Y-108245080D01*
X75157517Y-108245909D01*
X75150252Y-108248618D01*
X75150246Y-108248620D01*
X75030980Y-108293104D01*
X75030978Y-108293104D01*
X75022669Y-108296204D01*
X75015572Y-108301516D01*
X75015568Y-108301519D01*
X74914550Y-108377141D01*
X74914546Y-108377144D01*
X74907454Y-108382454D01*
X74902144Y-108389546D01*
X74902141Y-108389550D01*
X74826519Y-108490568D01*
X74826516Y-108490572D01*
X74821204Y-108497669D01*
X74818104Y-108505978D01*
X74818104Y-108505980D01*
X74773620Y-108625247D01*
X74773619Y-108625250D01*
X74770909Y-108632517D01*
X74770079Y-108640227D01*
X74770079Y-108640232D01*
X74764855Y-108688819D01*
X74764854Y-108688831D01*
X74764500Y-108692127D01*
X74764500Y-109664831D01*
X74764501Y-110540500D01*
X74747888Y-110602500D01*
X74702501Y-110647887D01*
X74640501Y-110664500D01*
X72951619Y-110664500D01*
X72904166Y-110655061D01*
X72863938Y-110628181D01*
X70447379Y-108211621D01*
X70417369Y-108162988D01*
X70412356Y-108106062D01*
X70433404Y-108052933D01*
X70476043Y-108014885D01*
X70683723Y-107902494D01*
X70692281Y-107896903D01*
X70721146Y-107874437D01*
X70729250Y-107863250D01*
X70722589Y-107851142D01*
X69511447Y-106640000D01*
X70223431Y-106640000D01*
X70230095Y-106651542D01*
X71078653Y-107500100D01*
X71088034Y-107506024D01*
X71096002Y-107498299D01*
X71185924Y-107360664D01*
X71190792Y-107351669D01*
X71286527Y-107133414D01*
X71289846Y-107123747D01*
X71348353Y-106892712D01*
X71350037Y-106882618D01*
X71369717Y-106645117D01*
X71369717Y-106634883D01*
X71350037Y-106397381D01*
X71348353Y-106387287D01*
X71289846Y-106156252D01*
X71286527Y-106146585D01*
X71190792Y-105928330D01*
X71185924Y-105919335D01*
X71096002Y-105781699D01*
X71088034Y-105773974D01*
X71078653Y-105779898D01*
X70230095Y-106628457D01*
X70223431Y-106640000D01*
X69511447Y-106640000D01*
X68651345Y-105779898D01*
X68641964Y-105773974D01*
X68633997Y-105781699D01*
X68544072Y-105919338D01*
X68539209Y-105928324D01*
X68497737Y-106022872D01*
X68461350Y-106070122D01*
X68407114Y-106094922D01*
X68347573Y-106091534D01*
X68296500Y-106060742D01*
X68166015Y-105930257D01*
X68136892Y-105884203D01*
X68130324Y-105830110D01*
X68147578Y-105778429D01*
X68228478Y-105644606D01*
X68279086Y-105482196D01*
X68285034Y-105416749D01*
X69000748Y-105416749D01*
X69007408Y-105428855D01*
X69853457Y-106274904D01*
X69865000Y-106281568D01*
X69876542Y-106274904D01*
X70722590Y-105428855D01*
X70729250Y-105416749D01*
X70721143Y-105405559D01*
X70692286Y-105383099D01*
X70683719Y-105377503D01*
X70474114Y-105264070D01*
X70464760Y-105259967D01*
X70239343Y-105182582D01*
X70229431Y-105180071D01*
X69994356Y-105140844D01*
X69984161Y-105140000D01*
X69745839Y-105140000D01*
X69735643Y-105140844D01*
X69500568Y-105180071D01*
X69490656Y-105182582D01*
X69265239Y-105259967D01*
X69255885Y-105264070D01*
X69046276Y-105377504D01*
X69037717Y-105383096D01*
X69008854Y-105405560D01*
X69000748Y-105416749D01*
X68285034Y-105416749D01*
X68285500Y-105411616D01*
X68285500Y-104898384D01*
X68279086Y-104827804D01*
X68269518Y-104797100D01*
X68234743Y-104685501D01*
X68228478Y-104665394D01*
X68140472Y-104519815D01*
X68038338Y-104417681D01*
X68006244Y-104362094D01*
X68006244Y-104297906D01*
X68038338Y-104242319D01*
X68082620Y-104198037D01*
X68140472Y-104140185D01*
X68140992Y-104139324D01*
X68190557Y-104102295D01*
X68197399Y-104099586D01*
X68208450Y-104095802D01*
X68250390Y-104083618D01*
X68267629Y-104073422D01*
X68285103Y-104064862D01*
X68296474Y-104060360D01*
X68296476Y-104060358D01*
X68303732Y-104057486D01*
X68339069Y-104031811D01*
X68348824Y-104025403D01*
X68386420Y-104003170D01*
X68400584Y-103989005D01*
X68415379Y-103976368D01*
X68431587Y-103964594D01*
X68459428Y-103930938D01*
X68467279Y-103922309D01*
X69287772Y-103101817D01*
X69347502Y-103068691D01*
X69415713Y-103072218D01*
X69495386Y-103099571D01*
X69740665Y-103140500D01*
X69984201Y-103140500D01*
X69989335Y-103140500D01*
X70234614Y-103099571D01*
X70469810Y-103018828D01*
X70688509Y-102900474D01*
X70884744Y-102747738D01*
X71053164Y-102564785D01*
X71189173Y-102356607D01*
X71289063Y-102128881D01*
X71350108Y-101887821D01*
X71370643Y-101640000D01*
X71350108Y-101392179D01*
X71289063Y-101151119D01*
X71189173Y-100923393D01*
X71183460Y-100914649D01*
X71092113Y-100774831D01*
X71053164Y-100715215D01*
X71025717Y-100685400D01*
X70888215Y-100536032D01*
X70888211Y-100536029D01*
X70884744Y-100532262D01*
X70743649Y-100422443D01*
X70692559Y-100382678D01*
X70692557Y-100382676D01*
X70688509Y-100379526D01*
X70637827Y-100352098D01*
X70474316Y-100263610D01*
X70474310Y-100263607D01*
X70469810Y-100261172D01*
X70464969Y-100259510D01*
X70464962Y-100259507D01*
X70239465Y-100182094D01*
X70239461Y-100182093D01*
X70234614Y-100180429D01*
X70215809Y-100177291D01*
X69994398Y-100140344D01*
X69994387Y-100140343D01*
X69989335Y-100139500D01*
X69740665Y-100139500D01*
X69735613Y-100140343D01*
X69735601Y-100140344D01*
X69500443Y-100179585D01*
X69500441Y-100179585D01*
X69495386Y-100180429D01*
X69490541Y-100182092D01*
X69490534Y-100182094D01*
X69265037Y-100259507D01*
X69265026Y-100259511D01*
X69260190Y-100261172D01*
X69255693Y-100263605D01*
X69255683Y-100263610D01*
X69046002Y-100377084D01*
X69045995Y-100377088D01*
X69041491Y-100379526D01*
X69037448Y-100382672D01*
X69037440Y-100382678D01*
X68849304Y-100529111D01*
X68845256Y-100532262D01*
X68841793Y-100536023D01*
X68841784Y-100536032D01*
X68680311Y-100711439D01*
X68680305Y-100711446D01*
X68676836Y-100715215D01*
X68674031Y-100719506D01*
X68674028Y-100719512D01*
X68543631Y-100919099D01*
X68543624Y-100919111D01*
X68540827Y-100923393D01*
X68538772Y-100928077D01*
X68538766Y-100928089D01*
X68442997Y-101146422D01*
X68440937Y-101151119D01*
X68439679Y-101156084D01*
X68439678Y-101156089D01*
X68381151Y-101387204D01*
X68381149Y-101387213D01*
X68379892Y-101392179D01*
X68379468Y-101397288D01*
X68379467Y-101397298D01*
X68375754Y-101442113D01*
X68359357Y-101640000D01*
X68359781Y-101645117D01*
X68379467Y-101882701D01*
X68379468Y-101882709D01*
X68379892Y-101887821D01*
X68381149Y-101892788D01*
X68381151Y-101892795D01*
X68433863Y-102100948D01*
X68433208Y-102164306D01*
X68401338Y-102219069D01*
X67991868Y-102628539D01*
X67933863Y-102661255D01*
X67867298Y-102659244D01*
X67718460Y-102612865D01*
X67718451Y-102612863D01*
X67712196Y-102610914D01*
X67705662Y-102610320D01*
X67705661Y-102610320D01*
X67644425Y-102604755D01*
X67644419Y-102604754D01*
X67641616Y-102604500D01*
X66978384Y-102604500D01*
X66975581Y-102604754D01*
X66975574Y-102604755D01*
X66914338Y-102610320D01*
X66914335Y-102610320D01*
X66907804Y-102610914D01*
X66901553Y-102612861D01*
X66901542Y-102612864D01*
X66752550Y-102659292D01*
X66745394Y-102661522D01*
X66738982Y-102665398D01*
X66738978Y-102665400D01*
X66606232Y-102745648D01*
X66606227Y-102745651D01*
X66599815Y-102749528D01*
X66594515Y-102754827D01*
X66594511Y-102754831D01*
X66484831Y-102864511D01*
X66484827Y-102864515D01*
X66479528Y-102869815D01*
X66475651Y-102876227D01*
X66475648Y-102876232D01*
X66395400Y-103008978D01*
X66395398Y-103008982D01*
X66391522Y-103015394D01*
X66389292Y-103022548D01*
X66389292Y-103022550D01*
X66342864Y-103171542D01*
X66342861Y-103171553D01*
X66340914Y-103177804D01*
X66334500Y-103248384D01*
X66334500Y-103251203D01*
X66334500Y-103544547D01*
X66325061Y-103592000D01*
X66298183Y-103632225D01*
X66155504Y-103774904D01*
X66122696Y-103807712D01*
X66114511Y-103815159D01*
X66108123Y-103819214D01*
X66102788Y-103824894D01*
X66102783Y-103824899D01*
X66062096Y-103868225D01*
X66059392Y-103871016D01*
X66042628Y-103887780D01*
X66042621Y-103887787D01*
X66039880Y-103890529D01*
X66037500Y-103893596D01*
X66037489Y-103893609D01*
X66037400Y-103893725D01*
X66029842Y-103902570D01*
X66005280Y-103928727D01*
X66005273Y-103928736D01*
X65999938Y-103934418D01*
X65996182Y-103941249D01*
X65996179Y-103941254D01*
X65990285Y-103951975D01*
X65979609Y-103968227D01*
X65972109Y-103977896D01*
X65972101Y-103977907D01*
X65967327Y-103984064D01*
X65964234Y-103991208D01*
X65964229Y-103991219D01*
X65949974Y-104024160D01*
X65944838Y-104034643D01*
X65923803Y-104072908D01*
X65921864Y-104080456D01*
X65921863Y-104080461D01*
X65918822Y-104092307D01*
X65912521Y-104110711D01*
X65907658Y-104121948D01*
X65907656Y-104121952D01*
X65904562Y-104129104D01*
X65903342Y-104136803D01*
X65903342Y-104136805D01*
X65897729Y-104172241D01*
X65895361Y-104183676D01*
X65886438Y-104218428D01*
X65886436Y-104218436D01*
X65884500Y-104225981D01*
X65884500Y-104233777D01*
X65884500Y-104246017D01*
X65882974Y-104265402D01*
X65879840Y-104285196D01*
X62865500Y-104285196D01*
X62865500Y-99584578D01*
X74764500Y-99584578D01*
X74764501Y-99587872D01*
X74764853Y-99591150D01*
X74764854Y-99591161D01*
X74770079Y-99639768D01*
X74770080Y-99639773D01*
X74770909Y-99647483D01*
X74773619Y-99654749D01*
X74773620Y-99654753D01*
X74800961Y-99728057D01*
X74821204Y-99782331D01*
X74826518Y-99789430D01*
X74826519Y-99789431D01*
X74837356Y-99803908D01*
X74907454Y-99897546D01*
X75022669Y-99983796D01*
X75157517Y-100034091D01*
X75217127Y-100040500D01*
X78512872Y-100040499D01*
X78572483Y-100034091D01*
X78707331Y-99983796D01*
X78822546Y-99897546D01*
X78908796Y-99782331D01*
X78959091Y-99647483D01*
X78965500Y-99587873D01*
X78965499Y-97492128D01*
X78959091Y-97432517D01*
X78908796Y-97297669D01*
X78822546Y-97182454D01*
X78707331Y-97096204D01*
X78572483Y-97045909D01*
X78564770Y-97045079D01*
X78564767Y-97045079D01*
X78516180Y-97039855D01*
X78516169Y-97039854D01*
X78512873Y-97039500D01*
X78509550Y-97039500D01*
X75220439Y-97039500D01*
X75220420Y-97039500D01*
X75217128Y-97039501D01*
X75213850Y-97039853D01*
X75213838Y-97039854D01*
X75165231Y-97045079D01*
X75165225Y-97045080D01*
X75157517Y-97045909D01*
X75150252Y-97048618D01*
X75150246Y-97048620D01*
X75030980Y-97093104D01*
X75030978Y-97093104D01*
X75022669Y-97096204D01*
X75015572Y-97101516D01*
X75015568Y-97101519D01*
X74914550Y-97177141D01*
X74914546Y-97177144D01*
X74907454Y-97182454D01*
X74902144Y-97189546D01*
X74902141Y-97189550D01*
X74826519Y-97290568D01*
X74826516Y-97290572D01*
X74821204Y-97297669D01*
X74818104Y-97305978D01*
X74818104Y-97305980D01*
X74773620Y-97425247D01*
X74773619Y-97425250D01*
X74770909Y-97432517D01*
X74770079Y-97440227D01*
X74770079Y-97440232D01*
X74764855Y-97488819D01*
X74764854Y-97488831D01*
X74764500Y-97492127D01*
X74764500Y-97495448D01*
X74764500Y-97495449D01*
X74764500Y-99584560D01*
X74764500Y-99584578D01*
X62865500Y-99584578D01*
X62865500Y-86880700D01*
X67425290Y-86880700D01*
X67425606Y-86885118D01*
X67445387Y-87161705D01*
X67445388Y-87161714D01*
X67445704Y-87166128D01*
X67446644Y-87170453D01*
X67446646Y-87170461D01*
X67465399Y-87256665D01*
X67506531Y-87445746D01*
X67606533Y-87713861D01*
X67608653Y-87717743D01*
X67608656Y-87717750D01*
X67741547Y-87961120D01*
X67743674Y-87965015D01*
X67915161Y-88194095D01*
X68117505Y-88396439D01*
X68346585Y-88567926D01*
X68597739Y-88705067D01*
X68865854Y-88805069D01*
X69145472Y-88865896D01*
X69430900Y-88886310D01*
X69716328Y-88865896D01*
X69995946Y-88805069D01*
X70264061Y-88705067D01*
X70515215Y-88567926D01*
X70744295Y-88396439D01*
X70946639Y-88194095D01*
X71118126Y-87965015D01*
X71255267Y-87713861D01*
X71355269Y-87445746D01*
X71416096Y-87166128D01*
X71436510Y-86880700D01*
X71416096Y-86595272D01*
X71355269Y-86315654D01*
X71255267Y-86047539D01*
X71118126Y-85796385D01*
X70946639Y-85567305D01*
X70744295Y-85364961D01*
X70515215Y-85193474D01*
X70511320Y-85191347D01*
X70267950Y-85058456D01*
X70267943Y-85058453D01*
X70264061Y-85056333D01*
X70259917Y-85054787D01*
X70259912Y-85054785D01*
X70000089Y-84957876D01*
X70000085Y-84957875D01*
X69995946Y-84956331D01*
X69965975Y-84949811D01*
X69720661Y-84896446D01*
X69720653Y-84896444D01*
X69716328Y-84895504D01*
X69711914Y-84895188D01*
X69711905Y-84895187D01*
X69435318Y-84875406D01*
X69430900Y-84875090D01*
X69426482Y-84875406D01*
X69149894Y-84895187D01*
X69149883Y-84895188D01*
X69145472Y-84895504D01*
X69141148Y-84896444D01*
X69141138Y-84896446D01*
X68870179Y-84955390D01*
X68870176Y-84955390D01*
X68865854Y-84956331D01*
X68861718Y-84957873D01*
X68861710Y-84957876D01*
X68601887Y-85054785D01*
X68601876Y-85054789D01*
X68597739Y-85056333D01*
X68593861Y-85058450D01*
X68593849Y-85058456D01*
X68350479Y-85191347D01*
X68350471Y-85191351D01*
X68346585Y-85193474D01*
X68343035Y-85196131D01*
X68343031Y-85196134D01*
X68121056Y-85362302D01*
X68121049Y-85362307D01*
X68117505Y-85364961D01*
X68114374Y-85368091D01*
X68114367Y-85368098D01*
X67918298Y-85564167D01*
X67918291Y-85564174D01*
X67915161Y-85567305D01*
X67912507Y-85570849D01*
X67912502Y-85570856D01*
X67746334Y-85792831D01*
X67743674Y-85796385D01*
X67741551Y-85800271D01*
X67741547Y-85800279D01*
X67608656Y-86043649D01*
X67608650Y-86043661D01*
X67606533Y-86047539D01*
X67604989Y-86051676D01*
X67604985Y-86051687D01*
X67508076Y-86311510D01*
X67508073Y-86311518D01*
X67506531Y-86315654D01*
X67505590Y-86319976D01*
X67505590Y-86319979D01*
X67446646Y-86590938D01*
X67446644Y-86590948D01*
X67445704Y-86595272D01*
X67445388Y-86599683D01*
X67445387Y-86599694D01*
X67426172Y-86868354D01*
X67425290Y-86880700D01*
X62865500Y-86880700D01*
X62865500Y-62865000D01*
X94964532Y-62865000D01*
X94984365Y-63091692D01*
X94985762Y-63096907D01*
X94985764Y-63096916D01*
X95041858Y-63306263D01*
X95041861Y-63306271D01*
X95043261Y-63311496D01*
X95139432Y-63517734D01*
X95269953Y-63704139D01*
X95430861Y-63865047D01*
X95617266Y-63995568D01*
X95823504Y-64091739D01*
X95828734Y-64093140D01*
X95828736Y-64093141D01*
X96004285Y-64140179D01*
X96043308Y-64150635D01*
X96270000Y-64170468D01*
X96496692Y-64150635D01*
X96716496Y-64091739D01*
X96922734Y-63995568D01*
X97109139Y-63865047D01*
X97270047Y-63704139D01*
X97400568Y-63517734D01*
X97427894Y-63459131D01*
X97473649Y-63406959D01*
X97540274Y-63387539D01*
X97606899Y-63406958D01*
X97652657Y-63459134D01*
X97677579Y-63512579D01*
X97682967Y-63521912D01*
X97807232Y-63699381D01*
X97814169Y-63707647D01*
X97967352Y-63860830D01*
X97975618Y-63867767D01*
X98153087Y-63992032D01*
X98162419Y-63997420D01*
X98358765Y-64088977D01*
X98368907Y-64092669D01*
X98546219Y-64140179D01*
X98557448Y-64140547D01*
X98560000Y-64129605D01*
X98560000Y-61600395D01*
X98557448Y-61589452D01*
X98546219Y-61589820D01*
X98368907Y-61637330D01*
X98358765Y-61641022D01*
X98162419Y-61732579D01*
X98153087Y-61737967D01*
X97975618Y-61862232D01*
X97967352Y-61869169D01*
X97814169Y-62022352D01*
X97807232Y-62030618D01*
X97682967Y-62208087D01*
X97677581Y-62217416D01*
X97652657Y-62270866D01*
X97606899Y-62323041D01*
X97540274Y-62342460D01*
X97473649Y-62323040D01*
X97427893Y-62270864D01*
X97402860Y-62217180D01*
X97402856Y-62217173D01*
X97400568Y-62212266D01*
X97270047Y-62025861D01*
X97109139Y-61864953D01*
X96922734Y-61734432D01*
X96716496Y-61638261D01*
X96711271Y-61636861D01*
X96711263Y-61636858D01*
X96501916Y-61580764D01*
X96501907Y-61580762D01*
X96496692Y-61579365D01*
X96491304Y-61578893D01*
X96491301Y-61578893D01*
X96275395Y-61560004D01*
X96270000Y-61559532D01*
X96264605Y-61560004D01*
X96048698Y-61578893D01*
X96048693Y-61578893D01*
X96043308Y-61579365D01*
X96038094Y-61580762D01*
X96038083Y-61580764D01*
X95828736Y-61636858D01*
X95828724Y-61636862D01*
X95823504Y-61638261D01*
X95818599Y-61640547D01*
X95818594Y-61640550D01*
X95622176Y-61732142D01*
X95622172Y-61732144D01*
X95617266Y-61734432D01*
X95612833Y-61737535D01*
X95612826Y-61737540D01*
X95435296Y-61861847D01*
X95435291Y-61861850D01*
X95430861Y-61864953D01*
X95427037Y-61868776D01*
X95427031Y-61868782D01*
X95273782Y-62022031D01*
X95273776Y-62022037D01*
X95269953Y-62025861D01*
X95266850Y-62030291D01*
X95266847Y-62030296D01*
X95142540Y-62207826D01*
X95142535Y-62207833D01*
X95139432Y-62212266D01*
X95137144Y-62217172D01*
X95137142Y-62217176D01*
X95045550Y-62413594D01*
X95045547Y-62413599D01*
X95043261Y-62418504D01*
X95041862Y-62423724D01*
X95041858Y-62423736D01*
X94985764Y-62633083D01*
X94985762Y-62633094D01*
X94984365Y-62638308D01*
X94964532Y-62865000D01*
X62865500Y-62865000D01*
X62865500Y-55880000D01*
X67425290Y-55880000D01*
X67425606Y-55884418D01*
X67445387Y-56161005D01*
X67445388Y-56161014D01*
X67445704Y-56165428D01*
X67446644Y-56169753D01*
X67446646Y-56169761D01*
X67481146Y-56328353D01*
X67506531Y-56445046D01*
X67508075Y-56449185D01*
X67508076Y-56449189D01*
X67591694Y-56673378D01*
X67606533Y-56713161D01*
X67608653Y-56717043D01*
X67608656Y-56717050D01*
X67732733Y-56944279D01*
X67743674Y-56964315D01*
X67915161Y-57193395D01*
X68117505Y-57395739D01*
X68346585Y-57567226D01*
X68466775Y-57632855D01*
X68560985Y-57684298D01*
X68597739Y-57704367D01*
X68865854Y-57804369D01*
X69145472Y-57865196D01*
X69430900Y-57885610D01*
X69716328Y-57865196D01*
X69995946Y-57804369D01*
X70264061Y-57704367D01*
X70515215Y-57567226D01*
X70744295Y-57395739D01*
X70915516Y-57224518D01*
X73530000Y-57224518D01*
X73530353Y-57231114D01*
X73535573Y-57279667D01*
X73539111Y-57294641D01*
X73583547Y-57413777D01*
X73591962Y-57429189D01*
X73667498Y-57530092D01*
X73679907Y-57542501D01*
X73780810Y-57618037D01*
X73796222Y-57626452D01*
X73915358Y-57670888D01*
X73930332Y-57674426D01*
X73978885Y-57679646D01*
X73985482Y-57680000D01*
X74663674Y-57680000D01*
X74676549Y-57676549D01*
X74680000Y-57663674D01*
X74680000Y-56146326D01*
X74676549Y-56133450D01*
X74663674Y-56130000D01*
X73546326Y-56130000D01*
X73533450Y-56133450D01*
X73530000Y-56146326D01*
X73530000Y-57224518D01*
X70915516Y-57224518D01*
X70946639Y-57193395D01*
X71118126Y-56964315D01*
X71255267Y-56713161D01*
X71355269Y-56445046D01*
X71416096Y-56165428D01*
X71436510Y-55880000D01*
X71417462Y-55613674D01*
X73530000Y-55613674D01*
X73533450Y-55626549D01*
X73546326Y-55630000D01*
X74663674Y-55630000D01*
X74676549Y-55626549D01*
X74680000Y-55613674D01*
X74680000Y-54096326D01*
X74676549Y-54083450D01*
X74663674Y-54080000D01*
X73985482Y-54080000D01*
X73978885Y-54080353D01*
X73930332Y-54085573D01*
X73915358Y-54089111D01*
X73796222Y-54133547D01*
X73780810Y-54141962D01*
X73679907Y-54217498D01*
X73667498Y-54229907D01*
X73591962Y-54330810D01*
X73583547Y-54346222D01*
X73539111Y-54465358D01*
X73535573Y-54480332D01*
X73530353Y-54528885D01*
X73530000Y-54535482D01*
X73530000Y-55613674D01*
X71417462Y-55613674D01*
X71416096Y-55594572D01*
X71355269Y-55314954D01*
X71255267Y-55046839D01*
X71118126Y-54795685D01*
X70946639Y-54566605D01*
X70744295Y-54364261D01*
X70515215Y-54192774D01*
X70511320Y-54190647D01*
X70267950Y-54057756D01*
X70267943Y-54057753D01*
X70264061Y-54055633D01*
X70259917Y-54054087D01*
X70259912Y-54054085D01*
X70000089Y-53957176D01*
X70000085Y-53957175D01*
X69995946Y-53955631D01*
X69965975Y-53949111D01*
X69720661Y-53895746D01*
X69720653Y-53895744D01*
X69716328Y-53894804D01*
X69711914Y-53894488D01*
X69711905Y-53894487D01*
X69435318Y-53874706D01*
X69430900Y-53874390D01*
X69426482Y-53874706D01*
X69149894Y-53894487D01*
X69149883Y-53894488D01*
X69145472Y-53894804D01*
X69141148Y-53895744D01*
X69141138Y-53895746D01*
X68870179Y-53954690D01*
X68870176Y-53954690D01*
X68865854Y-53955631D01*
X68861718Y-53957173D01*
X68861710Y-53957176D01*
X68601887Y-54054085D01*
X68601876Y-54054089D01*
X68597739Y-54055633D01*
X68593861Y-54057750D01*
X68593849Y-54057756D01*
X68350479Y-54190647D01*
X68350471Y-54190651D01*
X68346585Y-54192774D01*
X68343035Y-54195431D01*
X68343031Y-54195434D01*
X68121056Y-54361602D01*
X68121049Y-54361607D01*
X68117505Y-54364261D01*
X68114374Y-54367391D01*
X68114367Y-54367398D01*
X67918298Y-54563467D01*
X67918291Y-54563474D01*
X67915161Y-54566605D01*
X67912507Y-54570149D01*
X67912502Y-54570156D01*
X67747637Y-54790391D01*
X67743674Y-54795685D01*
X67741551Y-54799571D01*
X67741547Y-54799579D01*
X67608656Y-55042949D01*
X67608650Y-55042961D01*
X67606533Y-55046839D01*
X67604989Y-55050976D01*
X67604985Y-55050987D01*
X67508076Y-55310810D01*
X67508073Y-55310818D01*
X67506531Y-55314954D01*
X67505590Y-55319276D01*
X67505590Y-55319279D01*
X67446646Y-55590238D01*
X67446644Y-55590248D01*
X67445704Y-55594572D01*
X67445388Y-55598983D01*
X67445387Y-55598994D01*
X67443170Y-55630000D01*
X67425290Y-55880000D01*
X62865500Y-55880000D01*
X62865500Y-52121570D01*
X62874939Y-52074117D01*
X62901819Y-52033889D01*
X65368888Y-49566819D01*
X65409116Y-49539939D01*
X65456569Y-49530500D01*
X149173430Y-49530500D01*
X149220883Y-49539939D01*
G37*
%TD.AperFunction*%
%TD*%
M02*
