M48
; DRILL file {KiCad (7.0.0)} date Tue Feb 28 15:15:27 2023
; FORMAT={-:-/ absolute / inch / decimal}
; #@! TF.CreationDate,2023-02-28T15:15:27-06:00
; #@! TF.GenerationSoftware,Kicad,Pcbnew,(7.0.0)
; #@! TF.FileFunction,Plated,1,2,PTH
FMAT,2
INCH
; #@! TA.AperFunction,Plated,PTH,ViaDrill
T1C0.0157
; #@! TA.AperFunction,Plated,PTH,ComponentDrill
T2C0.0197
; #@! TA.AperFunction,Plated,PTH,ComponentDrill
T3C0.0217
; #@! TA.AperFunction,Plated,PTH,ComponentDrill
T4C0.0394
; #@! TA.AperFunction,Plated,PTH,ComponentDrill
T5C0.0472
; #@! TA.AperFunction,Plated,PTH,ComponentDrill
T6C0.0591
; #@! TA.AperFunction,Plated,PTH,ComponentDrill
T7C0.0984
%
G90
G05
T1
X3.525Y-3.9
X3.525Y-4.325
T4
X2.7506Y-4.0016
X2.7506Y-4.1984
X3.3215Y-4.0016
X3.3215Y-4.1
X3.3215Y-4.1984
X3.7902Y-2.475
X3.8902Y-2.475
X3.95Y-4.375
X3.9902Y-2.475
X4.05Y-4.375
X4.0902Y-2.475
X4.15Y-4.375
X4.1902Y-2.475
X4.25Y-4.375
X4.2902Y-2.475
X4.35Y-4.375
X4.3902Y-2.475
X4.45Y-4.375
X4.4902Y-2.475
X4.55Y-4.375
X4.65Y-2.475
X4.65Y-4.375
X4.75Y-2.475
X4.85Y-2.475
X4.85Y-4.375
X4.95Y-2.475
X4.95Y-4.375
X5.0494Y-4.172
X5.05Y-2.475
X5.05Y-4.375
X5.1494Y-4.172
X5.15Y-2.475
X5.15Y-4.375
X5.2494Y-4.172
X5.25Y-2.475
X5.25Y-4.375
X5.35Y-2.475
X5.35Y-4.375
X5.4028Y-2.8744
X5.4028Y-2.9744
X5.4028Y-3.0744
T5
X2.95Y-2.2
X3.05Y-2.2
X3.15Y-2.2
X3.25Y-2.2
X3.35Y-2.2
X3.45Y-2.2
X3.55Y-2.2
X3.65Y-2.2
X3.75Y-2.2
X3.85Y-2.2
X3.95Y-2.2
X4.05Y-2.2
X4.15Y-2.2
X4.25Y-2.2
X4.35Y-2.2
X4.45Y-2.2
X5.75Y-3.9
X5.75Y-4.0378
T7
X2.7335Y-2.2
X2.7335Y-3.4205
X5.6862Y-3.4205
X5.6862Y-2.2
T2
G00X5.0388Y-2.2065
M15
G01X5.0388Y-2.1809
M16
G05
G00X5.3144Y-2.2065
M15
G01X5.3144Y-2.1809
M16
G05
T3
G00X5.0841Y-2.3
M15
G01X5.0722Y-2.3
M16
G05
G00X5.2809Y-2.3
M15
G01X5.2691Y-2.3
M16
G05
T6
G00X3.0518Y-3.8795
M15
G01X3.0006Y-3.8795
M16
G05
G00X3.0518Y-4.3205
M15
G01X3.0006Y-4.3205
M16
G05
T0
M30
